<?xml version="1.0" encoding="UTF-8"?>
<svg width="16px" height="16px" viewBox="0 0 16 16" version="1.1" xmlns="http://www.w3.org/2000/svg" xmlns:xlink="http://www.w3.org/1999/xlink">
    <!-- Generator: Sketch 43.2 (39069) - http://www.bohemiancoding.com/sketch -->
    <title>twitter-white</title>
    <desc>Created with Sketch.</desc>
    <defs></defs>
    <g id="Page-1" stroke="none" stroke-width="1" fill="none" fill-rule="evenodd">
        <g id="twitter-white" fill="#FFFFFF">
            <path d="M14.094,3.066 C14.771,2.659 15.292,2.016 15.537,1.25 C14.903,1.62 14.2,1.89 13.452,2.04 C12.854,1.4 12.002,1 11.056,1 C9.244,1 7.774,2.47 7.774,4.28 C7.774,4.54 7.804,4.79 7.859,5.03 C5.131,4.9 2.712,3.59 1.093,1.61 C0.809,2.091 0.649,2.651 0.649,3.261 C0.649,4.401 1.229,5.404 2.109,5.993 C1.571,5.976 1.064,5.828 0.622,5.583 L0.622,5.623 C0.622,7.213 1.752,8.541 3.255,8.843 C2.979,8.917 2.689,8.957 2.39,8.957 C2.18,8.957 1.98,8.937 1.78,8.899 C2.2,10.203 3.41,11.152 4.85,11.179 C3.73,12.059 2.31,12.583 0.78,12.583 C0.52,12.583 0.26,12.568 0,12.538 C1.46,13.468 3.18,14.012 5.04,14.012 C11.08,14.012 14.38,9.012 14.38,4.682 C14.38,4.542 14.38,4.402 14.37,4.262 C15.01,3.802 15.57,3.222 16.01,2.562 C15.389,2.809 14.759,2.986 14.094,3.066 Z" id="Shape"></path>
        </g>
    </g>
</svg>