<svg id="Layer_1" data-name="Layer 1" xmlns="http://www.w3.org/2000/svg" viewBox="0 0 149 161.59"><defs><style>.cls-1{fill:#ed1c24;}.cls-1,.cls-2{fill-rule:evenodd;}.cls-2{fill:#231f20;}</style></defs><title>adobe-logo</title><path class="cls-1" d="M59.75,39.29c.12.13,28.18,64.12,28.15,64.06H69.51c0-.2-8.7-20.86-8.61-21H41.08c.18.06,19-43.3,18.67-43.09Z"/><path class="cls-1" d="M0,0H43.09C43.21,0,.29,103.34.14,103.21S0-.07,0,0Z"/><path class="cls-1" d="M75.89,0h44.55c0,.26,0,103.41,0,103.26C120.44,103.6,75.89,0,75.89,0Z"/><path class="cls-2" d="M17.5,119.52l9.57,41h-7l-1.65-7.66H9.79L8.2,160.48h-7l9.58-41Zm-.37,26.33-3-15.33-3,15.33Z"/><path class="cls-2" d="M42.75,160.48l-.18-3.57h-.23c-1,2.81-3,4.68-5.6,4.68-6.16,0-8.75-7.19-8.75-16.09,0-7.61,1.91-15.86,8.84-15.86,2.41,0,3.55.88,5.29,3.16V119.52h6.15v41Zm-4.37-24.81c-1.69,0-4,1.64-4,10,0,3.86.5,10.06,4,10.06s4-5.56,4-10.06c0-8.31-2.37-10-4-10Z"/><path class="cls-2" d="M52.6,145.56c0-9.19,3.2-15.92,10.44-15.92s10.44,6.73,10.44,15.92-3.28,16-10.44,16-10.44-6.73-10.44-16Zm14.5,0c0-8.08-1.69-9.95-4.06-9.95-1.87,0-4,1.4-4,9.95,0,8.72,2.18,10.06,4,10.06,2.65,0,4.06-2.45,4.06-10.06Z"/><path class="cls-2" d="M83.23,160.48H77.72v-41h6.2v13.63a5.5,5.5,0,0,1,5.24-3.51c6.52,0,8.89,6.85,8.89,15.86s-2.33,16.09-8.85,16.09c-2.69,0-4.28-1.34-5.6-4.68h-.19l-.18,3.57Zm4.42-4.86c3.38,0,4-5.56,4-10.06,0-8.31-2.37-9.95-4-9.95s-4,1.64-4,9.95c0,3.86.5,10.06,4,10.06Z"/><path class="cls-2" d="M121.39,151.88c-1.55,9-6.56,9.71-9.94,9.71-3.78,0-10.25-1.4-10.25-16,0-10.18,4.19-15.92,10.71-15.92,4.1,0,9.89,2.28,9.89,16.5v1.64H107.58c0,7,2.41,7.84,4.15,7.84,1.41,0,2.87-.41,3.46-3.74Zm-6-9.07c-.18-6-1.64-7.2-3.69-7.2-3.51,0-4.11,5-4.15,7.2Z"/><path class="cls-2" d="M123.58,2.41V0h10.51V2.41H130.2V12.62h-2.73V2.41Zm13.89.47v9.74h-2.73V0h3.61l3.56,9.93L145.44,0H149V12.62h-2.73V2.88l-3.45,9.74h-1.93l-3.42-9.74Z"/></svg>