<svg id="Layer_1" data-name="Layer 1" xmlns="http://www.w3.org/2000/svg" xmlns:xlink="http://www.w3.org/1999/xlink" viewBox="0 0 75 66.36"><defs><style>.cls-1{fill:#fff;}.cls-2{mask:url(#mask);}</style><mask id="mask" x="0" y="-20.46" width="75" height="86.82" maskUnits="userSpaceOnUse"><g transform="translate(0 -20.7)"><g id="mask-2"><polygon id="path-1" class="cls-1" points="0 87.04 75 87.04 75 0.24 0 0.24 0 87.04"/></g></g></mask></defs><title>Associated_Press_logo_2012</title><g id="Page-1"><g id="AP_RGB" data-name="AP RGB"><g id="Group-4"><g class="cls-2"><polyline id="Fill-3" points="0 57.3 75 57.3 75 66.36 0 66.36 0 57.3"/></g></g><polyline id="Fill-5" points="17.26 0 4.66 37.82 13.78 37.82 22.35 11.09 26.64 24.45 21.09 24.45 18.87 32.08 29.09 32.08 30.93 37.82 40.32 37.82 27.71 0 17.26 0"/><path id="Fill-6" d="M54.66,20.7H41.56V58.51h9.06V28.33h3.65c4.24,0,6.65,2,6.65,5.67s-2.41,5.67-6.65,5.67h-.58V47.3h1c9.78,0,15.52-4.92,15.52-13.3,0-8.54-5.74-13.3-15.52-13.3" transform="translate(0 -20.7)"/></g></g></svg>