<svg id="Layer_1" data-name="Layer 1" xmlns="http://www.w3.org/2000/svg" viewBox="0 0 117.74 144.59"><defs><style>.cls-1{fill:#b0b7bc;}</style></defs><title>apple-mac-vector-logo</title><path class="cls-1" d="M98.33,76.82C98.16,58.52,113.27,49.73,114,49.3,105.46,36.87,92.23,35.17,87.51,35c-11.26-1.14-22,6.63-27.68,6.63S45.3,35.13,36,35.31c-12.28.18-23.59,7.14-29.92,18.12-12.75,22.13-3.26,54.91,9.17,72.86,6.07,8.77,13.31,18.65,22.82,18.29,9.16-.35,12.63-5.91,23.69-5.91s14.19,5.91,23.87,5.73c9.86-.17,16.1-9,22.13-17.75a79.87,79.87,0,0,0,10-20.57c-.21-.1-19.21-7.38-19.41-29.26"/><path class="cls-1" d="M80.13,23.09C85.19,17,88.59,8.47,87.65,0c-7.27.3-16.07,4.85-21.3,11C61.68,16.37,57.58,25,58.69,33.32c8.1.63,16.39-4.12,21.44-10.23"/></svg>