<svg id="Layer_1" data-name="Layer 1" xmlns="http://www.w3.org/2000/svg" viewBox="0 0 177.06 84.17"><defs><style>.cls-1{fill-rule:evenodd;}</style></defs><title>cnn-logo</title><path class="cls-1" d="M42,23.75H56.22V13.42H41.5c-8.76,0-16.14,3.06-21.33,8.85A29.07,29.07,0,0,0,13,41.79C13,61.17,28.26,70,42.47,70H66.9a2.86,2.86,0,0,0,2.88-2.89V16.47c0-2.54,1.28-4.53,3.34-5.19a5,5,0,0,1,5.52,2l.06.09C85.57,24.71,113,68.55,113.31,69a2.11,2.11,0,0,0,2.25,1c.81-.26,1.3-1.22,1.3-2.55v-51c0-2.54,1.28-4.53,3.33-5.19a5,5,0,0,1,5.53,2l.06.09C132.65,24.71,160,68.55,160.23,69a2.19,2.19,0,0,0,2.35,1c.85-.27,1.36-1.22,1.36-2.54V.29H153.45V39.44s-6.15-10.68-16.83-29C126.11-7.47,106.37,0,106.37,15.34v24.1s-6.15-10.68-16.83-29C79-7.47,59.29,0,59.29,15.34V56.75a3,3,0,0,1-2.75,2.91H43.6C15.61,59.66,18.2,23.75,42,23.75Z" transform="translate(0 0)"/><path class="cls-1" d="M166.57.29V67.43c0,2.48-1.22,4.42-3.18,5a4.28,4.28,0,0,1-1.32.21,5.05,5.05,0,0,1-4-2.22c-.33-.52-27.56-44.26-34.49-55.7a2.33,2.33,0,0,0-2.55-1,2.57,2.57,0,0,0-1.5,2.68v51c0,2.5-1.2,4.43-3.13,5.06a4.73,4.73,0,0,1-5.25-2C110.8,70,83.41,26.22,76.48,14.77a2.34,2.34,0,0,0-2.55-1,2.56,2.56,0,0,0-1.51,2.68V67.1a5.47,5.47,0,0,1-5.52,5.53H42.47c-22.08,0-32.14-16-32.14-30.84A31.71,31.71,0,0,1,18.21,20.5C23.92,14.14,32,10.78,41.5,10.78H56.22V.29H43.28c-58.08,0-57.6,82.83.81,82.83H66.9c9.86,0,16.17-5.66,16.17-16.5v-21s12.78,21.35,17.8,29.6c8.57,14.08,29.28,11.33,29.12-6.31V45.59s12.94,21.35,17.95,29.6c8.42,14.08,29.12,11.33,29.12-6.31V.29Z" transform="translate(0 0)"/></svg>