<svg id="Layer_1" data-name="Layer 1" xmlns="http://www.w3.org/2000/svg" viewBox="0 0 175.75 104.79"><defs><style>.cls-1{fill:#231f20;fill-rule:evenodd;}</style></defs><title>41986-Columbia_TriStar</title><path class="cls-1" d="M34.77,15.51l-.31,1.56c-1.1-1.25-.94-4.07.31-1.56ZM2,11.28A1.7,1.7,0,0,1,.31,9.4V1.88A1.7,1.7,0,0,1,2,0h5C8,0,8.61.63,8.61,1.88v2l-1.4.31V1.72H1.88V9.56H7.21V7.05l1.4.62V9.4c0,1.25-.62,1.88-1.56,1.88Zm11.9,0A1.69,1.69,0,0,1,12.22,9.4V1.88A1.69,1.69,0,0,1,13.94,0h5.8c.94,0,1.56.63,1.56,1.88V9.4c0,1.25-.62,1.88-1.56,1.88Zm-.15-9.56V9.56h6.1V1.72ZM32.42,9.56v1.72H24.91V0h1.41V9.56Zm5.17,1.72A1.78,1.78,0,0,1,35.87,9.4V0h1.57V9.56h5.48V0h1.57V9.4a1.79,1.79,0,0,1-1.73,1.88Zm11.91-8v8H47.93V0H49.5l3.6,6.73L56.7,0h1.41V11.28H56.7v-8L53.1,10,49.5,3.29ZM69.86,9.4c0,1.25-.62,1.88-1.57,1.88H61.72V0h6.57c1.1,0,1.57.63,1.57,1.88V3.29c0,1.1,0,1.72-.78,2.35.78.63.78.94.78,2V9.4ZM63.28,1.72c-.16,3.14,0,3.14,0,3.14h4.55c.31,0,.46-.32.46-.63v-2c0-.31,0-.47-.46-.47Zm4.55,7.84c.31,0,.46-.16.46-.63V7.05c0-.32-.15-.63-.46-.63H63.28V9.56ZM75,0V11.28H73.46V0Zm29.29,11.28V1.72h-3.44V0h8.61V1.72h-3.6v9.56Zm9.56-4.55v4.55h-1.41V0h6.58c.93,0,1.56.63,1.56,1.88v3c0,1.25-.63,1.87-1.56,1.87h-1.26l3.45,4.55h-1.88l-3.45-4.55Zm0-5V5h4.85a.41.41,0,0,0,.47-.47V2.19a.41.41,0,0,0-.47-.47ZM125.62,0V11.28h-1.41V0Zm5.8,11.28A1.78,1.78,0,0,1,129.7,9.4V8.62L131.11,8V9.56h5.64V6.42h-5.17a1.69,1.69,0,0,1-1.73-1.88V1.88A1.7,1.7,0,0,1,131.58,0h5a1.66,1.66,0,0,1,1.56,1.88v.78l-1.4.47V1.72h-5.49v3h5.17a1.77,1.77,0,0,1,1.72,1.88V9.4a1.77,1.77,0,0,1-1.56,1.88Zm12.22,0V1.72H140V0h8.61V1.72h-3.6v9.56Zm7.83-2.82-1.1,2.82h-1.56L153.51,0h1.09l4.55,11.28h-1.42l-1.09-2.82ZM154,2.19l-1.88,4.7H156l-2-4.7Zm8.61,4.54v4.55h-1.41V0h6.58a1.67,1.67,0,0,1,1.57,1.88v3a1.66,1.66,0,0,1-1.57,1.87h-1.25L170,11.28h-1.88l-3.44-4.55Zm0-5V5h4.86a.41.41,0,0,0,.47-.47V2.19a.42.42,0,0,0-.47-.47ZM81.14,8.46,80,11.28H78.63L83.18,0h1.09L89,11.28H87.41l-1.1-2.82ZM83.8,2.19l-2,4.7h3.91L83.8,2.19ZM131,39.63c-1.1.63-2.66-2-3.92-.16-.31-1.09-1.25-2.35-.62-3.44l.94-.94c-.94.94.47,1.88.62,2.82.16-.16.47-.32.32-.63.31.16.31.94.63.47l.46-.63.32.94c.31,0,.62-.31.94-.78.15.94-1.26,1.88.31,2.35Zm16.92,18.64c-.63,0-1.26.47-1.88,0a7.21,7.21,0,0,1-2-2.82,10.81,10.81,0,0,0,3.92,2.82Zm-52.63-9.4c2.5-.31,5-.47,6.89-1.88a7.2,7.2,0,0,1,1.41.94c-2.51.78-5.33,1.88-8.3.94Zm80-16.13c-2.67,4.85-8,6.73-12.84,8a15.77,15.77,0,0,0,12.21-5c-3,4.86-8.14,6.11-13.31,6.74,1.56.63,3.13,0,4.7.16a24.67,24.67,0,0,0,7.2-3.14c-3.29,3.92-8.14,4.7-13,5,3.29,1.1,6.89,0,9.87-1.25v61.4H88.5V42.92c3,1.25,6.58,2.19,10,1.25-4.86-.31-9.72-1.09-13-5a16.58,16.58,0,0,0,11.75,3.13v-.15c-5.17-.63-10.18-2.2-13.15-6.74a15.42,15.42,0,0,0,12.37,4.86c-5-.94-10.49-3-13-8A17.67,17.67,0,0,0,96.8,38.53C91.32,37,84.9,33.52,83,27.41c2.66,4.86,8.14,8.77,13.63,9.24-3.61-1.56-7.52-3.6-9.87-7A15.23,15.23,0,0,0,88.66,31V22.08h28.82c3.13,0,1.41-2,7.21-5,5-1.88,11.27-.78,14.25,3.92l3.13.94h28.2v9.4s.47,0,2.19-1.57c-2.35,3.76-6.89,5.8-10.5,7.21a17.67,17.67,0,0,0,13.79-9.25c-1.73,6.27-8.46,9.4-13.94,11.13a19,19,0,0,0,13.47-6.11Zm-16.92,13a8.51,8.51,0,0,0,2.82-8.46c-5.64,1.25-12.69.94-15.82,6.89-3.13,3.6-6.73,6.89-11.28,7a17.15,17.15,0,0,0,8.3-5.95c1.57-4.07,5.33-8,9.87-8.46a31.38,31.38,0,0,0,15.67-3.92V24.44H145.2a11.49,11.49,0,0,1,2.67,4.85l2.82,1.1A7,7,0,0,1,154,35.71c-.16,0-.16-.15-.16-.31A6.62,6.62,0,0,0,148.18,31c-.16.47.47,1.1,0,1.57a18.29,18.29,0,0,0-1.72-5.17A9.88,9.88,0,0,0,140,23c.15.47.46.94.15,1.41-2.35-4.86-7.36-6.74-12.53-6.43-3.76.32-7.36,3.14-9.24,6.58-.16-.62.47-1.25.31-1.72l-1.57.47c-3.6,1.1-6,5.33-6.26,8.93h-.16a1.82,1.82,0,0,1,0-1.26h-.47c-2.66.32-4.23,2.51-5,5a7.15,7.15,0,0,1,.47-2.51c.94-2.19,3.29-3.6,5.33-4.23a13.38,13.38,0,0,1,2.66-4.85H90.85v8c1.25,1.1,2.66,1.41,4.07,2.2,6.11,3.13,14.57-.47,19.11,6.26,1.72,4.55,6.11,8.78,10.66,10-5.33,0-9.72-4.7-12.69-9.09-3.76-3.76-9.4-3.91-14.57-4.7a9.32,9.32,0,0,0,3,8.46,19.62,19.62,0,0,1-9.55-1.1V60.93a10.3,10.3,0,0,1,4.86-.78,9.83,9.83,0,0,1,7.67-6.27c2-.15,3.76-2.19,4.23-4.07-1.88,1.57-3.76,3.13-6.26,2.66a9.28,9.28,0,0,0,4.07-3.29,10.19,10.19,0,0,1-7,1.73,14.43,14.43,0,0,0,5.48-3,39.69,39.69,0,0,0,10.65,3l.47.31c-.94,2.19-3.29,4.7-5.64,5a7,7,0,0,0,3.14-5.17,8.47,8.47,0,0,1-5.8,4.08c1.72-.94,2.66-2.82,3.29-4.55l-1.88,1.73c-1.56,2.19-4.54,1.25-6.58,2.5-2.19,1.41-4.07,3.45-4.38,6,.31.15,1.09.47,1.09.78a23.14,23.14,0,0,0-3.13-.63,7,7,0,0,0-4.23,1.57v39.63h76.91V62.34a7.6,7.6,0,0,0-7-.78l1.1-.94a9.23,9.23,0,0,0-6.27-6.42c-2.82.47-5-1.57-6.73-3.29.62,1.72,1.41,3.6,3.13,4.38-2.35,0-4.39-2.5-5.8-3.76.63,1.88,1.41,3.92,3.29,5h-.15a8.15,8.15,0,0,1-5.49-5.33,43.17,43.17,0,0,0,11.13-3,14.22,14.22,0,0,0,5.48,3,11.34,11.34,0,0,1-7.21-1.88,10.82,10.82,0,0,0,4.39,3.6,9.57,9.57,0,0,1-6.42-2.82,5.41,5.41,0,0,0,2.66,3.45c4.23,0,7.83,3,9.4,6.58a10.77,10.77,0,0,1,4.54.78V44.8a15.87,15.87,0,0,1-9.4.94ZM144.42,60.15a8.78,8.78,0,0,1-1.88-3.6,12.06,12.06,0,0,0,3.29,3.6c-.15.31-.94.16-1.41,0Zm12.53-13,1.26-1.1c2.34,1.41,5.79,1.1,8.45.63a13.82,13.82,0,0,1-9.71.47Zm-30.23,5a.81.81,0,0,1,.47-1.1c-.16.16-.31,1.1.16,1.41l.31.32c-.63.15-.78-.32-.94-.63Zm5.8-12.06c-.32,0-1.1-.78-1.26-1.25-.78-1.57,1.26-1.73,1.26-3.45a2.09,2.09,0,0,1,.62,2.35c0,.78-1.09.78-.62,2.35ZM157,47.3a5.72,5.72,0,0,0,2.35,1.26l4.07.62c-2.5.79-5.64-.15-8.14-1.09A10.27,10.27,0,0,1,157,47.3ZM138.47,64.69a9.13,9.13,0,0,1-.32-5c.32,1.72.32,3.6,1.57,5Zm-9.24-8.3c.31,1.88-.16,3.6.47,5.33-1.57-1.73-.78-3.61-1.41-5.49.31.16.63,0,.94.16Zm-14.57,5.17a8,8,0,0,0,2.66-3.76,8.14,8.14,0,0,1-1.09,3.76,2.63,2.63,0,0,1-1.57,0Zm21.15,5.64c1.25,3.6-2.35,6-1.57,9.71,0,1.1-1.1,1.88-1.41,3,.16,2.19-.63,4.54.16,6.58a3.93,3.93,0,0,1-.63,2.19l-1.1.47c-.15-.63.47-1.88-.31-2a3.07,3.07,0,0,0-.47,1.57c-.78-.63-.47-2.19-.16-3.14,1.41-1.25.16-3.44.63-5.16-.16,0-.47.31-.63.15-.47-.78,0-1.88-.78-2.35a2.37,2.37,0,0,0-.16,2,1.23,1.23,0,0,1-.62-.63c-.32-3.13,1.72-5.64,1.56-8.61-.78-.63-2-.16-2.66-.47l-.94,1.72c-1.72-.94-1.1-3.13-1.41-5l-.94.94a7,7,0,0,0-.94-7.36c2.35.78,1.57,4.23,3.92,5.32.47-2.82,4.23-3.6,4.38-6.42a7.45,7.45,0,0,0-.62-6.58c-.94.31-1.26,2.19-2.67,1.41l-.31-.31a2.2,2.2,0,0,0,.94-.32c.16-.78-.63-1.09-.47-1.88a2.34,2.34,0,0,0,1.1.79c.31-.63.47-1.73,1.56-1.57-1.09-2.82,2.35-4.23,1.1-6.89-2.35,1.41-.94,4.7-2.19,6.42l-.47.47c0-2.19.78-4.07.62-6.26l-.31-.48c.63-.46.78-1.4,1.41-2v.78c.63-.15.94-.94,1.1-1.41.31,1.1.31,2.66,1.72,3.14a.33.33,0,0,0-.31.31l1.25.78-.94.32c.16.78,1.25,1.09,2,1.09-.47.78-1.26.63-2,.78.31.32.78.32,1.25.47-.62.47-1.41.32-2.19.47a1.45,1.45,0,0,0,1.41.48,2.77,2.77,0,0,1-1.88.62c3.13,4.39,3.45,10.5,1.41,15.51-2,3.76-4.23,7.52-3.92,12.22.32.31.63,0,.94,0,.94-.79.16-1.88,0-2.67.32-3,1.26-6.11,4.23-7.67l.32-.47Zm-16.76-8.77a8.92,8.92,0,0,1-.94,4.54h-1.26a13.72,13.72,0,0,0,2.2-4.54Zm8.92,18c-.31.31-.62.47-.94.31a2,2,0,0,1-.78-1.72c.47-.16.78-.78.94-1.25v-.47c1.1.62.94,2,.78,3.13Zm-8.92-12.06a10.43,10.43,0,0,0,1.41-5,10.89,10.89,0,0,1-.16,5Zm7.67,17.39a19.84,19.84,0,0,1,1.72,5.79c1.26,1.25,1.26,3,1.26,4.54-.32.16-.16.63-.63.79-.63,0-.78-.79-1.1-1.41,0-.16.16-.63-.15-.47h-.31a2.41,2.41,0,0,0,.46,1.72,1.86,1.86,0,0,1-1.56-1.25c-.31-1.73.15-3.61-.31-5.33.31-2.19-.79-4.07-1.57-5.79-.16-2.82-.47-5.49-1.88-7.84a12.44,12.44,0,0,1-.47-4.85c1.1,2.66,2.82,5.17,3.13,8.3,2.35.94,1.1,3.76,1.41,5.8Zm-14.1-21.93a10.44,10.44,0,0,0,3.45-3.45,7.47,7.47,0,0,1-2,3.76l-1.41-.31Zm29.14.47-.47-2.51A8.78,8.78,0,0,0,144,61.87c-1.25.63-1.72-.78-2.19-1.56ZM127,43.39c-.47.15-.93-.16-.93-.47.31-.94.62.16.93.47Zm-.31,6.89a6.36,6.36,0,0,0-.78-4.7V44.8c.47,1.72,2.19,3.6.78,5.48Zm13,10V58.58a10.22,10.22,0,0,0,2.19,4.54c-2.19.79-1.72-1.72-2.19-2.81Zm-25.06-5.17a5.27,5.27,0,0,1-2.35,3.13l-1.41-.16a9.89,9.89,0,0,0,3.76-3Zm-12.85-8.3a13.1,13.1,0,0,1-9.71-.47c2.67.47,6,.78,8.3-.63.63.15.95.78,1.41,1.1ZM50.12,21.3l2.51.63,28.67.15v82.71H0V22.08H28.51c.94-.62,2.5-.31,3.13-1.25.31.47-.16,1.25.16,1.41.62-.31-.47-1.88.78-1.56l-.31-.63h0c0-.16.15-.16.15-.31-.47.47-1.25-.16-1.25-.79a5,5,0,0,1,.63-2c-.47.94.47,1.72.47,2.66.94.16.47-1.1.78-1.72,0-1.1-1.41-1.73-1.1-3l1.1-2c.63.78,0,1.4,0,2a8.61,8.61,0,0,1,.63,3.45,16.68,16.68,0,0,0,3-1.41c4.23-1.26,9.09-.47,12.06,2.82l1.41,1.56ZM31.64,22.71c-.63,0-.78.63-.63,1.1,0-.63.79-.31.94-.94-.15,0-.15-.16-.31-.16ZM31.8,24l-.16.62h.16V24Zm1.41,64.69c.15-.63,1.25-1.26.62-2-.94-6-.62-10.18-.62-16.6,0-3.14,1.88-6.27-.16-9.09,1.57-2-1.25-4.07-.16-6.42l1.88-3c.16-.94.32-2,1.26-2.5-2.51-1.73-.94-4.86-1.26-7.36a35.41,35.41,0,0,1-4.38-6.74l.16-7.36a7.17,7.17,0,0,1-.48-3l-.15.32c-.32-.63.15-1.26.15-1.73a10.71,10.71,0,0,0-8.14,9.09v-1.1c-2.66.16-4.7,2.51-5.48,4.86-.16-.32,0-.47,0-.94.47-2.67,3.29-5,5.79-5.48a10,10,0,0,1,2.51-5.17H2.35L2.19,61.09c1.57-.31,3.29-.94,4.86-.63.94-2.19,2.82-4.7,5.33-5-1.89,1.41-3.92,3.45-3.92,5.64.31.16.94.47.78.78a7.17,7.17,0,0,0-7,.79v39.47H15V98.84h6.42v-3h4.07c0-.78.16-2,.16-3,3.29.31,5.79-1.57,7.52-4.23Zm3.13-45.74c.31,1.41-1.25,3.13.63,4.07l-.63-4.07Zm.31,8.93c-.94,1.25-3.13,2.35-2.35,3.76l2.35-3.76ZM34.46,60l.63.79a38,38,0,0,0,.78-4.7L34.46,60Zm1.88,2.35c-1.72,6.58-1.41,15.35-.63,21.93,2.35-6.42.63-15,.63-21.93Zm-.47,33.52c2,.63,2.35-1.88,3.45-2.66-1.57-.47-2.35,1.72-3.45,2.66Zm1.41-45.42c.16-.16.47-.32.63-.47l.15.31c.47.16.47-.31.79-.31,1.09.78,1.56-.63,2.35-1.1.62-.31,1.56-.16,1.88-.78-1.1-1.1-2.67.15-4.08-.16a4.12,4.12,0,0,0-1.72,2.51ZM50,95.71c1.25-.47.94-1.88,1.88-2.67H43.23l-.15.16,2.82,2c.15,1.09-1.1.31-1.57.62v1.26c.31.78.78,1.72,1.72,1.72,1.72-.63,1.1-4.23,3.92-3.13ZM64.06,33.05a7.34,7.34,0,0,1,1,2.82A7.17,7.17,0,0,0,59.21,31v.79c-.63-3.76-3.76-7.68-7.52-8.62h-.47c-.15.47.16,1.1.31,1.73-2-4.08-6.42-7.52-11.43-7a15.16,15.16,0,0,0-6.27,2.35l-.94.62-.15,7.68-.32.16c.16.15.47,0,.63.15V29c-.31,0-.47.15-.47.31v.63h-.47c0-.16.16-.47,0-.63H31.8v-.78a5.83,5.83,0,0,0,.62-1.72l-.15-.16c-1.88,2.82.15,5.32-.47,8.46,1.41,1.72,2.19,3.76,3.6,5.48.47-.31.16-1.1.47-1.57a25.08,25.08,0,0,0-3.29-3.91c0-.32-.16-.47.16-.63h.31c1.1,1.25,1.57,3,3.29,3.76.31,0,.47-.31.63-.47A1.43,1.43,0,0,1,36.81,36c.47-.94-1.57-1.57-1.1-2.82.79-.94-.62-2.51.94-3.14,0-.62,0-1.25.63-1.56,1.57.94,3.45-.94,4.54.78.63.94.16,2,.94,3,0,.94.32,2.82-1.09,2.82-.16,0-.47.15-.63,0a5.15,5.15,0,0,0-.16-4.55c-.31-.47-1.25-.31-1.72-.15a1,1,0,0,0-.63,1.25A1.87,1.87,0,0,1,39.63,34c-.16,0-.16.16-.16.31.16.47.94-.15.94.47-.47,0-.62.47-.94.63.32.63.94.78.63,1.72a1.21,1.21,0,0,0-.63,1.73,2.19,2.19,0,0,1-.94-.79,2.6,2.6,0,0,0-1.41.79l2.67,3.76c-.47-1.73,1.56-2.67,2-4.08-.15,2.35-2.66,3.76-2,6.58a33.2,33.2,0,0,0-2.51-5.48,14.81,14.81,0,0,0,1.25,7.83,47.87,47.87,0,0,1,7.68-5.32c1.1.94,1.56,2.19,2.35,3.29-1.41,0-2.82-.16-3.76.46,1.1.63,2.82.48,4.23,1a9.54,9.54,0,0,1,0,3c-.16-.47-.78-.94-1.26-1.41.32,1.26,1.89,2.66.79,4.23-.31.63-.94.63-1.25,1.1-.63-1.88-2.67-3.29-4.39-3.92a3.46,3.46,0,0,0-2.51,2.35C39,56.23,44.33,58.27,44.33,62A10.55,10.55,0,0,1,44,68.61c-.32-1.88.15-4.39-1.88-5.17-.79-.16-1.41.63-1.73,1.25.16,2.66,1.88,4.7,1.73,7.52a18.16,18.16,0,0,1-.94,3.92c1.09,5.16,1.41,12.21-1.57,16.76,2,1.09,2-1.88,3.76-1.73,2.66-.94,4.38,1.57,6.89,1.1-2.51-.94-4.85-3.29-7.83-2,1.41-3.91,1.72-8.3,1.88-12.53.62,3.6-.31,8,1.72,10.81s4.86,3.45,8,3.76c-.15.78.78.63,1.41.63.16.94-.31,2.35.31,3h2.82c0,1.1-.31,2.35.32,3.14h7.2v3.44c4.39,0,8.77,0,13.16-.15V63a6.26,6.26,0,0,0-6.11-1.57c-.47,0-.78.32-1.1.32,0-.16,1.57-.47.94-1.41a9.84,9.84,0,0,0-3.91-4.86c2,.47,4.38,2.82,5.17,5.17a10,10,0,0,1,4.85.78l.16-37H56.39c.47,1.09,1.41,2.19,1.88,3.28.31.63.31,1.57.94,2.2a6,6,0,0,1,4.85,3.13Zm5.18,11.43A7.85,7.85,0,0,0,65.32,39c2.51.32,4.54,3,5,5.33a9.18,9.18,0,0,1-1.57,7.83L66.1,54.51a10,10,0,0,0,3.14-10ZM48.71,66.26c-.94,6.73,1.1,11.59.32,18.32.31,1.57.31,3.45.94,5-1.57-.32-1.88-2.35-2.2-3.61,0-4.22-1.25-8.14-.78-12.37.16-1.41.63-3.29-.63-4.07a18.28,18.28,0,0,0-.62-7.21c.47-.15.62.16.94.32-.16-2.51.31-5.8-1.25-7.84,3.28,2.51,2.66,7,3,10.81l.31.63Zm-3-26c-.16.78.47,1.56-.47,1.88l.47-1.88Zm-1.57-.63-.63-1.88h.79l-.16,1.88Zm-2,4.54.78-4.23.31,3.45-1.09.78ZM40.26,32.42c0-.47.31-.31.62-.31v.31ZM16,39.32a8.27,8.27,0,0,0-4.08,6.42,10.71,10.71,0,0,0,3.29,9.08,9.62,9.62,0,0,1-4.54-7.2c-.16-3,1.25-6.58,4.23-8,.47-.16.78-.16,1.1-.31Z"/></svg>