<svg id="Layer_1" data-name="Layer 1" xmlns="http://www.w3.org/2000/svg" viewBox="0 0 187.09 152.02"><defs><style>.cls-1{fill:#1d1d1b;fill-rule:evenodd;}</style></defs><title>20th-century-fox--eps--vector-logo</title><path class="cls-1" d="M95.06,21.39A11,11,0,0,1,102.62,23,10.19,10.19,0,0,1,106.94,32c-.51,4.54-1.59,7.42-5.48,10.59a16.38,16.38,0,0,1-11.52,4,11.21,11.21,0,0,1-8.21-5c-1.51-2.66-1-6.41-.57-8.06s3.17-6.05,6-8.29a19.77,19.77,0,0,1,7.93-3.81Z"/><path class="cls-1" d="M0,152v-6l34.64-3.89s-7.13-2.81-8.86-8.06C23.91,128.54,28.37,123,32,122.35c4.9-.94,11.31-1.44,11.31-1.44h0l6.34.57,137.47,15.77V152Z"/><polygon class="cls-1" points="58.76 118.96 148.63 108.52 169.66 116.52 169.73 130.99 58.76 118.96 58.76 118.96"/><path class="cls-1" d="M187.09,0H163.47L173,97.43s-.21,1.66-1.36,1.87a1.14,1.14,0,0,1-1.37-.93h0l-4.25-16.13L148.56,76,130.34,93l15.12,9.72-14.54,1.73-8.21-5.26-6.41,6.84-14,1.66L114.5,95.06,95.78,84.25l-8.86,1.37s7.63,2.23,10.73,4.83,3.67,5.32,2.95,9.79-5.62,8-5.62,8h0l-28.59,3.46L63.08,110s-4.25-2.16-4.46-6.76c-.22-4.18,4.46-10.74,4.46-10.74h0l-7.27-2.08v6.48L41.26,99.16v5l13.11-1.73v5.91l-12.89,1.87.07,4.25-8.64,1.15V95.49L30,95.92V91.67L148.56,70.79l16.35,6.12-5.4-22.18-10.73-4-7.49,11.66-.08,6.34-5.76,1.15V63.59l-4.89-4.9-6.34-1.44s1.37.86,1.87,1.15a4.8,4.8,0,0,1,2,4.39c0,2.67-3.53,4.11-3.53,4.11h0l6,3.89-6,1.22-6.84-3.53-.08,4.68-5.11.94V60.42l-4.1-1.23s0,9.44-.07,12.89c-.08,2.67-3,3.39-3,3.39s-6.77,1.87-9.14,1.15a3.22,3.22,0,0,1-2.31-3h0V64l-2.09-1.37-.07,4.18-4,.93.07,10.8-5,.94L83,68.92l-4,.72L78.85,67l-2.52-1.08V80.58l-4.75.86L65,75.76l.07,6.84-4.61.86.07-12.31L57,70.07v3.31L50.91,75v2.6l5.26-1.16v3l-5.26,1.15V83L56.82,82l.07,2.09L46.45,86l.07-10.44s-1.23-.29-4.47-.72c1.52,1,1.16,1.8,1.16,1.8h0L40.83,79s-.94-1.23-3.24-.72C35.79,78.64,35,80.36,35,82s1,3.89,3.31,3.53a4.69,4.69,0,0,0,3-2.38h0l2.81,1.44L42.7,86.7S35.21,88.14,34,88.29c-2.52-.94-3.1-3.1-3.17-5.12a9.49,9.49,0,0,1,2.3-6.55h0L30.32,75V72L148.63,45.8l9.72,3.74-3.89-15.62-8-2.67-.07,11.38-3.46.72V35.29c-.07-2.81-.72-3.39-1.73-3.46-1.72-.07-2.23,1.37-2.23,3.74v8.72h0l-4,.86-.07-18.51-23.26-9.79a31.35,31.35,0,0,1,2.45,2.66c2.88,3.53,4.25,7.35,3.17,14.05a25.64,25.64,0,0,1-4.76,11.23c-2.45,4.18-8.35,8.14-8.35,8.14s-14.19,3.38-18.08,3.74-8.78-3.17-11.23-5.61a17.9,17.9,0,0,1-4.54-8.72c-.72-3.17,1.44-11.59,1.44-11.59h0l-5.25-2.81s.93,2,1.29,3.1,1,2.45.15,6.55a10.11,10.11,0,0,1-2.16,4.75h0l-12.25,15,14.69-2.8v6L33.85,68.27V64.38S54.58,40.76,55.81,39c1.87-2.59,2.59-4.9.21-6.77s-5-1.08-7.7,1.15c-2.38,2-3.6,6.48-3.6,6.48h0L34.21,41.62l2.66-8.06c3-7.13,12.39-10.37,16.63-10.88,2.38-.28,6.27,1.08,6.27,1.08h0l12.6,5.62s.43-.65,1.08-1.8c1.73-3.24,9.44-11.59,12.24-13a28.36,28.36,0,0,1,15.41-2.81c2.81.36,9.15,2.81,9.15,2.81h0l24.63,10.3-.07-7.06,4.24-1.51,12.39,5.25L146.33.14,35.93,0S17.79,99.09,17.43,101.25c-.29,1.58-1.08,2.23-2.74,1.87-1.44-.36-1.08-2.66-1.08-2.66h0L17.93,0H0V143.45l9.58-1.16-.07-24s.21-1.94,2-1.72a31.44,31.44,0,0,1,4.25.5,2.16,2.16,0,0,1,1.51,2.52v21.6h0L26.36,140s-3.24-1.22-4.32-7.06a11.32,11.32,0,0,1,1.87-8.42c2.37-3.67,7-5.11,8.57-5.33s116.8-14,116.8-14h0l20.45,8.13v-1.94a1.83,1.83,0,0,1,1.87-1.87c2.67,0,2.88,0,4.32-.07a1.9,1.9,0,0,1,2.16,2.08h0L178,132l9.08.93V0ZM13.9,111.47c-5.26-.64-4-5.9-4-5.9h0l9.43,1.51s0,5-5.47,4.39ZM173.48,106c-3.82.72-5.26-3.17-5.26-3.17h0l8.71-2s1.37,4.25-3.45,5.18ZM132.42,32.05l-2.95.72v-4.4l-3.6.87V47.52l3.6-1.08v-10l2.95-.94V32.05Z"/><path class="cls-1" d="M99,60.78l4.1,2.09s.07,7.34.07,8.42-.57,1.8-2,2.09S99,73.6,99,71.65V60.78Z"/><path class="cls-1" d="M118.17,61.21a11.57,11.57,0,0,1,2.81,0,1.58,1.58,0,0,1,.94,1.87,1.6,1.6,0,0,1-1.37,1.37,17.37,17.37,0,0,1-2.38.5h0V61.21Z"/><polygon class="cls-1" points="133.58 54.01 140.42 55.45 138.05 59.12 133.58 54.01 133.58 54.01"/><polygon class="cls-1" points="63.3 67.55 72.23 70.36 72.16 76.19 63.3 67.55 63.3 67.55"/><path class="cls-1" d="M71.58,95.56a19.32,19.32,0,0,1,8.57-3c4.1-.28,7.34.29,9.58,2.09s2.37,4,.93,5.84-2.52,2.81-5.83,4a21.73,21.73,0,0,1-10,.86c-2.59-.5-4.25-1.08-5.4-2.52-2.16-2.66,0-5.54,2.16-7.27Z"/><polygon class="cls-1" points="110.18 81.01 126.96 83.68 121.92 88.57 110.18 81.01 110.18 81.01"/><path class="cls-1" d="M154.18,32.48l-2.38-9.22-12.67-5.33V30.17a4.46,4.46,0,0,1,3.31-1.87,4.36,4.36,0,0,1,3.67,1.37h0l8.07,2.81Z"/></svg>