<svg id="Layer_1" data-name="Layer 1" xmlns="http://www.w3.org/2000/svg" viewBox="0 0 195.84 43.32"><defs><style>.cls-1{fill:#231f20;fill-rule:evenodd;}</style></defs><title>IFC</title><path class="cls-1" d="M155.09,21.91c0,12.77,8.1,21.41,20.88,21.41,8.68,0,15.7-3.66,19.87-11.62l-11-5.37c-1.61,5.55-6.05,6.76-8.28,6.74-6.21,0-8.5-5.66-8.5-11.93,0-6.05,2.56-11.18,8.54-11.18,5.22,0,5.93,2.94,8.5,6.75l10.55-5.4C192.57,4.55,184.08-.11,175.92,0c-12.44,0-20.83,9.47-20.83,21.91Z"/><polygon class="cls-1" points="131.85 10.54 131.85 10.54 151.05 10.54 151.05 1.59 119 1.59 119 42.02 131.85 42.02 131.85 26.57 149.9 26.57 149.9 17.76 131.85 17.76 131.85 17.76 131.85 10.54 131.85 10.54"/><path class="cls-1" d="M106.15,4.48h7.07a1.64,1.64,0,0,1,.87.14v-3h-17V42.16h17V11.7h-8a1.87,1.87,0,0,1-2-1.95V6.41a1.92,1.92,0,0,1,2-1.93Z"/><polygon class="cls-1" points="74.08 3.06 71.5 3.06 71.5 10.8 69.84 10.8 69.84 3.06 67.26 3.06 67.26 1.59 74.08 1.59 74.08 3.06 74.08 3.06"/><polygon class="cls-1" points="82.93 1.59 82.93 10.8 81.08 10.8 81.08 6.57 77.21 6.57 77.21 10.8 75.37 10.8 75.37 1.59 77.21 1.59 77.21 5.09 81.08 5.09 81.08 1.59 82.93 1.59 82.93 1.59"/><polygon class="cls-1" points="87.16 3.06 87.16 5.28 91.59 5.28 91.59 6.75 87.16 6.75 87.16 9.33 92.32 9.33 92.32 10.8 85.51 10.8 85.51 1.59 91.95 1.59 91.95 3.06 87.16 3.06 87.16 3.06"/><polygon class="cls-1" points="0 12.09 1.66 12.09 1.66 21.31 0 21.31 0 12.09 0 12.09"/><polygon class="cls-1" points="9.77 12.09 11.43 12.09 11.43 21.31 9.95 21.31 5.9 14.86 6.08 21.31 4.42 21.31 4.42 12.09 5.9 12.09 9.95 18.54 9.77 12.09 9.77 12.09"/><path class="cls-1" d="M16.59,13.57a5.28,5.28,0,0,1,2,.18,3.15,3.15,0,0,1,1.48,2.95c0,2-.74,2.58-1.48,2.77-.37.18-.74.18-2.21.18h-.74V13.57ZM14,21.31H17a5.32,5.32,0,0,0,2.95-.55,4.47,4.47,0,0,0,2-4.06,4.59,4.59,0,0,0-1.84-3.87,4.19,4.19,0,0,0-2.77-.74H14v9.22Z"/><polygon class="cls-1" points="25.06 13.57 25.06 15.78 29.48 15.78 29.48 17.25 25.06 17.25 25.06 19.65 30.22 19.65 30.22 21.31 23.4 21.31 23.4 12.09 29.85 12.09 29.85 13.57 25.06 13.57 25.06 13.57"/><path class="cls-1" d="M35.2,13.57a2.75,2.75,0,0,1,1.66.37,1.63,1.63,0,0,1,.36,1.1,1.55,1.55,0,0,1-1.1,1.66H33.91V13.57Zm-3.14,7.74h1.85V18.18H35.2A5,5,0,0,0,36.86,18,2.77,2.77,0,0,0,39.07,15a3.07,3.07,0,0,0-2.21-2.95h-4.8v9.22Z"/><polygon class="cls-1" points="42.2 13.57 42.2 15.78 46.62 15.78 46.62 17.25 42.2 17.25 42.2 19.65 47.36 19.65 47.36 21.31 40.54 21.31 40.54 12.09 47.17 12.09 47.17 13.57 42.2 13.57 42.2 13.57"/><polygon class="cls-1" points="54.73 12.09 56.39 12.09 56.39 21.31 54.91 21.31 50.86 14.86 51.05 21.31 49.39 21.31 49.39 12.09 50.86 12.09 54.91 18.54 54.73 12.09 54.73 12.09"/><path class="cls-1" d="M61.55,13.57a5.34,5.34,0,0,1,2,.18,3,3,0,0,1,1.29,2.95c0,2-.56,2.58-1.29,2.77a6,6,0,0,1-2.22.18h-.73V13.57ZM59,21.31h3a5.35,5.35,0,0,0,3-.55c1.47-.93,1.84-2.4,1.84-4.06,0-1.1-.19-2.95-1.66-3.87a4.18,4.18,0,0,0-2.76-.74H59v9.22Z"/><polygon class="cls-1" points="70.03 13.57 70.03 15.78 74.45 15.78 74.45 17.25 70.03 17.25 70.03 19.65 75.19 19.65 75.19 21.31 68.37 21.31 68.37 12.09 74.82 12.09 74.82 13.57 70.03 13.57 70.03 13.57"/><polygon class="cls-1" points="82.56 12.09 84.22 12.09 84.22 21.31 82.74 21.31 78.69 14.86 78.69 21.31 77.03 21.31 77.03 12.09 78.69 12.09 82.74 18.54 82.56 12.09 82.56 12.09"/><polygon class="cls-1" points="92.32 13.57 89.74 13.57 89.74 21.31 88.08 21.31 88.08 13.57 85.51 13.57 85.51 12.09 92.32 12.09 92.32 13.57 92.32 13.57"/><polygon class="cls-1" points="66.16 26.28 70.03 26.28 70.03 27.76 66.16 27.76 66.16 31.63 64.5 31.63 64.5 22.41 70.58 22.41 70.58 24.07 66.16 24.07 66.16 26.28 66.16 26.28"/><polygon class="cls-1" points="72.05 22.41 73.9 22.41 73.9 31.63 72.05 31.63 72.05 22.41 72.05 22.41"/><polygon class="cls-1" points="78.32 30.15 82 30.15 82 31.63 76.48 31.63 76.48 22.41 78.32 22.41 78.32 30.15 78.32 30.15"/><polygon class="cls-1" points="91.59 22.41 91.59 31.63 89.93 31.63 90.11 24.07 88.08 31.63 86.43 31.63 84.58 24.07 84.77 31.63 82.93 31.63 82.93 22.41 85.51 22.41 87.35 29.42 89.01 22.41 91.59 22.41 91.59 22.41"/><path class="cls-1" d="M39.25,39.55A3.67,3.67,0,0,1,38.51,41a4.23,4.23,0,0,1-3.13,1.47c-2.58,0-4.42-1.84-4.42-5s2-4.79,4.42-4.79a3.52,3.52,0,0,1,3.69,2.77l-1.66.55a3.31,3.31,0,0,0-.37-.92,1.84,1.84,0,0,0-1.66-.92c-1.47,0-2.58,1.29-2.58,3.31s1.11,3.32,2.58,3.32a2.5,2.5,0,0,0,1.84-.92,3,3,0,0,0,.37-.92l1.66.55Z"/><polygon class="cls-1" points="47.91 32.92 47.91 42.13 46.25 42.13 46.25 37.89 42.2 37.89 42.2 42.13 40.54 42.13 40.54 32.92 42.2 32.92 42.2 36.42 46.25 36.42 46.25 32.92 47.91 32.92 47.91 32.92"/><path class="cls-1" d="M52,38.81l1.29-4.23,1.29,4.23Zm3.5,3.32h1.84l-3.13-9.21h-2L49.2,42.13h1.85l.36-1.84h3.51l.55,1.84Z"/><polygon class="cls-1" points="63.95 32.92 65.6 32.92 65.6 42.13 64.13 42.13 60.08 35.68 60.26 42.13 58.6 42.13 58.6 32.92 60.08 32.92 64.13 39.55 63.95 32.92 63.95 32.92"/><polygon class="cls-1" points="73.71 32.92 75.56 32.92 75.56 42.13 73.9 42.13 70.03 35.68 70.03 42.13 68.37 42.13 68.37 32.92 69.84 32.92 74.08 39.55 73.71 32.92 73.71 32.92"/><polygon class="cls-1" points="79.79 34.58 79.79 36.6 84.22 36.6 84.22 38.08 79.79 38.08 79.79 40.66 84.95 40.66 84.95 42.13 78.13 42.13 78.13 32.92 84.58 32.92 84.58 34.58 79.79 34.58 79.79 34.58"/><polygon class="cls-1" points="88.64 40.66 92.32 40.66 92.32 42.13 86.8 42.13 86.8 32.92 88.64 32.92 88.64 40.66 88.64 40.66"/></svg>