<svg id="Ebene_2" data-name="Ebene 2" xmlns="http://www.w3.org/2000/svg" viewBox="0 0 170.08 21.94"><defs><style>.cls-1{fill:#231f20;}</style></defs><title>195537-Lionsgate [Converted]</title><rect class="cls-1" x="18.49" y="1.08" width="4.8" height="20.11"/><polygon class="cls-1" points="4.8 16.93 4.8 1.08 0 1.08 0 21.19 15.57 21.19 15.57 16.93 4.8 16.93"/><path class="cls-1" d="M38,0A11,11,0,0,0,27,11h0A11,11,0,1,0,38,0Zm0,17.21A6.25,6.25,0,1,1,44.2,11,6.25,6.25,0,0,1,38,17.21Z"/><polygon class="cls-1" points="70.69 1.08 65.95 1.08 65.95 13.14 57.35 1.08 52.59 1.08 52.59 21.2 57.38 21.2 57.38 9.09 66.48 21.19 70.75 21.19 70.75 1.08 70.69 1.08"/><path class="cls-1" d="M84.37,9.12h0c-1.75-.56-4.5-1.09-4.48-3,0-1,1.15-1.44,2.79-1.44a14.42,14.42,0,0,1,6.81,1.89l.1.06V2.15h0A24.24,24.24,0,0,0,82.74.76c-.19,0-.38,0-.57,0C78.44.76,74.59,2,74.59,6.44c0,3.42,3.21,6,6,6.72,2.77,1,4.24,1.07,4.23,3,0,.89-.87,1.28-2.21,1.29A15.47,15.47,0,0,1,75.14,15l-.1-.06v4.44h0a18.76,18.76,0,0,0,7.19,2.12h.39c3.78,0,7.68-1.82,7.68-5.78C90.33,11.22,87.19,9.86,84.37,9.12Z"/><path class="cls-1" d="M114.21,9.89V9.83H103.43V14h5.92a6.26,6.26,0,1,1,0-6l0,.06,3.79-2.9,0,0a11,11,0,1,0-9.27,16.83c6.06,0,10.36-4.92,10.36-11C114.27,10.61,114.24,10.25,114.21,9.89Z"/><path class="cls-1" d="M127.57,1.08h-4.78L114.33,21h4.81l1.75-4.13h8.59L131.23,21H136ZM122.7,12.63l2.48-5.86,2.49,5.86Z"/><polygon class="cls-1" points="151.27 0.95 133.76 0.95 133.76 5.2 140.15 5.2 140.15 21.02 144.95 21.02 144.95 5.2 151.34 5.2 151.34 0.95 151.27 0.95"/><polygon class="cls-1" points="168.53 16.76 158.94 16.76 158.94 13.07 168.09 13.07 168.09 8.81 158.94 8.81 158.94 5.2 168.53 5.2 170.08 0.95 154.14 0.95 154.14 1.14 154.14 21.02 170.08 21.02 168.53 16.76"/></svg>