<svg id="Layer_1" data-name="Layer 1" xmlns="http://www.w3.org/2000/svg" viewBox="0 0 338.04 178.97"><defs><style>.cls-1{fill:#231f20;fill-rule:evenodd;}</style></defs><title>metro-goldwyn-mayer</title><path class="cls-1" d="M165,179a7.27,7.27,0,0,1-.82-1.84,9.8,9.8,0,0,1,1.44-.62,1.55,1.55,0,0,1,.2-1h2.26a4.06,4.06,0,0,0,.2,1.43h-2.46a6.1,6.1,0,0,0,.41,1.85,2.66,2.66,0,0,0-1.23.2Zm9-.2v-1.85a4.1,4.1,0,0,1,1.64-.2v1a4.43,4.43,0,0,0-1.64,1Zm-12.3-.82a2.66,2.66,0,0,1-.2-1.23,6.16,6.16,0,0,1,2.05-.21,2.84,2.84,0,0,0-.41,1.24,3.12,3.12,0,0,0-1.44.2Zm15.58,0c-.41-.62-.82-1-1-1.44a3,3,0,0,1,1.43-.41v-.81a9.43,9.43,0,0,1,2.26.2v1a1.53,1.53,0,0,0-1,.21,1.56,1.56,0,0,0-.2,1,3.12,3.12,0,0,0-1.44.2Zm-17.63-1.23a2.66,2.66,0,0,1-.2-1.23,6.46,6.46,0,0,1,2.05-.2v1a5.87,5.87,0,0,0-1.85.41Zm12.1,0v-1.64c1.23,0,2.25-.2,2.25,1.23a7.16,7.16,0,0,0-2.25.41Zm-15-1c-.41-.2-.61-.4-.82-.4,0-1.44,1.23-1.44,2.46-1.65a15.15,15.15,0,0,1,.21-3.07,2.91,2.91,0,0,1,1.43-.41c.82.82.62,2.87.82,4.1a24.71,24.71,0,0,0-4.1,1.43Zm6.77,0c-.82-.81-.82-1.22-2.26-1.64v-1.64H163a3,3,0,0,0,.41,1.23,6.49,6.49,0,0,1,2-.2c0,1.44.21,1.64-1.84,2.25Zm18.24-.4c-1-.41-2-.82-2.87-1.24,0-.82-.61-4.92,2.05-3.69a3.57,3.57,0,0,0,.41,1c.21-.82.41-1.44.62-2h2.25a3.32,3.32,0,0,1,.83-1.44h1.63a5.37,5.37,0,0,0,.41,1.44,11.41,11.41,0,0,1,1.65-2.67H190a16,16,0,0,0-.2,3.08c.82.82,1.84,1.64,1.84,2.87-1.43,0-2.46-1.23-3.89-1.23a16.55,16.55,0,0,0,1,1.64,6.63,6.63,0,0,1-3.9-1,23.42,23.42,0,0,0,1,2.25c-1.64,0-4.1-1-4.71-2.46a1.54,1.54,0,0,0-.41,1,4,4,0,0,1,2,2.06,1.57,1.57,0,0,0-1,.41Zm-7.38-.21a2,2,0,0,1-1-2.46,2.54,2.54,0,0,1,1.23-.21,2.76,2.76,0,0,0,.82.62,11.28,11.28,0,0,1,2.46-.82c-.21,2.46-1.64,2-3.49,2.87Zm-10.25-.41v-.41h.41v.41Zm-11.07-.2v-1.65c.82-.2,1.85-.41,2.87-.61a16.62,16.62,0,0,1-.41-2.87,7.86,7.86,0,0,1,2,.2,23,23,0,0,0,.41,3.69l-4.92,1.24Zm9-.83v-.41h.21v.41Zm-11.68-.41a5,5,0,0,1-.41-1.43,12,12,0,0,0-2.87,1,2.7,2.7,0,0,0-.62-.81c1-.62,2.26-1.24,3.49-1.85-.41-.82-1.64-2-1.23-3.08h1.64c1.23,1.23,1.23,3.28,2.66,3.9-.41-1.23-1.23-1.85-.61-3.08h1.23c.41,1,.82,2.26,1.23,3.49a7.42,7.42,0,0,1-4.51,1.84Zm9.22-.2c-.2-.41-1-1.85,0-1.85V173Zm-16.81-.41a2.9,2.9,0,0,0-.61-.82,34.83,34.83,0,0,1,3.07-2.67c-.61-1.23-1-1.43-1-3.07,3.07,0,3.28,1,4.3,3.89-1.23,1.85-3.89,2.26-5.74,2.67Zm52.28,0c-1.64-1-3.28-1.85-4.72-2.67.41-2.25,2-4.92,4.72-4.1a17.14,17.14,0,0,0-1,3.49,23.9,23.9,0,0,1,2.45,2.26,2.18,2.18,0,0,0,.21,1Zm4.3-.61c-1.43-1-2.87-1.85-4.1-2.67,0-2.05,1.23-2.67,2.26-4.1,4.51-1.44,2.26,1.43,1.23,3.49.82.81,1.84,1.84,1.84,3.07a2.58,2.58,0,0,0-1.23.21Zm-65-.21c-.41-.2-.62-.41-.82-.41v-1.23a13.45,13.45,0,0,1,2.66-2l-.82-.82a9.36,9.36,0,0,1-5.94,4.1,2.54,2.54,0,0,1-.21-1.23,19,19,0,0,1,2.87-2.87c-.61-.82-2.05-2.87-1.64-3.69,2.05,0,2.67.82,3.9,2.46a3.77,3.77,0,0,1,.41-1.64c2.25,0,3.69,2.87,4.3,4.71a34.18,34.18,0,0,0-4.71,2.67Zm4.1,0a5.11,5.11,0,0,1-.41-1.44,16.6,16.6,0,0,1,2.46-1.63l-1.23-1.85a5.55,5.55,0,0,1-.21-1.85,6.49,6.49,0,0,1,2-.2c1,.82,3.49,3.28,2.87,4.71-1.84.62-3.69,1.44-5.53,2.26Zm65.6,0c-1.64-1.44-3.28-2.26-4.1-4.1,1.23-1.64,1.84-3.49,4.3-3.49v2.67c2-2.67,2-2.26,4.72-2.87,0,1.43-1,2.26-1.85,3.48a43.29,43.29,0,0,0,2.67,3.69,6.19,6.19,0,0,0-2,.21c-1.64-1.23-3.08-2.46-4.51-3.69,0,1.64,1.85,2.25,1.85,3.9a1.56,1.56,0,0,0-1,.2Zm-47.56-.2a6.24,6.24,0,0,1-.41-1.65c.61,0,.61,1,.41,1.65Zm56.17-.21c-1.43-1.44-2.87-2.66-4.3-3.9,0-1.64,1.84-2.87,2.87-3.89a5.49,5.49,0,0,1,1.84-.21,11,11,0,0,1,.62,1.44,11.37,11.37,0,0,1,4.1-2.26,5.07,5.07,0,0,1,.61,1c-.82,1-1.64,2.25-2.46,3.48,1,.82,5.74,3.9,1.44,3.9-1.85-1.23-3.69-2.46-5.33-3.69.4-.62.81-1.23,1.22-1.85a8,8,0,0,0-2,1.64c1.43,1,3.07,2.26,3.07,4.1a3.92,3.92,0,0,0-1.64.21ZM125.24,171v-1.64a14.49,14.49,0,0,1,2.87-2.05c-.82-1-1.64-2-2.25-2.87,0-3.49,6.76.82,4.3,4.1L125.24,171Zm61.5,0v-.82H187V171Zm-65.81-.62c-.61,0-.61-.82-.61-1.23a15.41,15.41,0,0,1,2.87-2.25c-1-1-3.07-2.87-2-4.31,2.46,0,4.1,2.67,5.54,4.51a12.38,12.38,0,0,1-5.75,3.28Zm67.66-.82a6.1,6.1,0,0,1,.41-1.84,2.66,2.66,0,0,0,.2,1.23c-.2.2-.4.41-.61.61Zm-74-.2a12.06,12.06,0,0,0-1.44-.82v-1a26.08,26.08,0,0,1,4.11-1.64c-.83-1-2.06-2.46-2.06-3.69,2.47-2.46,5.13,3.08,6,4.31a15.76,15.76,0,0,1-6.56,2.87Zm36.08,0c-.41-.61-.82-1-1-1.44h.61a5.37,5.37,0,0,0,.41,1.44Zm41.62-.21c0-1,.2-2.66,1.43-2.66a1.53,1.53,0,0,0,.21.82,12.92,12.92,0,0,0-1.64,1.84Zm30.34,0c-1.64-.82-3.28-1.43-4.71-2a1.5,1.5,0,0,1-.21-.81c.82-1.44,3.28-6,5.74-4.72a4.64,4.64,0,0,1-1.44,3.69v.82a22.8,22.8,0,0,1,2.67,1v1.65a6.22,6.22,0,0,0-2,.4Zm-76.06-.2a8.11,8.11,0,0,1-1-1.85h.61c.21.41.62,1,1,1.65a.78.78,0,0,0-.62.2Zm50.23-.82c.61-1.23,1.23-2.26,2.66-2.26a14.46,14.46,0,0,0-2.66,2.26Zm-54.94-.21a8.76,8.76,0,0,1-1.44-1.23v-.82c1.44.21,1.64.82,2.05,1.85a.75.75,0,0,0-.61.2Zm60.06-.41c.62-2.25.62-1.64,2.06-2.25a10.78,10.78,0,0,0-2.06,2.25Zm3.49,0A16.69,16.69,0,0,1,207,165a.73.73,0,0,1,.61.21,4,4,0,0,1-2.25,2.25Zm-95.74-.2a2.76,2.76,0,0,1-.82-.62,2.89,2.89,0,0,1,.41-1.23,15.58,15.58,0,0,1,3.28-.82l-1.23-1.84a2.85,2.85,0,0,0-.41,1.23c-1.64.2-3.89.82-5.33.2v-.82c.61-.61,1.84-.61,2.87-.61-.62-1-1-1.85-1.43-2.67v1.64c-1.44,0-3.08.62-4.31,0v-.82l1.84-.61a2.29,2.29,0,0,1-.2-1c-1.44-.2-2.67-.41-3.9-.61a11.66,11.66,0,0,1,1.64-1.23c-2-.62-3.07-1.64-3.07-3.9,2,0,2.26.82,3.48,2a5.05,5.05,0,0,1,1.65.21,6.08,6.08,0,0,0,.4,1.84,5.84,5.84,0,0,1,1.85-.2,5,5,0,0,0,.41,1.43h2.46a8.76,8.76,0,0,1,1.23,1.44c2.66-2.67,4.3,2.87,4.92,4.71a13.92,13.92,0,0,1-5.74,2.26Zm117.68,0L223,166.06c0-2.46,1.84-4.1,3.49-5.74a13,13,0,0,1,1.64.82,7.53,7.53,0,0,1,1-2.26,4.1,4.1,0,0,1,1.64-.2,3.65,3.65,0,0,0,.41,1,21.71,21.71,0,0,1,1.23-2.25,3.9,3.9,0,0,1,1.64-.21,4.32,4.32,0,0,1,.62-1h1.64a4.63,4.63,0,0,1,2.46-2.05,5.24,5.24,0,0,0,.4,1.43c-.61,1.23-1.63,1.44-2.86,1.64v.82a6.6,6.6,0,0,1,1.64.41v1a29.93,29.93,0,0,0-4.31.41,1,1,0,0,0-.41.82,5.87,5.87,0,0,1,1.85.41,2.27,2.27,0,0,0,.2,1c-1.23,0-3.69,0-4.51-.82-1.23,1.23.41,1.64,1.64,2.26a1.55,1.55,0,0,0-.2,1,11.12,11.12,0,0,1-5.13-1.23,2.11,2.11,0,0,0-.82,1c1.43.61,2.46.82,2.46,2.46a2.87,2.87,0,0,0-1.43.41Zm-90.82-.21a7.08,7.08,0,0,1-.82-1.84c.61.61,1.43,1.23.82,1.84Zm-3.28-.2a15,15,0,0,1-1.44-2.46,15,15,0,0,0,1.44,2.46Zm80.57-.21c.61-1,1.64-3.48,3.28-2.66-.42,1.23-2.46,2.26-3.28,2.66Zm-89.39-.2a4,4,0,0,1-2.25-2.87c.41.2,3.07,2.05,2.25,2.87Zm4.51,0a22.41,22.41,0,0,0-1.84-2.26h.82c.41.62,1.64,1.64,1,2.26Zm-9.63-.41c-1-.82-3.08-2.26-3.08-3.49h1c.81.82,2.66,2.87,2,3.49Zm91.64,0a4,4,0,0,1,.82-1.64h.61a5.52,5.52,0,0,0-1.43,1.64Zm9-.21c0-1.43,1.23-2.66,2-3.69h.83c0,1.23-1.85,2.87-2.87,3.69Zm-106-1.64a4.58,4.58,0,0,1-2.46-3.89c1.43,0,2.25,2.87,2.46,3.89Zm111.32,0a11.72,11.72,0,0,1,1-2.87h.82c-.61.82-1.23,1.85-1.84,2.87ZM147,164a8.11,8.11,0,0,1-1-1.85c1.23-.41,2.66-.82,4.1-1.23-.21-1.23-.41-2.46-.62-3.69l1.85-.61c1.23,2.05,1.43,3.9,1.64,6.35a52.6,52.6,0,0,0-5.95,1Zm43.26,0c-1.43-.41-2.87-.82-4.1-1.23.2-1.64.41-8,4.1-5.54a22,22,0,0,0-1,3.9c1.23.41,2.46.82,3.9,1.43,0,1.44-1.84,1.23-2.87,1.44Zm-80.78-1.85c-.61-1-1-1.84-1.43-2.66h.82c.2.82.41,1.64.61,2.66Zm33.22-.2a13.71,13.71,0,0,1-1.64-.62v-.81a29.49,29.49,0,0,1,4.51-2.06c-.62-1.64-1.23-3.28-1.85-4.71.82-.82,2.05,0,2.87.41a6.16,6.16,0,0,1,.21-2,2.54,2.54,0,0,1,1.23-.21c0-2.87-2.26-.41-2.87.21a5,5,0,0,0-1.64-.21v-1.43c1-.82,2.87-3.28,4.3-3.28,0,1.23,2.46,2.66,3.28,3.69a5,5,0,0,0,.21,1.64c-.62.61-1.85.82-2.26,0a6.46,6.46,0,0,0-.2,2.05,6.16,6.16,0,0,0-2,.21c.61,1.63,1.23,3.48,2,5.32L142.67,162Zm53.09-.21c-1.63-.61-3.07-1.22-4.5-1.84.4-2.87.61-7.38,4.5-6.15,0,1.64-1,3.48-1.43,4.92,1.23.2,4.71.82,3.28,2.87a5.87,5.87,0,0,0-1.85.2Zm-44.07-.2a38.75,38.75,0,0,1-1-3.9c1,1,.82,2.46,1,3.9Zm35.67,0c.2-1.23.41-2.46.61-3.49a2.68,2.68,0,0,1,1.23-.2l-1.84,3.69Zm-81.6-1.23c0-.82-.61-.62,0-1.85v1.85Zm30.76-.21a11.66,11.66,0,0,0-1.23-1.64,38.27,38.27,0,0,1,5.12-2.25l-1.84-4.92a3,3,0,0,1,1.43-.21c1.44.82,4.1,4.31,3.28,6.15-2.25,1-4.3,2.46-6.76,2.87Zm65-.2c-1.84-.82-3.69-1.64-5.33-2.46,0-3.08,1.44-6.56,4.92-6.56,0,1.23-1.22,4.71-2.05,5.12,1.24.82,2.67,1.64,4.11,2.46a1.57,1.57,0,0,0,.2.82l-1.85.62Zm-70.52-1c-2-2,2.87-3.28,3.69-4.92-1.23-.61-3.28-2.87-3.28-4.51h3.08c1.64,1.85,3.28,3.9,3.89,6.15-2.05.62-3.28,2.05-5.12,3.08a7.93,7.93,0,0,0-2.26.2Zm61.3,0c.61-2.46.41-3.48,2.46-4.51-.2,1.64-1.23,3.9-2.46,4.51Zm15.17,0c-2.25-1-4.3-2-6.36-3.07,0-3.28,2.67-6.77,6.15-6.77.83,1.64-1.84,4.31-2.46,5.75,1.24,1,2.67,2,4.11,3.07a3.6,3.6,0,0,0-1.44,1Zm-60.48-.2c-.82-1.44-1.64-2.87-2.46-4.1a1.53,1.53,0,0,1,1-.21c.41,1.44,1.43,2.87,1.43,4.31Zm-21.52-.41a6.18,6.18,0,0,1-.41-1.64,9,9,0,0,0,3.48-3.28c-1-1.44-2.05-2.87-2.87-4.1,4.1,0,4.72,1.23,7.18,4.71a58.29,58.29,0,0,0-5.74,4.1,3.9,3.9,0,0,0-1.64.21Zm-22.15-.21v-1.23s.83,1.23,0,1.23Zm109.07,0c-1.85-1.23-3.69-2.46-5.33-3.69.41-2.46,2.05-4.1,4.1-5.53a9.75,9.75,0,0,1,2.46-.21c-.21.62-.41,1.23-.62,2.05-.81,1.23-2.25,2-2.25,3.69,1.23.82,2.46,1.64,3.9,2.46-.21.21-.21.41-.21.82a6.16,6.16,0,0,0-2,.41Zm5.13-.61c-1.85-.82-3.28-3.28-4.93-3.69,0-1.44,4.31-6.36,6.15-4.51,0,1.84-2.66,2.66-2.66,4.51l3.07,2.46a1.55,1.55,0,0,0-.2,1,2.94,2.94,0,0,0-1.43.21Zm-97-.21-.62-1.23,3.08-2.46c-.82-1.84-2.67-2.25-2.67-4.51,2.67-1.64,5.74,2.87,7,4.31a25.73,25.73,0,0,0-3.48,3.28c-1.23.2-2.26.41-3.28.61Zm-19.48-.82a3.09,3.09,0,0,1-1.23-2c1,0,1.23,1.23,1.23,2Zm14.55,0c-2.87-1.43.21-2.66,1.44-3.48a22.43,22.43,0,0,0-1.85-2.26,9.25,9.25,0,0,1-.41-2.05,10.26,10.26,0,0,1,2.47-.2,17.24,17.24,0,0,1,3.89,4.92l-5.54,3.07Zm107.43,0c-1.64-1.23-3.28-2.46-4.72-3.48,1-1.85,3.08-4.92,5.74-4.1,0,1.64-1.63,2.87-2.66,3.89,0,1.85,3.9.62,3.9,3.28a7.59,7.59,0,0,0-2.26.41ZM141.64,156c-.82-1.43-1.64-2.66-2.25-3.89h1a9.7,9.7,0,0,1,1.85,3.89Zm56.17-.2a22.49,22.49,0,0,1,1.64-3.9.74.74,0,0,1,.62.21,36.61,36.61,0,0,0-2.26,3.69ZM190,155.6a2.46,2.46,0,0,1-.2-3.07,5.92,5.92,0,0,0-2,.41,2.85,2.85,0,0,1-.41-1.23c1-1.44,2-2.67,3.07-3.9,1.85.21,4.51,2.05,3.9,4.31l-3.69-1.23a4.19,4.19,0,0,0-.82,1.23,5.52,5.52,0,0,1,1.84-.21c.21,2.05-.2,2.67-1.64,3.69Zm-77.7-1c-.41-.21-.61-.41-.81-.41.2-.62.4-1.23.61-1.85a18,18,0,0,1-2.05-1.84,2.91,2.91,0,0,1,.41-1.44,6.89,6.89,0,0,1,5.74,3.9,21.74,21.74,0,0,0-3.9,1.64Zm114.2,0c-1.23-.62-2.26-1.23-3.28-1.64,0-2.46,4.71-5.74,4.71-2.67l-1.84,1.85,2.46.61c0,1.23-1,1.64-2,1.85Zm-23.78-.21c.41-1.64,1.84-4.51,3.89-4.51-1.23,1.44-2.26,3.49-3.89,4.51Zm-66.63-.2c-1.23-1.23-2.26-2.46-3.28-3.69,2.25.61,3.28,1,3.28,3.69Zm11.68-.21v-.61H148V154Zm60.89-.41c.41-1.64,1.84-3.89,3.69-3.89-.2,1.23-2.66,3.48-3.69,3.89Zm-78.31-.2c-.82-.41-3.49-2.26-3.49-3.49,1.44,0,4.51,2.46,3.49,3.49Zm-5.74-.21-3.28-3.28h1.43c.82,1,1.64,2,2.67,3.28Zm-15.79-.2c-.82-.62-1.64-1-2.26-1.44,0-.41,0-.82.21-1,1,.2,2.25.41,3.48.61v1.44a2.91,2.91,0,0,0-1.43.41Zm105.79,0c.82-1.85,1.43-2.46,2.87-3.08a38.46,38.46,0,0,0-2.87,3.08Zm-95.33-.41c-1.44-.82-3.08-1.85-3.7-3.28a1.53,1.53,0,0,1,1-.21c.41.41,3.28,2.87,2.67,3.49Zm109.06-.21a3.65,3.65,0,0,1-.41-1,31.14,31.14,0,0,1,4.31-.82c-.62,1.43-2.46,1.64-3.9,1.84Zm-7.79-.2v-.82c.41-.41,1.64-2.26,2.26-1.64a24.06,24.06,0,0,0-2.26,2.46Zm-107.22-.21-1.84-1.23v-.82h.81a13.08,13.08,0,0,0,1.65,1.85.77.77,0,0,0-.62.2Zm80-.61c-.61-.62-1.64-1-1.64-2.05,1,0,1.85,1.43,2.26,2.05Zm-43.05-2.05c-1.43-.62-1.64-2.05-2.25-3.28a24.4,24.4,0,0,0-4.1,1.43c-.21-.41-.41-.61-.41-.82,1-2.05,3.07-2.66,5.12-3.48,1.23,1.84,2.67,3.28,2.67,5.53a4.64,4.64,0,0,0-1,.62Zm37.52-.21c-1.85-1.84.61-3.89,1.84-5.53,2.46,0,5.33,2.05,5.33,4.51-1.64,0-2.87-1.23-4.3-1.85a5.58,5.58,0,0,1-2.87,2.87Zm5.94-2c-.82-.61-1.43-1-2.05-1.43a.75.75,0,0,1,.21-.62l1.84,1.23V147Zm-48.79-.2V146a23,23,0,0,1,2.26-1.23,10.76,10.76,0,0,0-2.26,2Zm6.36-1c-1.23-.82-1.44-2.25-1.85-3.48-2.05,0-5.33,2.46-5.33-.62,2.46-1.84,3.49-1.64,6.56-2a9.79,9.79,0,0,1,1.85,5.33,4.39,4.39,0,0,0-1.23.82Zm35.46-.82c-.2-.2-.41-.41-.41-.61.41-1.85.82-3.49,1.23-5.13,2.05.41,5.13.82,6.77,2.46,0,3.69-3.9.21-4.92.21a5.74,5.74,0,0,1-2.67,3.07Zm-41.41-2.25c0-1.85,2-1.85,3.49-2.05a19.39,19.39,0,0,0-3.49,2.05Zm47.15-.41c-3.28-1-1.84-2.05.62-.62l-.62.62Zm-39.56-.41c-1.23-.62-1.64-2.05-1.85-3.49l-5.53.62a2.54,2.54,0,0,1-.21-1.23c2.26-1.44,5.13-1.85,7.79-2.26a52.88,52.88,0,0,0,.82,5.54,2,2,0,0,0-1,.82Zm32.19-1a38.57,38.57,0,0,1-.21-4.92c2.87.21,5.53,0,7.58,2.05,0,2.87-4.1.21-5.53.21a7.16,7.16,0,0,0-.41,2.25,3,3,0,0,0-1.43.41Zm-38.55-2.25a.65.65,0,0,1-.2-.41c1-1,3.07-1,4.51-1.23,0,.82-3.49,1.64-4.31,1.64Zm43.87,0a10.8,10.8,0,0,0-1.43-.82.78.78,0,0,1,.2-.62c.62.21,1.23.41,2.06.62,0,.2.2.41.4.82Zm-35.67-.41c-.82-.82-.61-2.26-.82-3.28a37,37,0,0,0-4.71-.21v-1.64c2.25-.61,4.71-1,7.17-1.43v5.74a4.09,4.09,0,0,0-1.64.82Zm27.88-.41c-1-1-.61-3.49-.61-4.92h-.82a7.16,7.16,0,0,0-.41,2.25h-1.43a45.52,45.52,0,0,1-1-4.71c-1,0-.62,1.84-.62,2.46a2.66,2.66,0,0,0-1.23.2,10.2,10.2,0,0,0-.61-1.43,2.76,2.76,0,0,0-.62.82H174c-.82-1.44-1.64-2.67-2.25-3.9a16.72,16.72,0,0,0,.82,3.08,2.85,2.85,0,0,0-1.23.41,20.74,20.74,0,0,1-1.44-3.08v2.46a3,3,0,0,0-1.43.21,4.64,4.64,0,0,0-.62-1,2.92,2.92,0,0,1-2.46,1.23c-.2-.2-.41-.41-.41-.61a15,15,0,0,1,1.44-2.46,25.26,25.26,0,0,1-2.26-2.46,4.64,4.64,0,0,1,.62-1c2.25,0,3.07,2,3.48,4.1v-4.1a3.12,3.12,0,0,1,1.44-.2c.2.82.41,1.64.61,2.46,1-1.64,1.23-1.85,2.87-2.26a7.5,7.5,0,0,0,.21,2c1.23-.61,2.25-1.43,3.69-1.43,0,.2.2.41.41.82a3.27,3.27,0,0,0-.82,1.43h5.54c.61,1.23-.21,1.84-.83,2.46a33.89,33.89,0,0,1,4.51.21,2.54,2.54,0,0,0,.21,1.23,4.19,4.19,0,0,0-1.23.82,11.35,11.35,0,0,1,5.33,1.23c-.41,2.25-4.31,1-5.95,1-.2.82-.41,1.64-.61,2.46a1.53,1.53,0,0,0-1,.21Zm-24.39-2.67c-.21-.2-.41-.41-.41-.61a24.64,24.64,0,0,1,.41-4.1,4.53,4.53,0,0,1-3.49-1.44c2.05-2,4.92-1,7.18.82-1.23,1.85-1.85,4.51-3.69,5.33Zm28.9-.41a12.06,12.06,0,0,0-1.43-.82,16.62,16.62,0,0,1,2.87.41,3,3,0,0,0-1.44.41Zm-36.28-.2-.62-.62,3.69-.61c0,.61-2.66,1.23-3.07,1.23Zm11.48-1.64c-1.23-1.23.2-2.46.82-3.28-1.85-.82-2.67-1.23-2.67-3.08h2.87a19,19,0,0,0,2,1.85,41.93,41.93,0,0,0-2,4.3c-.41,0-.82,0-1,.21Zm19.89-1c0-.61,2.45-.82,2.45,0Zm-6.57-.2c-.41-1-.82-1.85-1.23-2.67h.62c.2.82.41,1.64.61,2.67Zm-17.83-1.85a13,13,0,0,0-1.64-.82c0-1.43,2.46-.2,3.07,0,0,.62-1,.62-1.43.82Zm21.73,0a7.49,7.49,0,0,0-1.85-.82h3.69c0,.62-1.43.82-1.84.82Zm-16.81-1.43a11.47,11.47,0,0,0-1.44-.82,8.71,8.71,0,0,1,2.05.41c-.2,0-.41.2-.61.41Zm3.89-.41a11.1,11.1,0,0,0-1.23-1.64h.82a6.6,6.6,0,0,0,.41,1.64Zm8.2,0,1.23-1.23a.73.73,0,0,0,.21.61,9.8,9.8,0,0,0-1.44.62Z" transform="translate(0 0)"/><path class="cls-1" d="M168.91,170.36c-4.92-3.48-11.48-7.38-12.71-13.73a27.52,27.52,0,0,1,1.43-8.2c-1.23-.82-1.84-3.28-1.43-4.72.82,0,2.05-.41,2.66.21a4.1,4.1,0,0,0-1.64.2c0,5.13,6.77,4.31,9.23,1.85-1-.21-2-.41-2.87-.62-.21-.41-.41-.61-.41-.82a7.82,7.82,0,0,1,2.25-.2c-2-.62-4.1-1.23-5.94-1.64-3.9-1.23-1.44-4.51,1-5.74,5.95-1.24,16-3.28,20.91,1.64a4.37,4.37,0,0,1-1.63,3.89l-5.54,1.85.61.61c-2,.41-2.46,1-3.69,2.26-2.66,0,.62-3.9,1.44-4.31a2.54,2.54,0,0,1-.21-1.23c1.23-.2,7.59-.2,7.18-3.07-3.49-3.49-16.61-2.46-20.09.41-.21.2-.21.61-.21,1l6.77,1.85c2.87,1.84,3.07,2.46,2.46,6.15-.82,1.23-2.26,2-2.26,3.69,2,.41,5.33.82,7.18-.41,0-1.44-1.64-2.67-1.64-3.69a1,1,0,0,1,.82-.41,16.06,16.06,0,0,0,7,0,18.06,18.06,0,0,1,2.05-1.85v-1.43a4.08,4.08,0,0,0-1.64.2c1-.41,2.05-1.84,3.48-.41a42.07,42.07,0,0,0-2.05,4.31c1.23,4.3,1.64,8.81-.41,12.91-1.43,1.44-2.87,3.08-4.3,4.72-2,1.43-4.1,2.87-6.15,4.51a4.08,4.08,0,0,0-1.64.2Zm.61-1.43c-3.07-2.46-13.94-9.23-7.79-13.33.62,0,3.9-1,3.49-1.43-1.64.2-3.08.41-4.51.62v-1c-.82.2-1.64.41-2.26.61,0-4.71,2.05-5.53,7-5.53a22.91,22.91,0,0,0-1.64,3.07c2.46,2.46,7.18,1.64,10.25,1.23.82-1.64,1.23-2.46,0-4.3a51.29,51.29,0,0,1,5.54.2c.41,1,1.64,3.28,1.23,4.1h-.62v3.08h-1v3.07c-1.64,3.49-6.36,8-9.64,9.64Zm-.2-2.26c-2.87-2.46-7-4.92-7.38-8.81,2.87-2.87,4.51-1.64,8-.21a12.82,12.82,0,0,1,2.87-1.43c3.69,0,4.72.82,3.49,4.51-2,2.05-4.51,4.71-7,5.94Zm0-10c-.41-.62-.82-1.23-1-1.64a50.36,50.36,0,0,1,5.54-.82c0,.82-3.69,2.25-4.51,2.46Zm7.38-9.23a22.37,22.37,0,0,0-2.67-1,48.65,48.65,0,0,1,5.75-1,.78.78,0,0,0,.2.62,16,16,0,0,0-3.28,1.43Zm-16-.2c-.82-.62-1.64-1.23-2.26-1.64a49.08,49.08,0,0,1,5.33.41,5.2,5.2,0,0,1-3.07,1.23Z" transform="translate(0 0)"/><path class="cls-1" d="M54.1,162c-5.12-1.23-6.76-6.36-9.22-10.46a2.66,2.66,0,0,0-1.23-.2c-11.89,4.71-31.37,10.45-41.83,0C.59,145.76-.43,139.82.18,134.08c2.46-4.11,5.74-4.72,10.25-4.72,7.18,2.67,5.95,4.31,6.36,11.69,8.61,0,18-3.9,25.42-8a165.89,165.89,0,0,1,14.56-12.3c9.63-4.71,33.62-18.45,44.89-11.07,1.64,3.49,3.49,7,5.34,10.46C107,126.7,97,130,92,132a.73.73,0,0,0-.21.61,22.26,22.26,0,0,0,2.05,2.46c6.15-3.07,12.51-6.15,18.86-9.22-2.46-4.72-4.92-9.23-7.17-13.74-1-3.48-1.85-6.76-2.67-10q-.3-8.31-.61-16.61c1.64-16.4,11.89-37.72,29.11-42.64,3.08,0,3.49,1,5.54,3.07,5.12-.61,2-3.89,2.87-7.38,5.53-5.53,14.76-5.74,21.93-7.17,12.71-.21,26.86,0,37.31,7.79a8.83,8.83,0,0,1-.82,4.51c2.67,2.66,3.69.82,6.77-.62,8.2,0,15,9.64,19.68,15.17,2.87,4.72,6,10,7.79,15.38.82,3.69,1.64,7.38,2.67,11.28,0,3.48,0,7.17.2,10.86-1.64,10.05-3.89,20.71-9.63,29.52v1c6.15,2.87,12.3,5.74,18.45,8.81.82,0,1.84-2,2-2.87-5.33-2-15.17-5.12-15.17-12.09,1.84-3.9,3.48-8.41,6.56-11.48,15.78-3.49,34.85,6.35,47.76,14.35,3.49,2.25,6.56,5.94,9.64,9,8,4.3,17,8.2,26.45,8.61,0-2.87,0-5.54.2-8.2,4.72-5.54,13.53-5.13,16.4,2.05l-1.23,14.76c-4.92,7.38-14.55,7.38-23,7a131.35,131.35,0,0,1-19.48-5.33,2.89,2.89,0,0,0-1.23.41c-2.45,5.12-4.3,9.84-10.66,10.25-1.84-.62-3.68-1-5.33-1.44-4.1-2.66-4.1-5.32-2.46-9.63a6.16,6.16,0,0,1,.21-2c-6.56-1.64-12.1-2.87-19.07-2.46l-6.76,1.84a13,13,0,0,0-1.64,2.87c-8.61,2-15.79-2.25-23-6.35-3.49-1.44-8.62-4.92-12.71-3.9-4.11,3.28-9,7.18-14.56,6.36-.62-2-1.23-4.1-1.85-6.15-.61-1.44-3.07-7.38-4.71-8.2,0-5.74,9.64-8.41,13.94-9.64,7.38-6.35,10.87-17,12.51-26.24-.21-3.49-.21-7-.21-10.25-1-3.28-1.84-6.56-2.66-9.64C212,73,209.91,69.5,207.86,66c-3.28-3.69-7.38-8-11.89-10.25a6.24,6.24,0,0,0-1.64,1.64c-2.05,0-4.51-.41-4.51-2.87a11,11,0,0,1,1.44-1.84c-3.08-3.08-15.18-6.15-19.07-5.33.82,1.84,1.84,3.69,2.87,5.53.82-.2,1.84-.41,2.87-.61l6.15,3.07a11.07,11.07,0,0,0,1.44,1.85,3,3,0,0,1,.4-1.44c2.46.21,2.26,1,3.9,2.26a4.32,4.32,0,0,1,1-.62c1.23,1.23,2.46,2.46,3.9,3.69a41.66,41.66,0,0,1,4.1,1c0,1.23-1.23,2.25-1.84,3.48a3,3,0,0,0-.21,1.44c1.84,0,2.66,2,3.08,3.69a1.52,1.52,0,0,0-1,.41c.61,1.43,1.23,3.07,1.84,4.71,1.85.21,3.9.62,5.95,1,4.72,3.49,6.15,9.63,2.05,14.35-1.85.82-1.64,2.87-2.05,4.71a20.07,20.07,0,0,0-1.85,2c.62,0,1.44,1.65,1.85,2.26a1.57,1.57,0,0,0-1,.41,3.92,3.92,0,0,0-.21,1.64c1.64,1.64,1.64,2.87,1.23,5.33-2.46,2.46-1,6.77-.82,9.84-1.44,0-1,3.69-.61,4.72h-.83c-.4-1.44-2.25-5.33-1-6.57a4.2,4.2,0,0,0,1,.62c0-1.23-1.22-2-1.22-2.87h1a1.59,1.59,0,0,1-.2-.82,1.55,1.55,0,0,0-.82-.21c0-1.43.82-3.48-.41-4.71a17.69,17.69,0,0,0-1,3.08,38.65,38.65,0,0,1-.21-4.92h.83c.61,1.22,1.84,1.43,2.87,2a5,5,0,0,1-.21-1.64h.82c-1.44-1.44-1.23-1.44-1.64-3.49-.2-.41-.41-.82-.62-1.23.21-.21.42-.21.82-.21v-.81a3.14,3.14,0,0,1-1.22-2.06h1.22c-1.22-1-2.25-1.84-1.63-3.69.2-.2.41-.41.61-.41-1-.2-2-1-2.67-.4-1-.21-1.64-1.44-2.46-.62a7.27,7.27,0,0,0,.82,1.84,2.27,2.27,0,0,0-1-.2,6.16,6.16,0,0,0-.21,2h-1a9.75,9.75,0,0,0-.21,2.46c.21-.2.42-.2.82-.2a16.75,16.75,0,0,0,.41,2.87,6.1,6.1,0,0,1,.41-1.85h.62a9.22,9.22,0,0,1,.41,4.72c-2.05,0-3.28-3.49-3.69-4.93-.62-1-1.23-1.84-1.64-2.66.41.2.82.61,1.43,1,.21-3.07.62-5.94,1-8.81a15,15,0,0,1,.82-3.28c-.82-2.26.61-4.51,2.05-5.94a16,16,0,0,0,1.43,2.45c1.23.41,2.67.82,4.1,1.23.42.62-.2,2.26.83,2.26a5.87,5.87,0,0,1,.41-1.85.74.74,0,0,1,.61.21,10.36,10.36,0,0,0-.82,2.66c.21.62.41,1.23.61,2a1.54,1.54,0,0,0-.81-.2,1.59,1.59,0,0,0,.2.82,6.16,6.16,0,0,0-2.05.41c0-.82-2.26-.41-2.67-.41a4.64,4.64,0,0,1,.62-1,2.76,2.76,0,0,1-.82-.61v-3.9a3.59,3.59,0,0,0-2.46-1.23v4.31c.61,0,.2.82.61,1.64-.41,0-.61,0-.82.2v2.26l1.85.61a4.3,4.3,0,0,1,.61,1v-.82c2.47,0,4.52.2,6.56-1.84,1.65,0,2.87-3.08,3.28-4.31,0-4.1-1.63-7-5.12-8.61-2.46-.21-4.72-.41-7-.41-.21-1.23-.41-2.46-.62-3.69a7.46,7.46,0,0,0-2.05-.21,8.33,8.33,0,0,1,1.85-1,5.58,5.58,0,0,1-.21-1.85,1.09,1.09,0,0,1,.82-.41,4.06,4.06,0,0,0-1.43-.2c0-1,.21-1.23,1-1.64h-2.66a16.72,16.72,0,0,1,.82-3.08,3.57,3.57,0,0,0-1-.41c.62-1.43,1.44-1.23,2.67-1.64-.82-.2-1.64-.41-2.26-.61a2,2,0,0,0-1,.82c-.2-.41-.41-.62-.41-.82h-.82l-.82-.82c-.21-1.44-.62-3.08-2.26-2.05v1h-.82a10.83,10.83,0,0,1-.4-2.25,20.66,20.66,0,0,0-2.06-1c-.2,1-.41,2.05-.61,3.08-1.23-1.44-2.46-2.87-3.49-4.31A2.73,2.73,0,0,1,180,54.53a2.9,2.9,0,0,0-.82.62,13,13,0,0,1-1.64-1.85l1.23,3.08a7.89,7.89,0,0,0,.2,2,9.88,9.88,0,0,0-.61-1.44,2.54,2.54,0,0,0-1.23.21c0-1.44-2.05-2.26-2.87-2.87A36.15,36.15,0,0,1,172.6,50c-2.46-1.64-5.74-2.05-8.2-3.69v-.82a18.47,18.47,0,0,1,3.07,1,41.79,41.79,0,0,1,11.28.2c4.71,1.44,9.43,3.08,14.35,4.72,1.64-3.9,3.9-7.79,4.71-11.69C188,29.93,164.4,32.19,152.1,34c-3.69,1.44-7.38,2.87-10.87,4.51-.2.82-.41,1.64-.61,2.46,1.23,3.08,3.07,7.79,5.33,10,.82-.41,12.91-6.36,11.27-2.87l-10.45,3.69V53.1c3.28,2.46-1.23,4.71-3.49,4.71l-1.84-3.07c-11.28,5.53-19.89,20.5-21.32,32.59,0,4.51-.21,9,.61,13.33.82,2.46,1.64,4.92,2.67,7.59,0-.82.82-1.24,1.64-1.44l1.23-3.08c.61.21,1.23.41,2,.62a25.91,25.91,0,0,1,3.89-2.66c-.2-2.46-.2-4.92-.2-7.39,1.64-2.66,2.25-5.74,3.69-8.61-.21-1.23-.41-2.46-.62-3.48,2-1,2.46-2.46,2.67-4.72,1.43-2.46,2.87-3.89,3.28-6.76,1.23-.62,1.23-1.44,1.43-2.46,1-.82,2-1.64,3.28-2.46,0-2.87,3.28-3.28,5.13-3.69a26.12,26.12,0,0,1,2-3.08,18.29,18.29,0,0,1,3.48-1.64c-.2-1-.41-2-.61-3.07.2-2.67,1.43-6.36,3.89-8,0,.21.21.41.41.62-2.25,3.69-5.74,7.58-1,10.66a2.85,2.85,0,0,1,1.23-.41,7.14,7.14,0,0,0-1.85-.82,2.76,2.76,0,0,1,.62-.82,3.3,3.3,0,0,0-1-.41c0-1.64,1.64-1.64,2.67-2-.41-1.64-1.44-.21-2.46-.41a2,2,0,0,1,1-.82v-.82c2.67-2.67,4.72-2.87,8.82-2.46l2.46,1.84c1,1.64,2,2.87,2,4.92-.21,0-.41.21-.62.41-.61-1.84-1.64-4.1-3.69-3.07a6.46,6.46,0,0,0-.2,2.05c1.23,0,1.64.61,1.84,1.64,1.23.61,2.67,1.43,4.1,2.25a5,5,0,0,0,.21,1.64c-1.44,1.44-3.49,1.23-5.54.82a5.2,5.2,0,0,1-.2-1.64h.61l.62,1.23a27.13,27.13,0,0,1-.41-3.89c-.82-.62-1.64-1-2.26-1.44,0-1.84,0-2.87-1-4.3-.21,2.25-.41,4.71-.62,7.17-3.69,0-6.76-.41-9.84,1.64h-1.84v1.23c-.82.21-.82,1-1.85,1a1.07,1.07,0,0,0-.41.82c-3.48,0-3.89,1.84-5.12,4.3a2.54,2.54,0,0,0-1.23.21,3,3,0,0,0-.21,1.43h-1.64a8.58,8.58,0,0,0,1,1.85,7.2,7.2,0,0,1,2.05-1.44c.82.21,1.64.41,2.66.62a1.55,1.55,0,0,0-1,.2,2.9,2.9,0,0,1,.61.82A11.72,11.72,0,0,0,147,73.6a2.29,2.29,0,0,1,1,.2,8.46,8.46,0,0,0-1.44,2.26c.21,0,.41.2.62.41a7.84,7.84,0,0,0-2.05,1.64v.61a3,3,0,0,1,1.43-.41,6.28,6.28,0,0,1-2.66,2.06,8.51,8.51,0,0,1,1-3.9,21.1,21.1,0,0,1-.41-3.28c-2.25,0-3.48,2-4.1,3.48h1a2.29,2.29,0,0,0,.2,1h.62a4.19,4.19,0,0,0-.82,1.23,5.27,5.27,0,0,0,1,1.23c-.2,3.48-.2,7-.2,10.46a3.6,3.6,0,0,0-1.44,1,2.29,2.29,0,0,1,1,.2c2.46-2.46-.21,1.44,1.23,2.87a4.08,4.08,0,0,1,1.64-.2,2.47,2.47,0,0,0-1,1,3.12,3.12,0,0,1,1.44-.2c0-2,.61-7.38-.82-8.82-.41-1.43-.82-2.87-1.23-4.1,1-1,2-2,3.07-2.87a4,4,0,0,0-.41,1.64l.62.62a4.19,4.19,0,0,0-.82,1.23,2.85,2.85,0,0,1,1.23.41A2.85,2.85,0,0,1,148,83a9.1,9.1,0,0,0-2.26,1.64,9.75,9.75,0,0,1,2.46-.21c0,.21.21.42.41.62-1,1.64-2.05,3.28-2.87,4.92a14.41,14.41,0,0,0,1.64.62,4.11,4.11,0,0,0-.82,1.63L148.41,91c-.21-.4-.41-.81-.62-1.23a10.11,10.11,0,0,1,.62-1.43,13.86,13.86,0,0,0,1.64.61,10.11,10.11,0,0,0-.62-1.43,14.56,14.56,0,0,0,1.64.61.75.75,0,0,1-.2-.61l.61-.62a9.75,9.75,0,0,1,2.46.21v.61c-1,0-3.89,3.9-4.92,4.51,0,2.26.21,4.52.41,7a2.66,2.66,0,0,1,1.23.2c0,2.26.41,4.51,2.26,5.33v2c1.43,0,2.46,1.85,3.07,2.66a16.48,16.48,0,0,1,2.87.41c0,.62,2.67.83,3.28,2.26a10.26,10.26,0,0,1,2.26.41c2.66-1,4.51-1.64,6.56-4.3-.21,2.46-.21,4.92-.21,7.58l-1.23-2.46c0,1.43,1.44,5.54,1,6.36-.41-1.24-.82-2.26-1.23-3.28l-1.23-.62a6.19,6.19,0,0,0-.21,2c-.2-.2-.41-.41-.61-.41,0,1.23-1.23,4.51-.62,5.13-1.23.2-2.46.41-3.48.61a14.41,14.41,0,0,1,2.66.41c-1.23.21-2.46.41-3.48.61a2.13,2.13,0,0,1-.21-1,3,3,0,0,0-.41,1.44.75.75,0,0,0-.61.2,17,17,0,0,1,.2-3.28,17.14,17.14,0,0,0-1,3.49c-.41,0-.62,0-.82.2a23.27,23.27,0,0,1,.82-3.69,2.66,2.66,0,0,0-1.23-.2c-.41,1-.82,2.25-1.23,3.48a4.39,4.39,0,0,1,1.23.82,11.84,11.84,0,0,0-2.46.82c-.21-.41-.41-.61-.41-.82a4.64,4.64,0,0,0-.62,1v-2.87a22.26,22.26,0,0,1,2-2.46,6.35,6.35,0,0,0-2,1c0-.62,1.44-2.25.62-1.43a2.56,2.56,0,0,1-.21-1.23h-2.05c-.61,3.28,1.64,5.33-2.25,7.17a21.06,21.06,0,0,1,1-3.89c-1.23.82-4.1,3.69-5.74,4.3,0-.82.62-1.43,0-2a10.11,10.11,0,0,0-1.43.62l.61-1.23a7.14,7.14,0,0,0-2.25.82c-1.64-.82-3.28-1.44-4.72-2,0-1.23,1-2,1.64-3.08-.82,1.23-2,2.46-3.48,2.46a18.48,18.48,0,0,1,1.23-2,11.38,11.38,0,0,0-2.67,1.64c0-1,1.44-1.64,1.85-2.46a16.86,16.86,0,0,1,3.48-1c-.2.2-.2.41-.2.82a5.82,5.82,0,0,1,1.84.41,6.25,6.25,0,0,0-1,2A16.31,16.31,0,0,1,143.9,121a21.17,21.17,0,0,1,1-3.9,1.74,1.74,0,0,0,2.46.82c0-.61-1-.61-1.43-.61v-1.44a5.6,5.6,0,0,0-1.23-1c-.82,1-1.64,2.26-2.46,3.49a15.5,15.5,0,0,0-3.08-.41,20.39,20.39,0,0,1,2.26-3.48h-1.23l-2.46,3.07v-6.35a4.32,4.32,0,0,0-.62,1,7.86,7.86,0,0,0-2-.2c0-1.44,1-1.85,2.26-2.47a1.59,1.59,0,0,0-.82-.2,8.71,8.71,0,0,1-.41-2,2.19,2.19,0,0,0-1-.21,1.56,1.56,0,0,1-.2-.81,2.85,2.85,0,0,1,1.23-.41,1.59,1.59,0,0,1,.2-1,12.4,12.4,0,0,1,2.87-.41,25.43,25.43,0,0,0-3.89-.21,5.78,5.78,0,0,1,.2-1.84,10.56,10.56,0,0,0-2.66.21,4.7,4.7,0,0,0,1,.61c0,1,0,2.26-1.23,2.67a4,4,0,0,1,.21-1.65,13,13,0,0,0-1.64-.82,4.36,4.36,0,0,0,.82,1.24l-1.85.61a1.09,1.09,0,0,0-.41.82,7.86,7.86,0,0,0-2-.2c0,.81-1,.2-1.23.2a6.46,6.46,0,0,0-.2,2.05c.61-1.84,4.71-1.64,6.15-.2a7.82,7.82,0,0,0,.2,2,2.19,2.19,0,0,1,1,.21v1.23a4.32,4.32,0,0,0,1,.62v3.68c-1,1-.2,3.08.21,4.31-.62,0-.82.21-.41.61l1.84-1.84a6.29,6.29,0,0,0-.82,2,2.91,2.91,0,0,1,1.44-.41,10.52,10.52,0,0,0-2.05,2.26c3.48,1.23,12.71,4.1,12.71,8.81-1.44,2.26-2.67,4.51-3.9,6.77-1,2.66-2.05,5.33-2.87,8.2-5.74.41-10.66-3.49-14.76-6.77-6.76,0-14.35,5.54-19.68,8.82-4.72,1.23-9.84,3.48-15,2.46L89,147.81c-8.2-3.28-17.63-1.64-25.83,1,.62,2.25,1.23,4.51,2.05,6.76C62.92,160.32,59,161.34,54.1,162Zm2-1c-1-2.66-2-5.33-2.87-7.79-.82-1.64-1.64-3.07-2.46-4.51,2-.2,4.51-1.23,6.36-.41a18.57,18.57,0,0,0-3.08,1c0,2.46,2.46.61,4.1.61,1.23,2.46,2.46,4.31,2.87,7.18-1,.41-2,.82-2.87,1.23,0,1.43,1.85.82,2.67.61a8.17,8.17,0,0,1-4.72,2.05Zm224.28-.61a12.62,12.62,0,0,0-2.46-1c0-1,1.44-.2,2-.41,0-1.23-1.22-2-2.25-2.25,0-3.28,1.23-5.13,3.07-7.79,0,1,2.46,1.43,3.08,1.64a9.8,9.8,0,0,1,.62-1.44,27,27,0,0,0-3.28-.82c0-.41,0-.61.2-.82,1.84.41,3.89.82,5.94,1.23-1.84,2.46-2.66,5.54-3.48,8.41a15.5,15.5,0,0,0-1.44,3.28ZM50.82,157.65c-1.23-.82-5.74-5.74-4.51-7l1.85.62c.41.82,3.28,5.74,2.66,6.35Zm236.58-.41a58.39,58.39,0,0,1,2.67-6.35,7.23,7.23,0,0,1,2.26-.41c-1,2.25-2.46,5.94-4.93,6.76Zm-272.46-1L14.33,155a2.66,2.66,0,0,1,1.23-.2,2.6,2.6,0,0,1-.21-1.24,10.55,10.55,0,0,0-2.46-.41,5.32,5.32,0,0,1-.41-1.43c.21-2.05.41-4.1.62-6.15a5.82,5.82,0,0,1,1.84-.41c0-2.05-1.23-1.44-2.46-1.64v-.62c4.72,0,9.43-1.23,14-2,3.69-1.43,7.58-2.66,11.48-3.89a11,11,0,0,0-1.44,1.84c-.2,2.05-.41,4.1-.61,6.36a4.56,4.56,0,0,1,1.64,4.51c-1.23.41-2.46.82-3.49,1.23a2.54,2.54,0,0,0,.21,1.23,17.57,17.57,0,0,1,3.48-.41v.61a83.64,83.64,0,0,1-22.76,3.9Zm5.13-.62a5.78,5.78,0,0,1-.2-1.84,15.06,15.06,0,0,1,3.07-.21,3.3,3.3,0,0,0,.41,1,15.56,15.56,0,0,0-3.28,1Zm297.67,0a153.08,153.08,0,0,1-17-3.69.73.73,0,0,1-.21-.61,21.63,21.63,0,0,1,3.49.2,1.57,1.57,0,0,1,.41-1l-3.69-1.23v-3.08c2.25-1,1.23-5.94.82-8-.82-.41-1.64-1-.82-1.85A88.06,88.06,0,0,0,326,142.07c0,.82-2.06,1.23-2.67,1.23v1.23a5.61,5.61,0,0,1,1.85.21c0,2.66.61,5.12-.21,7.58-.82.21-1.44.41-2.05.62a2.66,2.66,0,0,0-.2,1.23,2.81,2.81,0,0,1,1.22.41c-1.84.82-3.89.82-6.15,1Zm-1-.81c-1.43-.42-1.84-.83-1.43-1.85a20,20,0,0,1,3.28.41,2.85,2.85,0,0,0-.41,1.23,3,3,0,0,0-1.44.21Zm-289.27-.42a5.32,5.32,0,0,1-.41-1.43,15,15,0,0,1,3.28-.82v1.43a12,12,0,0,0-2.87.82ZM7,154.17l-3.69-3.08a3.81,3.81,0,0,1,.41-1.64c-2.46-1.23-1.85-4.51-1.64-6.76.2-.21.41-.21.82-.21,0-1.64-1.44-1.84-1.44-3.28,1.23.82,2.67,1.64,4.1,2.67v2.46c2.67,0,1.85,5.12,1.64,7a1.55,1.55,0,0,0-1,.2c0,1,1.43,2.05.82,2.67Zm303.21-.41a11.28,11.28,0,0,0-2.46-.82,2.54,2.54,0,0,1,.21-1.23,15.85,15.85,0,0,1,3.07.2v1.44a1.06,1.06,0,0,0-.82.41Zm-247.24-.41c-1-2.67-1.85-5.33-2.67-8,.21.82,3.08,7.59,2.67,8Zm268,0c.41-1,.82-1.85,1.23-2.67h-1.23v-6.35l1.84-1.23a5.48,5.48,0,0,1-.41-1.44c1.23-1.43,2.46-3.07,4.51-3.07a22.91,22.91,0,0,0-1.64,3.07,4,4,0,0,1,1.44.21c-.21,2.25,0,5.33-2.05,6.76a7.86,7.86,0,0,0,.2,2.05,26,26,0,0,0-3.89,2.67ZM92.23,150.07c-2.87-2.87-5.12-7.59-6.35-11.48h1c1.85,3.69,3.9,7.58,5.95,11.48Zm153.35,0c1.64-3.69,3.49-7.38,5.33-11.07a2.54,2.54,0,0,1,1.23-.21c-1,2.26-3.89,10.05-6.56,11.28ZM98,149.86c-.82-.82-.61-2.05-2-2.05-.2-.82-.41-1.64-.61-2.46-1.85-2-4.31-4.1-3.69-7.17-.41-.21-.62-.41-.82-.41,4.51-2.46,9-4.72,13.73-7,2.67,2.87,5.34,5.74,8,8.81a10.18,10.18,0,0,0-.41,2.67l1,1c-4.51,2.46-10,5.95-15.17,6.56Zm140.44,0c-4.51-1.23-9.23-4.51-13.33-6.56a1.62,1.62,0,0,1,1-.41,5.78,5.78,0,0,1,.2-1.84c-1.64,0,.62-3.28.62-3.28,2-2.26,4.1-4.51,6.15-6.56,1.64,0,2.66.82,4.1,1.64a2.19,2.19,0,0,0-1-.21,2.11,2.11,0,0,0-.82,1c.82.2,2.26,1.23,3.08.82v-.82c2.87,1.23,5.74,2.46,8.61,3.89-1,1.64-.41,1.85-.62,3.69a33.35,33.35,0,0,0-3.48,4.1,9.75,9.75,0,0,0-.21,2.46,6.1,6.1,0,0,0-1.84.41,3,3,0,0,0-.21,1.44,7.82,7.82,0,0,0-2.25.2ZM44.88,148.63a18.48,18.48,0,0,0-1.23-2c.61.41,1.43.82,2.25,1.44a4.33,4.33,0,0,0-1,.61ZM237,148.22a12.22,12.22,0,0,0-2.46-1,9.8,9.8,0,0,1,.62-1.44,23.64,23.64,0,0,1,2.66,1,3.37,3.37,0,0,0-.82,1.43Zm55.36,0c0-1,1.22-1.64,1.84-2.05a4.1,4.1,0,0,0-.2,1.64,3.92,3.92,0,0,0-1.64.41ZM101.05,148a4.64,4.64,0,0,0-.62-1,5.26,5.26,0,0,1,3.08-1.23V147a12.88,12.88,0,0,0-2.46,1Zm-38.54-.62-.62-1.23h.82c0,.21.21.41.41.82-.2,0-.41.21-.61.41ZM49,147.2c-2.87-.62-5.95-3.28-7.59-5.74,0-6,3.69-9.64,7.59-13.53h.82c2.25,5.74,12.91-1.64,15.37,3.48-4.51.82-7.79,2.67-11.48,5.13a12.89,12.89,0,0,0-.2,2.87c.82,2.25,1.64,4.51,2.66,6.76-2.46.21-4.92.62-7.17,1Zm226.33,0v-1c.21,0,.41.21.82.41a2.9,2.9,0,0,0-.82.62Zm11.28-.21a32.4,32.4,0,0,0-4.31-1c0-2.46,1.64-5.33,2.46-7.59,0-4.51-8-6.56-11.28-7.58,2.87-2.87,9.43-.41,13.33-1.23a21.2,21.2,0,0,1,2.46-2c3.28,3.89,8.4,8.61,7.18,14.35a13.39,13.39,0,0,1-9.84,5.12ZM68,146.17c-1.23-1.23-1-2.87-.2-4.51-1.44-2.87-5.54-3.28-8.41-4.1a18.48,18.48,0,0,1-2-1.23v-1c8-3.9,19.89-5.74,28.7-3.69a2.18,2.18,0,0,0,.21,1H85.06v1.23a9.36,9.36,0,0,1,2,.41,4.06,4.06,0,0,0,.2,1.43c-6.35,0-2.46,6.77-1.43,9.85-5.33-1.64-12.51-.82-17.84.61Zm130.18,0c-1.22-4.1-2.46-9.22-5.12-12.5,0-1.64,3.48-2.46,4.51-2.87A55.22,55.22,0,0,1,200.48,146a7.93,7.93,0,0,0-2.26.2Zm-60.06-.41c-1.44-4.71,1.23-11.07,2.25-15.79,1.44.62,3.08,1.24,4.72,1.85,0,1.64-1.44,3.28-2.26,4.92-1,2.87-1.84,5.74-2.66,8.82a6.46,6.46,0,0,0-2.05.2Zm130.79,0a35.33,35.33,0,0,0-3.89-1c-4.1,0-8.2-.21-12.3.61v-1.43c1.64-3.49,2.66-7.59-1.85-8.61,0-1.23,1-1.44,2.26-1.64a2.54,2.54,0,0,1-.21-1.23h-.82a1.53,1.53,0,0,1,.21-1c9.84-1.23,20.09-.41,28.91,3.9a7.49,7.49,0,0,0-2.05,1.64c-3.29,1-7,1.43-8.82,4.3a29.92,29.92,0,0,0,.41,4.1,6.16,6.16,0,0,0-1.85.41Zm-38.13-.2c-1.43-.62-1.43-1.23-1.84-2.05a15.7,15.7,0,0,1,2.87.41,3,3,0,0,0-.21,1.43c-.41,0-.61,0-.82.21Zm-212.39-.21a5.52,5.52,0,0,1,.21-1.84,10.48,10.48,0,0,1,2.66-.21,2.54,2.54,0,0,0,.21,1.23,17.33,17.33,0,0,0-3.08.82Zm39.16,0a36,36,0,0,1-1.64-4.3c2.66,1,3.89,2,1.64,4.3Zm4.1,0c-.82-3.69-3.28-4.71-6.56-6.35v-1.64c3.07,1.84,10.45,4.1,6.56,8Zm45.1,0a5,5,0,0,1-.21-1.64,7.56,7.56,0,0,1,2.26-.82,2.66,2.66,0,0,0,.2,1.23,21.71,21.71,0,0,0-2.25,1.23Zm169.75-.61c-1.23-.62-1.23-1.44-1.23-2.67,2.46-1.84,5.12-3.48,7.79-5.12v1.64l-4.92,3.07a21.92,21.92,0,0,0-1.64,3.08Zm3.89,0c-2.25-2.26-.41-3.9,2.26-3.9-.41,1-1.43,3.49-2.26,3.9Zm-210.95-.21-.62-1.23a12.4,12.4,0,0,1,2.87-.41v1c-.82.2-1.64.41-2.25.61Zm249.09,0a9.88,9.88,0,0,1-1.44-.61v-1.23a13,13,0,0,1,2.67.2v1.44a2.66,2.66,0,0,0-1.23.2Zm-236.38-.2L81,143.71v-1.23a14.41,14.41,0,0,1,2.66.41v1.23a3,3,0,0,0-1.43.21Zm121.36,0a12.46,12.46,0,0,1,.82-2.46l-1.84-.62a13.8,13.8,0,0,0-1.85-5.12c-.4-2.46-.81-4.92-1.23-7.18a7.49,7.49,0,0,1,1.85-.82,8.65,8.65,0,0,0-1.43,1.23,3.39,3.39,0,0,0,.41,1,5.17,5.17,0,0,1,1.63.2c0,4.72,4.11,8.61,4.11,12.71a13,13,0,0,0-2.47,1Zm64.38,0a9.8,9.8,0,0,1-1.44-.62v-1a13,13,0,0,1,2.67.2.78.78,0,0,0,.2.62,3.27,3.27,0,0,0-1.43.82ZM25,144.12a5,5,0,0,1-.41-1.43c.82-.21,1.85-.41,2.87-.62v1.23a11.84,11.84,0,0,0-2.46.82Zm229.41,0a3.1,3.1,0,0,1,.2-1.43,12.33,12.33,0,0,1,2.87-.21,2.66,2.66,0,0,0-.2,1.23,12.32,12.32,0,0,0-2.87.41Zm-179-.2a2.9,2.9,0,0,1-.82-.62v-.82h2.87v1.23a6.19,6.19,0,0,0-2,.21Zm58.43,0c-.61-.41-1-.82-1.43-1,.41-3.89,2.05-5.74,3.48-9a23.45,23.45,0,0,1,.41-3.9,6.14,6.14,0,0,1,1.85-.4v-.82a11.1,11.1,0,0,1-1.64-1.23c1.43,0,1.84.41,2.46,1.64-1.23,3.89-2.26,7.79-3.28,11.68l-1.85.62,1.23,2.46ZM261,143.71v-1.64a12.25,12.25,0,0,1,2.66.21,2.66,2.66,0,0,0-.2,1.23,10.22,10.22,0,0,0-2.46.2Zm51.46-.2-1.85-.62a3,3,0,0,1,.21-1.43,13.73,13.73,0,0,1,2.66.41v1.43c-.41,0-.82,0-1,.21ZM30.73,142.28a2.85,2.85,0,0,1-.41-1.23c1-.21,2-1,3.08-.62v1a10,10,0,0,0-2.67.82Zm276.15-.41a13.38,13.38,0,0,0-2.05-.82v-1.44a21.56,21.56,0,0,1,2.87.82,3.34,3.34,0,0,0-.82,1.44Zm-264.46-.21a4.19,4.19,0,0,1-.82-1.23,7.14,7.14,0,0,1,.82-2.25c.2,0,.41.2.82.41a15.1,15.1,0,0,0-.21,3.07Zm178.77,0c-1.23-.61-2.26-1.23-3.28-1.64a4,4,0,0,0,.61-2.66c2.26-2.26,4.51-4.51,7-6.56a6.3,6.3,0,0,1,2-.83v-1.43l2.46.62c0,4.3-4.1,5.74-6.56,8.61-.41,1.23-1.23,3.48-2.25,3.89Zm-210.14-.2c-1.64-.41-3.28-.82-4.72-1.23a2.76,2.76,0,0,1,.62-.82,14.21,14.21,0,0,1-.21-2.87c2.46,1.23,5.95,1.64,8.41.41a35.94,35.94,0,0,0,.41,4.51Zm105.58,0c-1.23-1.85-2.25-3.69-3.28-5.54-1.84-1.64-3.69-3.28-5.33-4.92a7.5,7.5,0,0,1-.21-2.05c.82-.2,1.85-1,2.87-.61a2.66,2.66,0,0,0-.2,1.23,12.22,12.22,0,0,1,2.46,1c2,2,4.31,4.1,6.56,6.15a9,9,0,0,0,.21,2.26,3.36,3.36,0,0,1,1,.41,25.31,25.31,0,0,0-4.1,2.05Zm178.77-.21a18.29,18.29,0,0,1-.21-3.28c.21,0,.42.21.83.41a5.84,5.84,0,0,0,.2,1.85,2,2,0,0,0-.82,1Zm27.47-.41a35.57,35.57,0,0,1-.2-4.51,14.25,14.25,0,0,0,8.81-.62c-.2.83-.41,1.85-.61,2.88a.75.75,0,0,1,.61.2c0,2.05-7.38,2.05-8.61,2.05Zm-312.44-.41a6.1,6.1,0,0,1-.41-1.84h2.87a4.08,4.08,0,0,0-.2,1.64,7.93,7.93,0,0,0-2.26.2Zm199.89-.2a7.93,7.93,0,0,1,.2-2.26,9.18,9.18,0,0,0-2-.41l-3.08-4.3c-.62-2.46-1.23-4.92-1.85-7.18,4.93-5.74,9.84-12.09,12.51-19.27.61-4.3,1.44-8.61,2.25-12.71-.2-3.48-.4-6.77-.61-10-.61-2.25-3.28-12.09-5.33-13.12-2.05-6.15-10-12.5-15.17-16.19a3.57,3.57,0,0,1-.41-1c3.28-4.92,6.15-11.89,12.92-8.61,6.55,4.92,11.48,10.66,16.19,17.22,1.23,2.46,2.46,4.92,3.9,7.38.82,2.87,1.84,5.74,2.87,8.82a119,119,0,0,1,1.43,17A73.09,73.09,0,0,1,221,130.18c-3.69,3.28-7.17,6.56-10.66,10Zm-82.41-.41c-7.59-6.15-12.92-13.33-18.25-21.53-2.26-4.51-3.49-9.43-5.13-14.15a81.08,81.08,0,0,1-.2-24.39c1-3.69,2-7.38,3.28-11.07,4.71-8.61,13.74-24.81,25.63-24.81,2.66,3.08,5.33,6.36,8,9.64-13.12,6.56-19.88,21.32-22.55,34.85,0,9.43,1.64,17,6.15,25.22a129.78,129.78,0,0,0,9.64,11.48c-.62,2.46-1.23,4.91-1.64,7.58a40.26,40.26,0,0,0-3.49,4.72,2.85,2.85,0,0,0-1.23-.41c-.82.82,0,1.84-.2,2.87ZM4.49,139.61c-.21-2.66-.21-5.33-.21-8,2.05-2.05,7-1.23,9.64-.21.61.62,1.84,2.67.21,1.85a10.56,10.56,0,0,0-.21,2.66,40.24,40.24,0,0,0-5.13.21c-1.43-.62-2.66-1.23-3.89-1.64,0,.82.41,5.12-.41,5.12Zm320.64-.2a2.19,2.19,0,0,1-.21-1A16.27,16.27,0,0,1,328,138v1.44Zm8.2-.41a43.66,43.66,0,0,1-.21-5.13c-1.43,0-2.46,1.23-3.9,1.64a45.56,45.56,0,0,0-5.12-.2v-2.67c-.41,0-.82,0-1,.21-1.85-3.69,8.81-3.08,10.45-2.26,0,2.46.41,6.15-.2,8.41Zm-89.59-.62c-4.52-2.25-2.05-3.28.61-1.43a10.2,10.2,0,0,0-.61,1.43Zm-149.46-.2a5.48,5.48,0,0,1-.41-1.44,12.88,12.88,0,0,1,2.46-1l.82.83a13,13,0,0,0-2.87,1.64Zm-8.61-.62v-.82H89a15.74,15.74,0,0,0-3.28.82Zm165.65,0a7.43,7.43,0,0,0-1.84-.82h2.87a2.11,2.11,0,0,0-1,.82Zm-207.26-.41c-.82-1.44.2-2.25.82-3.28h.82c0,1.23-.21,2.87-1.64,3.28Zm82.21-.41-1.85-2.46a3.12,3.12,0,0,1,1.44-.2c.61.61,1.43,1.23,1.43,2.25a1.57,1.57,0,0,0-1,.41Zm167.7,0c-.62-1-2.26-2.25-1.23-3.28,1.63.82,1.43,1.23,1.84,2.67l-.61.61Zm-233.92-.2c-.62,0-.62-1-.62-1.44,1-.2,2-.41,3.28-.61v1a10.16,10.16,0,0,0-2.66,1Zm217.72-.21a12.22,12.22,0,0,0-2.46-1,2.54,2.54,0,0,1,.21-1.23c1,0,4.09,0,3.07,2-.41,0-.62,0-.82.2Zm-64.17-.62a3.88,3.88,0,0,1-.21-1.43c.83-.82,1.44-2.05,2.87-1.43,0,2.05-1.43,2.25-2.66,2.86Zm-113.58-1a3.65,3.65,0,0,1-.41-1c.82-.82,1.85-.82,2.87-1v1a12.22,12.22,0,0,0-2.46,1Zm-33.62-.2a3,3,0,0,1-.41-1.23,15.5,15.5,0,0,1,3.08-.41,2.66,2.66,0,0,0,.2,1.23,11.88,11.88,0,0,0-2.87.41Zm204.81,0c-.82-.21-1.64-.41-2.26-.62a2.54,2.54,0,0,1,.21-1.23l3.07.62a5.27,5.27,0,0,0-1,1.23Zm-191.07-.62a3.57,3.57,0,0,0-1-.41v-1.23a14.16,14.16,0,0,1,2.87.21,2.54,2.54,0,0,0,.21,1.23,6.46,6.46,0,0,0-2,.2Zm115.42,0a10.11,10.11,0,0,0-.62-1.43l2.46-1.23a6.6,6.6,0,0,0,.41,1.64,7.47,7.47,0,0,0-2.25,1Zm60.48,0v-1.23c.82-.82,2-.61,3.07-.41a2.66,2.66,0,0,0-.2,1.23,12.32,12.32,0,0,0-2.87.41ZM73,133.67a4.65,4.65,0,0,0-.61-1c.82-.82,2.05-.41,3.28-.2v1.23Zm190.25,0c-.41-.21-.61-.41-.82-.41,0-2,1.44-1.23,2.87-1.44a3,3,0,0,0,.41,1.23l-2.46.62Zm-254-.41a5,5,0,0,0-1.64-.21,3.92,3.92,0,0,1,.21-1.64,20.56,20.56,0,0,1,3.48.21v1.43a6.19,6.19,0,0,0-2.05.21Zm133.06,0a8.58,8.58,0,0,0-1.85-1,3,3,0,0,1,.21-1.43,15.16,15.16,0,0,1,2.25.82v1.43a.73.73,0,0,0-.61.21Zm-94.92-.62-.62-1.23a18.06,18.06,0,0,1,1.85-2,3.65,3.65,0,0,1,1,.41V131a9.11,9.11,0,0,0-2.25,1.64Zm243.14-.2c-.61-1.23-1.23-2.26-1.85-3.28.21-.21.41-.41.62-.41,1.23,1.22,3.08,1.84,1.23,3.69Zm36.7,0a5,5,0,0,1-.21-1.64h3.69a2.66,2.66,0,0,0-.2,1.23,15.47,15.47,0,0,0-3.28.41Zm-206-.41a3.17,3.17,0,0,1-1.23-2.87h1a17.06,17.06,0,0,0,1.44,2.46,2.85,2.85,0,0,0-1.23.41Zm70.93-.41c0-3.9,7.8-5.74,10.46-6.77a43.59,43.59,0,0,1-10.46,6.77Zm-102.5-.21c-4.1-.61-8-1.23-11.89-1.84,6.15-3.49,13.12-4.72,20.09-6.15a29.62,29.62,0,0,1,4.1.2v1.85c-3.08,3.07-8,4.71-12.3,5.94Zm56.17-.2c-3.48-2.46-7-4.72-10.45-7,3.28,0,9.63,3.49,11.07,6.57-.21,0-.41.2-.62.41Zm43.26,0c-1.23-1-2.26-1.85-3.28-2.67-2.05-.82-6.56-2.46-3.48-5.53a10.83,10.83,0,0,0,.4,2.25c.21-.61.41-1.23.62-1.84.82,0,.61,1.23.61,1.84a10.26,10.26,0,0,1,2.46-.2,12,12,0,0,0-1.64-.83,10.61,10.61,0,0,1,2.46-.4,1.55,1.55,0,0,0,.21.82,1.58,1.58,0,0,1,.2-1,14.41,14.41,0,0,1,.62,1.64,5,5,0,0,1,1.64.21,1.59,1.59,0,0,0,.2.82,5.42,5.42,0,0,1,1.24-1h-1.44c0-.41,0-.61.2-.82a6,6,0,0,1,2-.41,4.43,4.43,0,0,0-.61,1h1.43c.82-.83,1.24-3.08,1.44-4.31-.2,1.64-.41,3.28-.62,4.92-.61.82-3.69,2-2.66,3.08a21.2,21.2,0,0,0-2.05,2.46Zm58,0c-3.28-1.24-8.61-3.28-11.07-5.74V124c.2-.2.41-.41.61-.41,7,0,18.25,1.64,24,5.95-4.51.4-9,1-13.53,1.64Zm-176.31-.82c-1-1-2-1.85-2.87-2.67a23.15,23.15,0,0,1,3.69.41,5.2,5.2,0,0,0,.2,1.64,4,4,0,0,0-1,.62Zm21.11,0a6.16,6.16,0,0,1-.41-1.85c.82-.2,1.85-.41,2.87-.61a2.54,2.54,0,0,0,.21,1.23c-1,.41-1.85.81-2.67,1.23Zm126.9,0a6.6,6.6,0,0,1-.41-1.64l1.85-1.85a9.8,9.8,0,0,1,.62,1.44,9.76,9.76,0,0,0-2.06,2Zm26.86,0a20.15,20.15,0,0,1-2.05-1.23c0-1.85,1.64-.82,3.08-.62V130a1.57,1.57,0,0,0-1,.42Zm-95.94-.21a11.27,11.27,0,0,1,1.43-2.66.73.73,0,0,0,.21.61,8,8,0,0,0-1.64,2.05Zm117.26,0-.61-1.84a24.33,24.33,0,0,1,4.1-1,24.23,24.23,0,0,0-3.49,2.87ZM74.19,129c.21-.82,1-2.46.62-2.87H54.92c0-.61,5.13-2.87,1.23-2.87,0-3.89,20.09-10.66,24-12.09,2.46-.62,4.92-1.24,7.38-1.65,1.23.21,2.46.41,3.89.62a5.6,5.6,0,0,0,1,1.23,25,25,0,0,0,2.87,8.61,3,3,0,0,0-.21,1.44c-7,2.46-13.94,4.92-20.91,7.58ZM149,129c0-1.23,1-1.84,1.64-2.87,0,1-.61,2.67-1.64,2.87Zm114.4-.2c-6.77-3.28-13.74-5.33-20.71-7.38,0-1.85.82-2.88,1.44-4.31,1-5.33.82-6.76,6.15-7.59,4.3.83,10.86,1.85,14.55,4.31h-.61a5.23,5.23,0,0,0-.62,1,25.28,25.28,0,0,0,2.26,1.24c.2-.42.41-.83.61-1.24l9.84,3.69c1.64,1.24,3.49,2.47,5.33,3.9l-1.23.62v1a20.28,20.28,0,0,1,3.08,1.44H272.44c-3.08,0-6.15.2-9,.41a2.76,2.76,0,0,0-.62.82c.62.61,1,1.64.62,2Zm-208.7-.41c-.82-.41-1.85-.41-1.23-1h9.22c-2.66.21-5.33.62-8,1Zm185.33-.41a15.39,15.39,0,0,0-2.46-1.44,1.55,1.55,0,0,1,.2-1c.82.2,1.64.41,2.67.61a5.87,5.87,0,0,0-.41,1.85Zm40.38,0c-.82,0-4.3-.21-4.3-1l8.82.62a30.11,30.11,0,0,0-4.52.41Zm-182.66-.21a5,5,0,0,1-.21-1.64,12,12,0,0,1,2.46-.82,2.9,2.9,0,0,1,.62.82,13.16,13.16,0,0,0-2.87,1.64Zm86.72,0v-.41c.62,0,1-.2,1,.41Zm3.69,0a2.91,2.91,0,0,1,.41-1.43,13.86,13.86,0,0,0,1.64.61v.82Zm-71.55-.41c-.41-1-.82-2-1.23-2.87.2-.21.41-.41.61-.41a4.52,4.52,0,0,1,1.85,2.67l-1.23.61Zm88.15,0a6.5,6.5,0,0,1-.41-1.64c.83-.41,1.44-1.44,2.67-.82v1a8.69,8.69,0,0,0-2.26,1.43Zm-21.11-.82v-.2h1.44v.2Zm3.07,0v-.2h.41v.2Zm-6.56-.61a42.9,42.9,0,0,1,1.44-4.92c0,1.64-.21,3.69-1.44,4.92Zm-102.09-.21c-.62-.61-.62-.82-.21-1.64.82-.2,1.64-.41,2.67-.61a4.08,4.08,0,0,0,.2,1.43,10.36,10.36,0,0,0-2.66.82Zm78.52,0c0-.41-.62-1.44.2-1.44a3.16,3.16,0,0,0-.2,1.44Zm102.71,0a15,15,0,0,0-2.05-.82c0-2.87,2.66-1.23,3.28.21l-1.23.61Zm-80.57-.2v-2a4.41,4.41,0,0,1-2.46,1.43c.61-3.89,3.69-7.58,1-11.48.82,0,.21-2.25.21-2.87-.21.82-.41,1.64-.62,2.67-.2-.21-.41-.42-.61-.42a.76.76,0,0,0-.21.62c-.2-1-.41-2.05-.61-3.07-.21.61-.41,1.43-.62,2.25a.75.75,0,0,0-.61.2c0-.41-.82-4.71.82-4.71v1.43h1c0-.2.21-.41.41-.61.62.41,1.23,1,2,1.64a2.76,2.76,0,0,1,.62-.82c.82,1.64,1.64,3.28,2.66,4.92-1.23,0-.2,2.05-.2,2.67l-.62,1.22c-.2-.81-.41-1.43-.61-2a17.22,17.22,0,0,0-.82,3.07c0-1.64.21-3.48-.41-4.92-.41,2.26-.62,4.51-.82,7l.61-1.23h.83v1a2.15,2.15,0,0,0-.83,2c.21-.21.83-1.23,1.44-.62,0,.62-1.44,1.85-.82,2.46-.41,0-.62,0-.82.21Zm16,0c.2-1,.41-2,.61-3.08-.2,1-.41,2-.61,3.08Zm-64.37-.82c-.82-1-1.85-2.05-1-2.88a22.39,22.39,0,0,1,2.46,2.06,3.17,3.17,0,0,0-1.43.82Zm44.28,0c-.41-.62-.82-1.23-1-1.64.82-.21,1.64-.41,2.67-.62a.78.78,0,0,0,.2.62c-1,0-.61.82-.82,1.22a1.52,1.52,0,0,0-1,.42Zm14.55,0V124h.41v.62Zm3.49,0v-.42h.2v.42Zm3.28,0c.2-1.23.41-2.46.61-3.69v3.27c-.2,0-.41.21-.61.42Zm26.86,0c-.83-1.23,0-2.26.82-3.08,1,1,0,2.26-.82,3.08Zm-78.32-.42V124h.41v.2Zm24.4-.4a2.19,2.19,0,0,1-.21-1h.62a1.57,1.57,0,0,0-.41,1Zm1,0a.65.65,0,0,1-.2-.41h.82c-.21,0-.41.2-.62.41Zm2.46,0a17.33,17.33,0,0,1,.82-3.08c0,.82.41,2.26-.82,3.08Zm13.53-.21c-.4-.41-.81-.82-1-1,.41,0,2,.61,1,1Zm-102.3-.2a3,3,0,0,1-.41-1.23,9.6,9.6,0,0,1,2.67-.82v1.43c-.82.21-1.64.41-2.26.62Zm170.16,0a14.41,14.41,0,0,1-1.64-.62,2.66,2.66,0,0,1-.2-1.23,15.7,15.7,0,0,1,2.87.41,2.54,2.54,0,0,0-.21,1.23c-.41,0-.61,0-.82.21Zm-61.3-.41a4.86,4.86,0,0,1,1.44-3.28,15.28,15.28,0,0,0-1.44,3.28Zm16.2,0a6.71,6.71,0,0,1-.41-1.64,8.3,8.3,0,0,1,1.44-1.23c2.25,1-.21,2.25-1,2.87ZM187,122.8v-.61h.61v.61Zm-18.66-.2a2.68,2.68,0,0,1-.2-1.23c.61-.62.41-1.85.2-2.88.41,1.24,1.23,2.47.82,3.9-.41,0-.61,0-.82.21Zm30.55,0a1.58,1.58,0,0,1,.2-1h.83a2.38,2.38,0,0,0-1,1ZM133,122.39c-1.64-2-3.28-4.1-4.71-6.15l5.53,6.15Zm29.73,0a1.52,1.52,0,0,1,.41-1,3.36,3.36,0,0,0,.41,1Zm1.43,0,1.23-.62v.62Zm9.84,0c0-.2.21-.41.41-.62a.74.74,0,0,0,.21.62Zm-113.37-.62a4.06,4.06,0,0,1-.2-1.43,10.36,10.36,0,0,1,2.66-.82l.62.62a21.83,21.83,0,0,0-3.08,1.63Zm28.7-.2a5.42,5.42,0,0,1-.41-1.43,12.33,12.33,0,0,1,2.87-.21v1l-2.46.61Zm87.13,0c0-.41,0-.61.21-.82,0,.21.2.41.41.62a.78.78,0,0,0-.62.2Zm71.35,0a6.6,6.6,0,0,0-1.64-.41,3.08,3.08,0,0,1,.2-1.43,10.22,10.22,0,0,1,2.46.2,2.54,2.54,0,0,0,.21,1.23,3,3,0,0,0-1.23.41Zm29.11,0c-4.72-3.08,0-2.87,1-.61a4.33,4.33,0,0,0-1,.61Zm-164-.2a4.2,4.2,0,0,1-1.23-3.08h1a3.73,3.73,0,0,1,1.24,2.87c-.42,0-.83,0-1,.21Zm77.49-.21a22.06,22.06,0,0,1,1.44-3.89,6.46,6.46,0,0,1-1.44,3.89Zm-15.37-.2a46.44,46.44,0,0,1,1.64-5.75c.41.83,1.23,4.93.2,4.93a16.75,16.75,0,0,1-.41-2.87,27.49,27.49,0,0,0-1.43,3.69Zm-15.79-.21c-.2-.21-.41-.41-.41-.61a7.28,7.28,0,0,1,2.26-.41v.61a5.87,5.87,0,0,0-1.85.41Zm4.1,0v-.61a1.57,1.57,0,0,1,.82.2,1.06,1.06,0,0,0-.82.41Zm-1.43-.21v-.61h.41v.61Zm19.06,0v-.81h.62a2.84,2.84,0,0,0-.62.81Zm51.67,0c1.23-3.68,2.46-10.45,6.55-11.07-.81,2.47-1.63,4.93-2.25,7.59-2.25,1-1.43.82-1.43,3.08a12.27,12.27,0,0,0-2.87.4Zm-130-.2a12.29,12.29,0,0,1-.21-2.66c-2.66,0-3.48-6.36-3.89-8.21H100c1.85,3.49,3.69,7.18,5.54,10.87Zm24.4,0c-2.67-2-1-3.48,1-1.43a2.66,2.66,0,0,0-.2,1.23c-.41,0-.62,0-.82.2Zm25.42-.82v-.41h.2v.41Zm31.57,0v-.61h.61v.61Zm13.94,0v-.41h.2v.41Zm-39.16-.41a14.49,14.49,0,0,1-.82-2,12.38,12.38,0,0,1,2.67.21v1h1.43c0,.82-2.46.82-3.28.82ZM66,118.7c-1.43-1.43,1.64-2,2.67-1.84a1.59,1.59,0,0,0,.2.82,11.72,11.72,0,0,0-2.87,1Zm205.63,0a14.84,14.84,0,0,0-2.26-.82,2.27,2.27,0,0,1-.2-1c1-1,2,0,3.07.41v1c-.2,0-.41.2-.61.41Zm-135.1-.21v-.41h.2v.41Zm75.65,0c-.82-.81,0-1.84.4-2.66h1a2.54,2.54,0,0,0,.21,1.23,5.4,5.4,0,0,0-1.64,1.43Zm13.73,0c0-1.22-.2-1.63.62-2.87h1a10.72,10.72,0,0,0-.41,2.46,3,3,0,0,0-1.23.41Zm-53.51-.41v-.61h.82v.61Zm22.35-.4v-.21h.41v.21Zm-8.82-.41c.21-1.44.21-3.49,1.23-4.52-.41,1.44-.82,2.87-1.23,4.52Zm-114-1a5.11,5.11,0,0,1-.41-1.44c1.23-.4,1.64-1,2.87-.4v1a11.28,11.28,0,0,0-2.46.82Zm86.1,0c-.2-.2-.41-.41-.41-.62a2.66,2.66,0,0,1,1.23-.2l.62.62a3.12,3.12,0,0,0-1.44.2Zm-34.44-.41c-.41-1-1-1.23-1-2.66h1a16.39,16.39,0,0,0,.82,2.25,1.06,1.06,0,0,0-.82.41Zm30.14-.41V115h.2v.41Zm-44.08-.21c-.41-1.22-1-1.63-.41-3.07a1.59,1.59,0,0,1,.82.2c.2.83.41,1.65.61,2.46a1.59,1.59,0,0,0-1,.41Zm25.63,0a8.89,8.89,0,0,1-.21-2.25h1a7.53,7.53,0,0,0-.21,2.25Zm64.58,0V115h.41v.2Zm-4.11-.2a.65.65,0,0,1-.2-.41c.41,0,.61,0,.2.41Zm-23-.41V114h.62v.61Zm92.46-.2V114h.62v.41ZM78.09,114a4.64,4.64,0,0,0-.62-1c1-.41,1.85-1,3.28-.62a1.59,1.59,0,0,0-.2,1l-2.46.62Zm181.23,0a14.84,14.84,0,0,0-2.26-.82c0-2.26,2.26-1,3.49-.42L259.32,114Zm-77.7-.41a6.08,6.08,0,0,1-1.64-3.7h.82a2.91,2.91,0,0,1,.41-1.43h.61a23.21,23.21,0,0,0-.41,3.89H182v-6.76a2.15,2.15,0,0,1,1,.21,21.94,21.94,0,0,1,1.23-2.26h3.08a3,3,0,0,0-.21,1.44,13.5,13.5,0,0,1-1.63-.62c-.83,2.46-1.24,3.69-.62,6.15a.75.75,0,0,1,.62.21c0-2.26-.41-2.46.61-4.51a9.27,9.27,0,0,1,2.05.4V106h1.64v-.82a3.92,3.92,0,0,0,3.48-3.07h.62a12.37,12.37,0,0,0-1,2.46,1.62,1.62,0,0,1,.82-.83,3.92,3.92,0,0,0,.21,1.44c1.84.82,3.89,2.87,3.08,5.33-.21-.82-2.46-3.49-4.31-4.92-4.51.62,0,2.67-1.43,4.1,0-.62-1.24-2.87-1.85-3.08.41,1.85.82,3.7,1.23,5.74-.82-1.63-1.44-3.28-2-4.71a1.59,1.59,0,0,0-.82-.2c-.21.2-.21.41-.21.82a3.81,3.81,0,0,0-1.64.41,9.47,9.47,0,0,0,.41,2,10.13,10.13,0,0,0-2.46.41,24.81,24.81,0,0,1-1-2.87,42.11,42.11,0,0,0-.41,5.33Zm33.62,0c-.2-.21-.41-.41-.61-.41.2-.83.41-1.64.61-2.46,2,0,.82,2,0,2.87Zm-74.83-.21V113c.62,0,1.85-.41,1.85.41Zm31.16-.62v-.41H172v.41Zm-87.33-.41a4.91,4.91,0,0,1-.21-1.63,9.75,9.75,0,0,1,2.46-.21v1a7.39,7.39,0,0,0-2.25.81Zm56.38,0a1.48,1.48,0,0,1-.21-.81,5.87,5.87,0,0,1,1.85.41,3.92,3.92,0,0,0-1.64.4Zm88.15,0c-1.64,0,0-3.07.21-3.48a5,5,0,0,1,1.43.41,4.93,4.93,0,0,1-1.64,3.07Zm24.19,0a6.42,6.42,0,0,0-1.64-.4,3.92,3.92,0,0,1,.41-1.64,11.28,11.28,0,0,1,2.46.82,1.55,1.55,0,0,0-.2,1,1.59,1.59,0,0,0-1,.2Zm-112.55-1.43a.63.63,0,0,1-.2-.41h1a1.09,1.09,0,0,0-.82.41Zm-19.68-.2a15.51,15.51,0,0,1-.82-2l1.23-.62c.21.82.41,1.64.62,2.46-.41,0-.83,0-1,.21Zm3.9-.21a20.63,20.63,0,0,1-1-2,2.19,2.19,0,0,1,1,.21v1.84Zm10,0a11.66,11.66,0,0,1-1.64-1.23c.21-.82.41-1.43.62-2h.82c.41,1,1.23,1.84.82,3.08a.78.78,0,0,0-.62.2Zm53.51-.41v-.21h.41v.21Zm10,0a14.54,14.54,0,0,1-.41-2.66c.21.82.82,2.25.41,2.66Zm-57.81-.21a.63.63,0,0,1-.2-.41h1a1.09,1.09,0,0,0-.82.41Zm-33-1.22a28.5,28.5,0,0,1-.82-3.28h1a15.4,15.4,0,0,0,.41,3.07.75.75,0,0,0-.62.21Zm32.4-.21V108h1a1.57,1.57,0,0,0-1,.41Zm77.49,0c-.41-.2-.62-.41-.82-.41.2-.82.41-1.64.62-2.25h1.22c0,.81-.2,2.25-1,2.66ZM182.64,108v-.41h.21V108Zm-13.53-.41c-1.84-.62-3.48-2.46-4.71-3.69-1.64-1-3.28-2-4.72-3.08A17.35,17.35,0,0,1,153.12,99c0-2.25,0-4.51.21-6.77,2.66-3.07,8.2-5.94,9.84-9.43,4.51-1.43,7.17-.41,10.66,1.64a5.52,5.52,0,0,1,1.84.21,7.4,7.4,0,0,0,1-8.82c0-1.43.82-2,1-3.28a12.4,12.4,0,0,1,2.87-.41,1.57,1.57,0,0,1,.41-1c-1.22.2-2.46.41-3.48.61a41,41,0,0,0-4.92-1,1,1,0,0,0-.41.82c.41.61,1,1.43,1.64,2.25H173a9.08,9.08,0,0,0-1.23-1.43h-1.85V73c.82.82,3.49,2.46,3.49,3.69h-.82c-.62-.82-1.23-1.43-1.64-2a3.92,3.92,0,0,0-1.64.41c1.43,1,3.28,2.46,3.89,4.31h-.82c0-2.26-7-5.74-9-7A22,22,0,0,1,157,71.14c0-1.23-1.85-2.26-2.67-2.87,0-.41,0-.62.21-.82,2.46,0,4.51,1.43,6.56,2.66,0-1-3.69-2.66-4.31-2.87a.73.73,0,0,1,.21-.61c-.41-.21-.62-.41-.82-.41a12.66,12.66,0,0,1,7.17,2c0-1-3.28-2-4.1-2.26v-.82a7.93,7.93,0,0,1,2.26-.2,5.6,5.6,0,0,0-1.23-1,17.17,17.17,0,0,1,6.15,2.87,2.85,2.85,0,0,0-.41,1.23h-1.23c0,2.46,3.48,1.44,4.92,1.23a1.06,1.06,0,0,1,.41-.82L172,69.7a6.5,6.5,0,0,1-.41-1.64,7.38,7.38,0,0,0,4.51,1.85c-1.84-1.64-3.48-3.28-5.12-4.92a11.1,11.1,0,0,0-1.64,1.23,2.54,2.54,0,0,0-.21,1.23c-.41-.21-.61-.41-.82-.41a1.52,1.52,0,0,0-1,.41C166,65.6,164.19,65,163,63.76a5.87,5.87,0,0,1,1.85-.41,1.59,1.59,0,0,1,.2-1c-.2-.2-.41-.41-.61-.41-.62.62-2.46.62-3.49.41a9.4,9.4,0,0,1-.2-2.25c.82.82,1.64.82,2.87,1l.61-1.23c0,.21.21.41.41.82v-.82c1,.41,1.85,2,2.46,2.67a2.85,2.85,0,0,0-1.23.41c1,.82,2,1.64,3.28,2.46a2.76,2.76,0,0,0-.61-.82,9.88,9.88,0,0,1,.61-1.44,22.18,22.18,0,0,1,3.9-.82,5.11,5.11,0,0,0,.41,1.44h-1.23v.82a12.29,12.29,0,0,1,2.87-.21l-1.23-.61a5.87,5.87,0,0,1,.41-1.85h.61a1.51,1.51,0,0,0,.21.82v-1a3,3,0,0,1,1.43-.21v1.64h-.61a15.58,15.58,0,0,0,.41,2.87c.61,1.23,1.43,2.46,2.25,3.9A10.13,10.13,0,0,1,181,69.5a18.67,18.67,0,0,1-1-2.26,28.23,28.23,0,0,1,4.1.21v.82a2.91,2.91,0,0,0-1.44.41,5.52,5.52,0,0,0,.21,1.84c3.48,2.26,3.48,4.92,5.33,6.77a5.92,5.92,0,0,1,.41-2.05c.21.2.41.61.82,1a3.1,3.1,0,0,1,.2-1.43c.62,0,.82.82,1,1.43V74.62h.82a17.8,17.8,0,0,0-1,3.49c-.2-.41-.41-.62-.41-.82,0,.61-1,1.23-1.43,1.43.41,2.87-.21,5.54,2.87,5.54-.62.2-1.23,1.23-1.85.62a17.36,17.36,0,0,1-6.56-.83c-6.56,0-7.17,1.44-4.71,7.18.2,3.07-.21,5.54,3.48,5.54-2.45,2-4.92,4.09-7.17,6.14-1.23,3.29-2.67,4.1-5.54,4.72Zm-29.11-.2a16.6,16.6,0,0,1-1.64-.62,10.22,10.22,0,0,1,2.46.2,1.07,1.07,0,0,0-.82.42Zm60.68,0a28.84,28.84,0,0,1-.4-3.9c-.21,1.23-.41,2.46-.62,3.69,0-2.25,0-4.51.21-6.56a15.14,15.14,0,0,1,.81,6.77Zm-24.19-.62a12.4,12.4,0,0,1-.82-1.64c1.23-2,2.05-3.28,4.11-4.31a10.81,10.81,0,0,0-2.06,2.26c0,.61.21,2.67-.41,2.67,0-.41.21-1.44-.41-1.44,0,.62.21,2.46-.41,2.46Zm9.64-1v-.41a.75.75,0,0,1,.61.2.73.73,0,0,0-.61.21Zm44.49,0c-.82-.82-.41-1.85-.21-2.88a1.61,1.61,0,0,1,1-.4v2.87a1,1,0,0,0-.82.41Zm-112.14-.21a15.66,15.66,0,0,1-.42-2.87h1c.21.82.41,1.64.62,2.67a2.64,2.64,0,0,0-1.23.2Zm28.49-1a2.33,2.33,0,0,1-.2-1l.82.82a.75.75,0,0,0-.62.21Zm24.4-.21a4.35,4.35,0,0,1,1-1.64h1a7.84,7.84,0,0,0-2,1.64Zm27.06,0c-.21-.21-.41-.41-.41-.62a10.2,10.2,0,0,1,.61-1.43,6.46,6.46,0,0,0-.2,2Zm-12.3-1a15.49,15.49,0,0,1-.82-2.25,2.91,2.91,0,0,1,1.43-.41v-2a7.89,7.89,0,0,1,.62,3.9,4.14,4.14,0,0,0-1.23.81Zm32.39,0a12.25,12.25,0,0,1-.21-2.66,4.13,4.13,0,0,1,1.65-.2,9.67,9.67,0,0,0-.21,2.45,3,3,0,0,0-1.23.41Zm-27.26-.61a22.32,22.32,0,0,1-.42-3.48h.62a2.68,2.68,0,0,0,.2,1.23c.21-.21.41-.42.62-.62a10,10,0,0,0-.41,2.46c-.21,0-.41.21-.61.41Zm-85.5-.41c-.2-1.23-.41-2.26-.61-3.28a3.88,3.88,0,0,1,1.43.21,12.34,12.34,0,0,0,.21,2.66,1.62,1.62,0,0,0-1,.41Zm60.89-.41-1.23-1.23a1.57,1.57,0,0,1,.82.2c1.44-.82,3.08-1.63,4.72-2.46a8.08,8.08,0,0,1-4.31,3.49Zm-32.8-.2v-.21h1.23v.21Zm11.89-.21c-.61-1.84-1.43-2.25-1-4.31,2.05.21,2.05,2.26,2.25,4.31Zm34.65-.82c.82-1.23,1.64-2.26,2.46-3.28a10.8,10.8,0,0,1,1.43.82,4.19,4.19,0,0,0-1.23.82c1-.21,2.06-.41,3.28-.62V99a49.55,49.55,0,0,0-5.94,1.64Zm-45.72-.2a.79.79,0,0,1-.2-.62,1.59,1.59,0,0,1,.82.2c-.21,0-.41.21-.62.42Zm-16.81-.21c-1,0-.82-2.46-.82-2.87h1a8.88,8.88,0,0,0,.42,2.05,2.73,2.73,0,0,0-.62.82Zm113.58-1V96.15a3.9,3.9,0,0,1,1.64-.21,15.5,15.5,0,0,0-.41,3.08,2.54,2.54,0,0,0-1.23.21ZM133.85,99V98a29.63,29.63,0,0,1,4.31.21,31.14,31.14,0,0,0-4.31.82Zm4.51-.62v-.2h.41v.2Zm53.3-.2c-.4-.21-.61-.41-.82-.41a1.57,1.57,0,0,1,1-.41c-.21.2-.21.41-.21.82ZM160.3,98a18.22,18.22,0,0,0-1.64-1c0-2.87.2-3.69,2.87-4.92,0,1.64-1.85,3.07-1.85,4.92a3.3,3.3,0,0,1,1,.41c-.21.2-.41.41-.41.61Zm58.83-.2a10.64,10.64,0,0,1,.21-2.67h1.23v2.46a3,3,0,0,0-1.44.21Zm-84.25-.21a11.57,11.57,0,0,0-1.64-.81h.82a18.63,18.63,0,0,1-.82-2.67,5.6,5.6,0,0,1,1.23-1c.82-2.25,1.64-4.3,2.46-6.35.41,1,1,1,.61,2a9.8,9.8,0,0,1,.62,1.44,13.86,13.86,0,0,0-1.64.61,2.85,2.85,0,0,1,1.23.41,4.65,4.65,0,0,0-1,.61c.21,0,.41.21.62.41a7.8,7.8,0,0,0-1,2.26c1,1-.41,1.85-.41,2.87a1.55,1.55,0,0,0-1,.2Zm5.12-.2v-.21h.82v.21Zm49.61-.21a37.51,37.51,0,0,1-2.25-3.68,2.54,2.54,0,0,0-1,2.45,2.91,2.91,0,0,0-1.43.42,3,3,0,0,1,.41-1.24,3.9,3.9,0,0,0-1.64.21,17.8,17.8,0,0,1,3.28-2c0-2-3.28-4.31-4.92-4.51a2.54,2.54,0,0,1-.21-1.23c1.23,0,2.05,1.23,2.87,1.84-.2-.61-1.64-2.46-1-3.07.41.41.82,1,1.44,1.64,0-.41,0-.62.2-.82a4.55,4.55,0,0,0,1,.61.73.73,0,0,1,.21-.61l2.26,2.25L190,88.15c.21.41.62.82,1,1.44-.41,0-.62,0-.82.2a16.31,16.31,0,0,0,1,2,3,3,0,0,1,.4-1.43c0,.61-.2,4.71-1.43,3.49a1.55,1.55,0,0,0-.82.81c-.82-2.87,0-5.33-3.49-5.33a24.91,24.91,0,0,0,1,2.87c.61,0,1.64,0,1,.62a37.81,37.81,0,0,0,1.64,4.3Zm1.23,0v-.81a1.08,1.08,0,0,1,.82-.42.74.74,0,0,0,.21.62,5.07,5.07,0,0,0-1,.61ZM190,95.94v-.61h1.24l-1.24.61Zm-84.67-.61c-.41-.21-.61-.41-.82-.41V92.25h1.23a16.27,16.27,0,0,0-.41,3.08Zm56.38,0v-.82h.82a1.6,1.6,0,0,0-.82.82Zm-44.89-.41c-.83,0-.42-2.46-.42-2.87h1a9.75,9.75,0,0,0,.21,2.46,1,1,0,0,0-.82.41Zm64.78,0c-.21-1-.41-1.85-.62-2.67h1.24c-.42-.82-.83-1.63-1.24-2.46.82,1,1.64,2.26,2.46,3.49a1.51,1.51,0,0,0-.82-.21V94.3a4.54,4.54,0,0,0-1,.62Zm11.68-.62V90.41c1,0,.62,2.66.62,3.28l-.62.61Zm-1.23-.81c0-.42-.2-2.47.62-1.65a13.94,13.94,0,0,0-.62,1.65Zm-1.43-.42v-.41h.2v.41Zm29.11-.61c-.82-.82-.41-1.84-.21-2.87h1.24a10.56,10.56,0,0,0-.21,2.66c-.41,0-.61,0-.82.21Zm12.1,0a19.82,19.82,0,0,1-.41-3.28,3,3,0,0,1,1.43-.21v3.28c-.41,0-.82,0-1,.21Zm-36.91-.62v-.41h.41v.41Zm-11.48-.41v-.61h.41v.61Zm-66.21-1.84c-1,0-.41-2.26-.41-2.87a2.6,2.6,0,0,1,1.22.2,10.32,10.32,0,0,0-.81,2.67ZM104.94,89a21.57,21.57,0,0,1-.2-3.48,5,5,0,0,1,1.43.41,12.32,12.32,0,0,0-.41,2.87c-.41,0-.61,0-.82.2Zm80.37-.2v-.41h.21v.41Zm18,0a.78.78,0,0,1,.2-.62c0,.21.21.41.42.62Zm-49.2-.41a.64.64,0,0,1-.21-.41h.82c-.2,0-.41.2-.61.41Zm33.41-.82v-.41H188v.41Zm5.13,0-.62-.62a7.43,7.43,0,0,1,.82-1.84,21.74,21.74,0,0,1,2.67,1,12.44,12.44,0,0,0-2.87,1.44Zm-37.52-.21a2.11,2.11,0,0,1,1-.82c-.21.21-.21.41-.21.82Zm-9.22-.2c0-1.23,0-2,1.43-1.44A4.79,4.79,0,0,0,146,87.13Zm73.18-.21a14.8,14.8,0,0,1-.2-2.87,2.54,2.54,0,0,1,1.23.21,8.92,8.92,0,0,0,.21,2.25,3,3,0,0,0-1.24.41Zm-65.8-.2-1.85-2.46a9.72,9.72,0,0,1,2.05-2.05h1.23a4.39,4.39,0,0,1-.82-1.23c.21-.21.41-.21.82-.21v-.61c-.41-.21-.61-.41-.82-.41a4.64,4.64,0,0,1,1-.62c-1.44-.61-1.44-1.64-2.26-2.66l.62-.62a13,13,0,0,0-1.64-.82,2.66,2.66,0,0,0,.2,1.23,8.52,8.52,0,0,0-1.84,1,5.23,5.23,0,0,0,.2,1.64c-3.69-.62-.61-5.13,1-6.36a1.55,1.55,0,0,1,1-.2,2.9,2.9,0,0,0,.82.61c0-.41,0-.61.21-.82,1.64,1,2,2,1.64,4.1a3.92,3.92,0,0,1,1.64-.41c0-2,.2-1.43,1-3.28a17.55,17.55,0,0,1,3.08.82c.82,2.46.82,2.26-1.44,2.87a23.15,23.15,0,0,1,3.69.41,6.12,6.12,0,0,1,4.1-1.64,11.84,11.84,0,0,0,.82,2.46,19,19,0,0,0,2.05,1.85,4.32,4.32,0,0,1-1-.62c-2.26,0-4.51-.41-6.56.62V77.7H160.5c0,2.25-.2,3.48-2.25,4.1a2.91,2.91,0,0,0-.41,1.43l1.23,1.23a4.82,4.82,0,0,0-1.44,1.44,15,15,0,0,1-.82-2.05,15.63,15.63,0,0,0-1.43,2.46c-1,0-1.44-1-2.46-1.43a5.88,5.88,0,0,0,.41,1.84Zm54.94-.21v-1h-.62c0-3.08-.82-4.31-3.48-5.12a4,4,0,0,0-1,.61l1.22.61c0,.62-1,.82-1.43,1V82h-1a18.28,18.28,0,0,1-1-1.63,2,2,0,0,1,.82-1,19.3,19.3,0,0,0-3.49.2c3.28-1.64,4.93-.61,8.61.21,1.24,1.23,1.44,4.1,2.06,5.94a2.9,2.9,0,0,0-.62.82Zm-40.8-.82c.21-1,.41-1.84.62-2.66h1c0,1-1,2-1.64,2.66Zm21.53,0c0-.2,0-.81.41-.41a.44.44,0,0,0-.41.41Zm42.23-.2c-.2-1.23-.41-2.26-.61-3.28h1.64a19.25,19.25,0,0,0,.2,3.28Zm-92.87-1A11.47,11.47,0,0,0,136.52,83l1.84.61v.82Zm6.56,0v-.41h.21v.41Zm49.21,0c-1.65-1.43-3.29-2.87-4.72-4.09,0-1.65,1.23-1.65,2.66-1.85.62,1.43,1.85,1.23,3.28,1.43,0,1.64-.81,2.67-.2,4.1a1.57,1.57,0,0,0-1,.41Zm-76.27-.41c-.82,0-.41-2-.41-2.46a4,4,0,0,1,1.64-.41c-.21.82-.41,1.64-.61,2.46-.21,0-.42.21-.62.41Zm69.7-.82a14.56,14.56,0,0,0-.61-1.64c-2.67-.61-3.9.41-6.36.62-.2-.41-.41-.62-.41-.82,1.85-1.85,1.64-6.15-.81-7a.78.78,0,0,1,.2-.62c.82.41,1.64.82,2.67,1.23,0,1.23,1,2,1.84,2.87a.75.75,0,0,0-.62.21,20.39,20.39,0,0,1,2.46,2c0-.41,0-.62.21-.82,1,1,2.46,2.87,1.43,3.89Zm-27.88-.61c1.64-1,4.51-2.67,6.56-2.67a2.53,2.53,0,0,0,.21,1.23c-2.26.41-4.51.82-6.77,1.44ZM139.39,82a2.76,2.76,0,0,1-.82-.61c.61,0,1.43,0,.82.61ZM174,82a.73.73,0,0,1,.21-.61c0,.2.2.41.41.61Zm-68.68-.2a16.27,16.27,0,0,1,.41-3.08,4,4,0,0,1,1.44.21,10.55,10.55,0,0,0-.41,2.46,2.91,2.91,0,0,0-1.44.41Zm50.44,0c-.21-.21-.41-.41-.41-.62.61,0,.82.21.41.62Zm62.12-.21c-.21-1-.41-1.84-.62-2.66a2.54,2.54,0,0,1,1.23-.21,12.94,12.94,0,0,0,.2,2.67c-.41,0-.61,0-.81.2Zm-56.59-.2v-.62c1.23-.61,3.49-2.25,4.72-1.64a34.26,34.26,0,0,0-4.72,2.26Zm41-.41v-.41h.2V81Zm-30.55-.41c0-.82.2-1,.82-.41a1.07,1.07,0,0,0-.82.41Zm-32.39-.2a2.53,2.53,0,0,1-1-2.06c1.23,0,1.44,1.64,1,2.06Zm8.81-.21V78.72h.62v1c-.21,0-.41.2-.62.41Zm35.67,0-1-1c.2-.2.41-.2.82-.2.41.41.61.82.2,1.23Zm13.74,0c0-.82-.41-2,.61-2-.2.61-.41,1.23-.61,2ZM221,79.75c-2.26-1.23-1.85-3.08-1.23-4.92a2.29,2.29,0,0,1,1,.2c-.21.82-.41,1.64-.62,2.46a2.9,2.9,0,0,1,.62.82H222c1.24-2.87,1.65-4.92,4.72-5.53.41.2.82.61,1.44,1,0,.82.2,3.28-1,3.28a9.75,9.75,0,0,1,.21-2.46,3,3,0,0,0-1.23-.41,31.65,31.65,0,0,0-2.26,4.51,12.15,12.15,0,0,0-2.87,1Zm9-.62c-.82-.82-1-2.87-.2-3.69,1.23,1.23.82,1.64,1.23,3.28a1.62,1.62,0,0,0-1,.41Zm-74-.2v-.21h.62v.21Zm40.39-.21v-.2h.41v.2Zm-77.08-.2a2.64,2.64,0,0,1-.82-.62c1.23-3.28,2.25-2.66,1.64.41-.41,0-.62,0-.82.21Zm19.88-1a1.57,1.57,0,0,1-.2-.82c.2,0,.41.21.82.41-.21,0-.41.21-.62.41Zm54.53,0a2.66,2.66,0,0,0-1.23-.2v-.82l1.23-.62v1.64Zm-19.06-.41c-.41-2.87.61-1.84,1.43-3.48a15.85,15.85,0,0,0-.2,3.07,3,3,0,0,0-1.23.41Zm41.82-.61c-1-1-.82-1.64-1-2.67a3.93,3.93,0,0,1,1.43.21,10.92,10.92,0,0,0,.41,2.25c-.41,0-.62,0-.82.21Zm-29.73-.62c-1-.82-2.05-1.64-2.87-2.25,1,0,2.87,1.23,2.87,2.25ZM107.61,75V72.16a3.88,3.88,0,0,1,1.43.21c0,1.43-.41,2.25-1.43,2.66Zm10.45-.2c-1-.82-6.15-5.33-6.15-6.56h10c-.82,1.64-2.25,1.64-3.9,1.43a10.82,10.82,0,0,0-1,2.67c.62.41,1.23.82,2,1.43a2.55,2.55,0,0,0-1,1Zm51.46-.41A20.19,20.19,0,0,0,166.45,73c.41-.2,3.48,1,3.07,1.44Zm-16.4-.21c-.41-.41-.82-.61-1-.82a2.18,2.18,0,0,1,1,.21v.61Zm41.62-.41c0-.41-.61-1.84.2-1.84a5.78,5.78,0,0,0-.2,1.84Zm23.17-.2-.62-1.85c2.46-1,5.13-2,7.79-3.07a13,13,0,0,0,.82,1.64c-2.66.61-6.15,1.43-8,3.28Zm-97-.41a2.66,2.66,0,0,1-.2-1.23l1.85-1.23c0,1.64-.41,1.84-1.65,2.46Zm34.24,0-1-1c.2,0,1.84-.82,1,1ZM146,72.37V72h.41v.41Zm41.61,0c-.2-.41-2-2.87-1.43-3.49a11.33,11.33,0,0,0-1.44-.82v-.82c1.23.82,2.46,1.64,3.9,2.67,1.23-.21,1.64.41,1.23,1.64h-1a4.85,4.85,0,0,0-2.26-2.26,17.63,17.63,0,0,0,1,3.08Zm40.39,0a22,22,0,0,1-.82-2.87h1A11.28,11.28,0,0,0,229,72a1.57,1.57,0,0,0-1,.41Zm-84.87-.21a.78.78,0,0,0-.62-.2,10.22,10.22,0,0,1,2.46.2Zm20.5-.2a9.8,9.8,0,0,1-1.44-.62,8.25,8.25,0,0,1,1.44-2.25,18.36,18.36,0,0,1,2,1c0,1.23-1,1.64-2,1.85Zm-47.77-.21c-.62-.82-1.23-1.43-1.64-2h2.46a1.51,1.51,0,0,0,.21.82,5.1,5.1,0,0,0-1,1.23Zm39.36,0a27.81,27.81,0,0,0-3.28-1,22.21,22.21,0,0,1,3.49.41.73.73,0,0,0-.21.61Zm35.26,0a3.92,3.92,0,0,1,.21-1.64h.62a4.1,4.1,0,0,0-.83,1.64Zm1,0v-.61c.2,0,.41.2.61.41a.75.75,0,0,0-.61.2Zm22.14-.61a8.58,8.58,0,0,1-1-1.85c1.44-1.43,2.06.21,2.06,1.64a1.53,1.53,0,0,0-1,.21Zm-54.74-.41c-1-.82-2.05-1.44-2.87-2,1,0,3.69,1.23,2.87,2Zm3.08-1.23a44,44,0,0,0-3.69-2.87c.2,0,4.71,1.84,3.69,2.87Zm-13.53-.21a2.76,2.76,0,0,1-.82-.61c.61-.21,1.43,0,.82.61Zm1.23-.41a9.08,9.08,0,0,0-1.23-1.43l1.23-.62v-.61a19.34,19.34,0,0,1,2.25,1l-2.46.62a7.14,7.14,0,0,1,1.85.82,4.08,4.08,0,0,0-1.64.2Zm-39.16-.2c-1.23,0,0-2.46,0-2.67a3.1,3.1,0,0,1,1.43-.2,3.59,3.59,0,0,1-1.43,2.87Zm13.74-.21c-.41-.2-.62-.41-.82-.41a7.36,7.36,0,0,1,1-2.25,2.66,2.66,0,0,1,1.23.2,15.63,15.63,0,0,0-1.43,2.46Zm90.41-.2c-.41-.62-.82-1.23-1-1.64a74.45,74.45,0,0,1,7-3.9v-.61a9.19,9.19,0,0,1-1.44-1.23c.21-.21.41-.21.83-.21A17.28,17.28,0,0,1,223.44,66a2.9,2.9,0,0,0-.82.62,14.84,14.84,0,0,1-.82-2.26,78,78,0,0,0-7.17,3.9Zm-50-.21-3.07-1.84c.82,0,3.07.61,3.07,1.84Zm-42.23-1.23c-2.46-1.23-4.71-2.46-7-3.69,0-3.89,5.13-6.35,6.15-1.64a47,47,0,0,1,4.72.82c-.21.21-.21.41-.21.82h-5.53v.62L123,65v1.43c-.21,0-.41.21-.62.41Zm42.23,0c-1-.61-2-1.23-2.87-1.64.82,0,3.49,1,2.87,1.64Zm14.15,0a15.14,15.14,0,0,1,.82-3.28c.41.62,1,1.44,1.64,2.26h-1.84a4,4,0,0,0-.62,1Zm11.89,0a2.73,2.73,0,0,1,.62-.82,1.57,1.57,0,0,0,.2.82Zm20.09-.2a11.28,11.28,0,0,1-.82-2.46c1.23,0,1.64,1.23,1.64,2.25-.41,0-.61,0-.82.21ZM224.87,66c-.4-.82-1.43-1.84-1-2.87,1.44,0,1.85,1,2.05,2.46a1.62,1.62,0,0,0-1,.41Zm-38.74-1a8.81,8.81,0,0,0-2-.41,7.93,7.93,0,0,1,.2-2.26c.41.41,1,.82,1.64,1.44v.61a9.88,9.88,0,0,1,1.44-.61c-.21.2-.21.61-.21,1-.41,0-.82,0-1,.21Zm-33.62-.21c-.62-.61-.21-.41,0-.61v.61Zm1.64,0a14.16,14.16,0,0,1-.21-2.87c.21,0,.41.21.82.41a1.09,1.09,0,0,1,.41-.82,12.9,12.9,0,0,1,1.44.82V61.5a6.46,6.46,0,0,1,2-.2,4.06,4.06,0,0,0,.2,1.43c-1.84.21-3.07,1.64-4.71,2.05Zm57.61-.2c-1.65-1.64,1.84-5.95-.82-5.95a13,13,0,0,0-1.64,1.85c-1,0-1-1-1.23-1.64,2-1.64,4.3-3.28,6.56-4.92,1.22,1.43,2.46,3.07,2.46,4.92-1,1-2.26,1-3.7,1.23a28.41,28.41,0,0,0-1,4.51Zm-84.47-.82a3.57,3.57,0,0,1-.41-1,11.66,11.66,0,0,1,1.23-1.64h.82a3,3,0,0,1-1.64,2.67Zm-7.79-.21A15.63,15.63,0,0,0,117,62.12c0-2,.82-2.26,2.67-2.26.61,1,.2,2.67-.21,3.69Zm63.14,0a3.54,3.54,0,0,0-1-.41v-.82a3,3,0,0,1,1.23.41c-.21.21-.21.41-.21.82Zm-5.33-.41a2.66,2.66,0,0,1-.2-1.23h2.26a1.53,1.53,0,0,0-.21,1c-.21-.21-.41-.41-.62-.41l-1.23.61Zm3.49,0a2.85,2.85,0,0,1-.41-1.23c.61,0,.61.82.41,1.23Zm-67.25-.61a2.76,2.76,0,0,0-.61-.82,17.6,17.6,0,0,1,1.23-2.05h1c0,1.84-.41,2.25-1.64,2.87Zm46.34,0a6.18,6.18,0,0,1-.41-1.64,18.22,18.22,0,0,0,1,1.64Zm47.35-.41c-.61-1-1.22-1.85-1.63-2.67a2.62,2.62,0,0,1,1.22-.2c.41.82.82,1.64,1.24,2.46a1.06,1.06,0,0,0-.83.41Zm-39.77-.21A9.08,9.08,0,0,1,166,60.68v-.82c.82,0,1.84,1.44,2.66,1.85a2.66,2.66,0,0,0-1.23.2ZM127.7,60.48a3.57,3.57,0,0,1-.41-1c1.44-.41,1.64-1.23,2-2.25-2.25-2.26-5.94,1.43-7.17-2.67a11.27,11.27,0,0,1,1.43-2.66,2.85,2.85,0,0,0-1.23-.41v-.82a15,15,0,0,1,2.46-1.44v1.23a2.47,2.47,0,0,0-1,1,3.36,3.36,0,0,1,1,.41v.82a2.91,2.91,0,0,0-1.43.41,3.9,3.9,0,0,0-.21,1.64c1.85.82,4.31.61,6.36.61a23.55,23.55,0,0,0,1,2.87A15.63,15.63,0,0,1,133,56.79V58a12.22,12.22,0,0,0-2.46,1,.75.75,0,0,1-.2-.61,12.88,12.88,0,0,0-2.67,2ZM221,60.07a3.61,3.61,0,0,1-1.23-2.67H221a20.38,20.38,0,0,0,1,2.26,1.54,1.54,0,0,0-1,.41Zm-6.76-1a13.06,13.06,0,0,0-1.65-.82v-1c.82-.41,1.85-.82,2.88-1.23.2.61.4,1.23.61,2.05a8.06,8.06,0,0,0-1.84,1Zm-10.87-.82c-1-1-1.85-1-1.23-2.46,1.43.21,1.43.82,2,1.44a2,2,0,0,0-.82,1Zm3.28,0-1.23-1.84c1.43-1.44-.62-2.67-1.43-3.49-1.23.21-2.26.41-3.29.62l-.61-.62c3.08-1,6.35-2,9.64-2.87-1,2.67-2.06,5.33-3.08,8.2Zm-37.93-.41V57h.41v.82Zm-50.84-.61c-1.44,0,.2-2.87,1.85-2.87v1.43a11.07,11.07,0,0,0-1.85,1.44ZM144.1,57c-.2-.2-.41-.41-.41-.61a18.48,18.48,0,0,1,2.05-1.23,2.76,2.76,0,0,0-.61-.82,5.87,5.87,0,0,0-1.85.41c-.61-2.26-3.28-4.1-4.1-6.15a14.41,14.41,0,0,1,1.64-.62c0-.41,0-.82.21-1-.21-.21-.41-.41-.62-.41a12.22,12.22,0,0,0-2.46,1c0-1.23,2.46-1.84,3.49-1.84.82,1.84,5.53,8.4,4.92,10.25a7.53,7.53,0,0,0-2.26,1Zm48.79-.41c-.61-.41-1-.82-1.43-1,0-1.85,1-1.85,2.25-2.46,1-2.46,2.26-4.92,3.49-7.38a24.16,24.16,0,0,1,2.87,1,10.88,10.88,0,0,0-2.26-.41A2.7,2.7,0,0,0,197,47c0,.82,1.22,1,1.84,1.23a1.59,1.59,0,0,0,.2.82,51.07,51.07,0,0,0-4.1,5.12h-2.05a9.88,9.88,0,0,0-.61,1.44,10.8,10.8,0,0,1,1.43.82c-.41,0-.61,0-.82.2Zm-57.19-1a9.8,9.8,0,0,0-.62-1.44c.82-.41,1.44-1.43,2.67-.82,0,.82-1.44,1.64-2.05,2.26Zm80.56-1a15.63,15.63,0,0,1-1.43-2.46c.21-.2.41-.41.62-.41.61.62,2.46,1.44,1.84,2.67a1.59,1.59,0,0,0-1,.2Zm-9.63-.61-1.85-1.23v-.62a17.55,17.55,0,0,1,3.08-.82c-.41.82-.82,1.64-1.23,2.67Zm4.31-4.31a8.76,8.76,0,0,1-1.44-1.23,2.54,2.54,0,0,1,.21-1.23,20.63,20.63,0,0,1,2,1,2.27,2.27,0,0,0,.2,1,1.57,1.57,0,0,0-1,.41Zm-21.12-.2a7.14,7.14,0,0,0-1.85-.82v-1a4,4,0,0,1,3.08,1,4.19,4.19,0,0,0-1.23.82Zm-43.26-.21a2.66,2.66,0,0,1-.2-1.23,7.43,7.43,0,0,1,1.84-.82,4,4,0,0,0,.21,1.44l-1.85.61Zm45.51-1A11.66,11.66,0,0,1,190.43,47a5.58,5.58,0,0,1,.21-1.85c-1.23-.61-2.26-1-3.28-1.43l-1.23,1.84a3,3,0,0,0-1.23-.41c1.64-1.43,4.71-5.94,7.17-5.94.21,2.87.41,5.94.62,9Zm-63.75-.62a5,5,0,0,1-.41-1.43,12,12,0,0,1,2.87-1,2.29,2.29,0,0,0,.2,1,11.08,11.08,0,0,0-2.66,1.43Zm56.17,0a16.39,16.39,0,0,0-2.25-.82v-1a15.82,15.82,0,0,1,2.87.41,9.07,9.07,0,0,0-.62,1.43Zm-32.39-.41a2.85,2.85,0,0,1-.41-1.23,12.89,12.89,0,0,1,2.87-.2v.61a11.84,11.84,0,0,0-2.46.82Zm-5.33-.2c-5.13-2.05-3.28-8.41,1.84-8.41-.82.21-1.43.41-2.05.62-3.48,3.48-.61,5.94,2.46,6.56a8.76,8.76,0,0,1,1.44-1.23,5.11,5.11,0,0,1-.41-1.44c-.41-.2-.62-.41-.82-.41a1.55,1.55,0,0,1,.2-1h1.44a16.62,16.62,0,0,0,.82,3.07A11.94,11.94,0,0,1,146.77,47Zm16-.41-1.23-.62c.61-.2,1.23-.41,2.05-.61v.82a1,1,0,0,0-.82.41Zm15-.62a12.4,12.4,0,0,0-1.64-.82c0-.41,0-.82.21-1a20.53,20.53,0,0,1,2.87.82c0,.61-1,.82-1.44,1Zm-19.88-.2V44.49a10.56,10.56,0,0,1,2.66-.21v.82c-1,.21-1.84.41-2.66.62ZM164,45.1a3.88,3.88,0,0,1-.21-1.43h2.87a3,3,0,0,0-.41,1.23,7.82,7.82,0,0,0-2.25.2Zm6.56,0c-.62,0-.62-.82-.62-1.43h2.87V44.9a7.82,7.82,0,0,0-2.25.2Zm-15.79-.61c-.61-2.67-1.23-5.33-1.64-7.79,2.26-.21,5.13-1.64,7,.2a5.58,5.58,0,0,0,.21,1.85L159.07,40l2.46,3.69c-1.64,0-4.72-3.9-5.54-2.26a14.64,14.64,0,0,0,.41,2.67,3.81,3.81,0,0,0-1.64.41Zm27.06,0a4.32,4.32,0,0,1-1-.62c.41-2.46,1-4.92,1.64-7.38,4.51.41.2,4.51.2,8Zm8.41-.62L189,43.26V42a7.08,7.08,0,0,1,1.84-.82c-.2.82-.41,1.64-.61,2.66Zm-14.56-.41a10.2,10.2,0,0,1-1.43-.61c.2-2.26.61-4.51,1-6.77a10.56,10.56,0,0,0-2.66.21,1.57,1.57,0,0,1,.41-1l6.15.62v1.43a15,15,0,0,0-2-.82c-.41,2.26-.62,4.51-.82,6.77a.78.78,0,0,0-.62.2Zm-11.48-.2c-.2-.21-.41-.41-.41-.41,1-2.67,2.05-5.33,3.08-7.79,1.64,0,4.3,6.15,4.51,8h-1.64a21.48,21.48,0,0,1-1-2.25,14.16,14.16,0,0,0-2.87-.21,11.84,11.84,0,0,0-.82,2.46c-.41,0-.61,0-.82.21Zm-21.93-3.08c-1,0-.21-1.64-.21-1.84a6,6,0,0,1,2-.41v1l-1.84,1.23Zm13.53,0c-.21-1.23-.41-2.25-.62-3.28a23.46,23.46,0,0,1,3.49.41c0,2-1.44,2.26-2.87,2.87Zm38.75-.2a3.36,3.36,0,0,1-2.06-2,20.15,20.15,0,0,1,2.87.82,2.18,2.18,0,0,0,.21,1c-.41,0-.82,0-1,.21Zm-28.09-.21c.2-.82.41-1.43.61-2.05a18.48,18.48,0,0,1,1.23,2.05Zm-18-2.25a4,4,0,0,1-.21-1.44c.82-.2,1.85-.41,2.87-.61a2.18,2.18,0,0,0,.21,1,12,12,0,0,0-2.87,1Zm38.74-.21a7.43,7.43,0,0,0-1.84-.82,2.27,2.27,0,0,1-.2-1,22.22,22.22,0,0,1,3.48.41v1.43Zm-31.57-1.64a3,3,0,0,1-.41-1.23c1-.2,2.26-.41,3.49-.61v1a17.55,17.55,0,0,0-3.08.82Zm24-.2-1.23-.62a2.18,2.18,0,0,1-.21-1,19.19,19.19,0,0,1,3.28.2v1.23a5.52,5.52,0,0,0-1.84.21ZM163,34.65a4.13,4.13,0,0,1-.2-1.44,15.85,15.85,0,0,1,3.07-.2,3.65,3.65,0,0,0,.41,1c-1.23.21-2.25.41-3.28.62Zm9.84,0a11.28,11.28,0,0,0-2.46-.82c0-1,2.67-.62,3.49-.62a3.72,3.72,0,0,0-1,1.44Z" transform="translate(0 0)"/><path class="cls-1" d="M71.32,48.18c-2-3.28-11.68-15-11.68-17.63,3.69,0,8.61,3.89,12.3,5.33.2-4.51.41-8.82.61-13.12,1.85,0,9.64,14.76,11.89,17.42,0,1-2.46,2-3.28,2.46-2-3.07-4.1-6.15-6.15-9-.2,2.26-.41,4.72-.41,7.18L69.07,39c1.84,2.87,8.2,7.79,2.25,9.23Zm202.14-.41c-.82-.62-1.43-1-2-1.44,1.64-2.46,3.28-4.92,5.13-7.38a7.82,7.82,0,0,1,.2-2.25,17.77,17.77,0,0,1,3.49-.41,13.86,13.86,0,0,1,.61,1.64,16.72,16.72,0,0,1,3.08.82,7.53,7.53,0,0,0,.21,2,3.17,3.17,0,0,1-2.67,1,11.66,11.66,0,0,0-1.23-1.64c-2.67,0-4.92,6-5.74,7.59ZM249.89,45.1c-1.23-.61-2.26-1.23-3.28-1.64,0-.41,0-.61.2-.82a41.11,41.11,0,0,1,4.72.41,8.14,8.14,0,0,0,4.71-5.33c-1.84-.82-4.92-2-4.1-4.71,1.23-2.67,2.46-5.33,3.69-7.79h3.28c0,3.69-4.3,6.56-4.3,10.45h2.46c2.25-1,3.69-5.74,4.51-8,1.84,0,4.1-1,3.07,2.05-2.87,4.1-5.53,8.4-8.2,12.71a28.53,28.53,0,0,0-3.07,2.25,23.15,23.15,0,0,0-3.69.41Zm17.22-1.23c-3.28-2-4.72-4.1-3.49-8.61,2.87-2.87,4.31-4.71,8.82-4.1A36.58,36.58,0,0,1,274.9,34c-.41,1.64-.82,3.49-1.23,5.33-2.05,0-5.33-1.64-7-2.46-1,1-.82,1.85-1,3.28a8.76,8.76,0,0,1,1.23,1.44h4.92v.82a32,32,0,0,0-4.71,1.43ZM87.72,38.75c-4.3-2-7.79-4.92-6.35-10.46,3.48-3.48,6.56-2.87,10,.62,0,1.84-3.89,3.69-5.53,4.3a1.53,1.53,0,0,0-.21,1C87.93,36.9,91.41,36.9,92,32.8h1c0,3.9-1.84,5.13-5.33,6ZM270.59,36.9c-1.23-.61-2.25-1-2.87-2.25,1.44-1,2.46-1,4.1-1.44,1,1,0,3.28-1.23,3.69Zm-21.11-2c-.62-.41-1-.82-1.44-1a9,9,0,0,1-6.35-3.08c0-3.48.61-5.33,4.1-6.15a31.27,31.27,0,0,1,4.3.41,4,4,0,0,1,.41-1.64c-1-1-2.87-.61-4.1-.82,0-3.48,4.92-1.23,6.56-.41.21.82.41,1.64.62,2.67-1.23,2.46-3.9,5.74-3.9,8.61.21,0,.41.2.62.41a2,2,0,0,0-.82,1ZM97.36,34.24c-2.67-1.23-4.51-6.36-6-8.82a6.19,6.19,0,0,0-2,.21A47.55,47.55,0,0,1,91,19.89a22.26,22.26,0,0,0,2,2.46H94.9v1c-.21,0-.41.21-.62.41,1.23,2.46,2.67,5.13,4.11,7.79h2.87a4.68,4.68,0,0,1-3.9,2.67Zm37.93-1.64c-1.44-.62-2.67-1.23-3.9-1.85a1.57,1.57,0,0,1,.41-1,49.08,49.08,0,0,1,5.33.41c3.28-2.05,3.69-3.69,2.26-8-1.64.82-3.49.62-5.33.82-4.93-1.23-5.74-5.94-7.59-10,0-9,3.9-9.22,11.07-9.84.21.82.41,1.64.62,2.67C135.7,4.92,132.42,3.89,131,7c0,5.33-.41,13.32,6.56,13.74,2.87-2.87-1.23-6,0-8.61a10,10,0,0,1,2.67-.82c1.43,5.12,4.3,12.91,2.25,18.24-2.25,2.26-4.3,2.67-7.17,3.08Zm-32.81-.21c-1.43-3.07-2.87-5.94-4.3-8.81a2.19,2.19,0,0,0-1-.21,10.55,10.55,0,0,1,.41-2.46c2.67,0,4.1-2.05,6.77-1.43,1.84,2.87-1.23,2.66-2.87,2.66,0,2.46,2.67,6.77,3.89,8.82a12.82,12.82,0,0,0-2.87,1.43Zm-18.24-.2c-1.64-4.1-.21-4.92,3.07-3.28a6.6,6.6,0,0,0,.41,1.64,17.7,17.7,0,0,0-3.48,1.64Zm161.55,0c-2.67-2.67-.62-5.13,2.46-5.33,1.23,1.23-1.64,4.51-2.46,5.33Zm-55.15-.62c-2-1-7.38-2.46-6.36-5.53a7.29,7.29,0,0,1,2.26-.82c0,4.1,5.12,5.33,8.4,4.51,3.08-2.26,3.49-5.54,4.31-8.82-2.05,0-4.71,0-6.15-1.43,0-3.49.2-7,.41-10.46,1-.41,1.23-1,2.87-1a3.3,3.3,0,0,0,.41,1c-.41,3.28-.82,6.56-1,9.84.82.21,1.64.41,2.67.62,2.66-2.67.82-6.57,2.46-9.85a7.53,7.53,0,0,1,2.26-.41c.2.21.4.41.82.82,0,4.52-1.44,15.79-5.13,19.48a29.77,29.77,0,0,0-3.69,1.64,31.34,31.34,0,0,0-4.51.41Zm47.56-.82c-1-.41-2-.82-2.87-1.23,1-3.28,2-6.35,3.28-9.43-1,.62-5.74,4.31-7,3.08a56.38,56.38,0,0,1-1.43-5.54c-1,3.08-2.05,6.36-3.08,9.64-2.26-.41-2.87-.62-3.48-2.05.4-.62.82-1.23,1.22-1.85C226.93,18,229,12.71,231.23,7.58h1c.82,3.49,1.64,7,2.46,10.67,2.46,0,9.63-5.74,11.48-6.77-2.46,6.36-4.92,12.71-7.18,19.07-.41,0-.61,0-.82.2ZM111.71,28.91c-1.23-.82-2.46-1.44-3.49-2.05C105.15,21.32,104.74,16,112.94,16c3.9,1.85,5.74,4.92,4.92,9.84a18.48,18.48,0,0,0-1.23,2.05,43.06,43.06,0,0,0-4.92,1Zm1.43-1.44c-2.25-1.64-6.35-6.76-3.69-9.43h2.46c2.06,2.05,5.13,6.56,2.47,9.23a2.7,2.7,0,0,0-1.24.2Zm99-3.89c-3.49-1.23-.21-8,0-10.87a5.26,5.26,0,0,0-1.65-.2c-2.66,2.66-1.84,7.17-3.48,9.84a9,9,0,0,0-2.26-.21c.42-3.89,1-7.79,1.64-11.68a10.06,10.06,0,0,1,2.67-.83c0,.21.21.41.41.83,4.92.41,5.95.41,5.33,5.74-.61,2.25-1,4.71-1.44,7.17a2.49,2.49,0,0,0-1.22.21Zm-63.56-2.46c-4.3-1.44-5.12-6.16-4.3-10.25a20.24,20.24,0,0,1,3.28-2.67c2.46,0,4.1-.21,6.15,1.84,1,3.49,1.43,7.59-1.23,10.25a22.17,22.17,0,0,0-3.9.83Zm10.87-1.23c-5.74-3.69-.82-12.72-4.31-17.84,1-1.23,1.44-1.64,3.08-1.64,2.05,4.1,1.43,11.89,1.64,16.61.41.61,1,1.23,1.64,2.05a6,6,0,0,0-2.05.82Zm7.58,0c-6.76-3.08-7.58-11.28.41-13.13a25.62,25.62,0,0,1,3.9.21,11.66,11.66,0,0,0-.82-5.33C171.37,0,171.78.41,173.21,0c2.67,2.67,1.23,13.33,1.23,17.22.41.21.82.62,1.44,1a1,1,0,0,0-.41.82,15.5,15.5,0,0,0-3.08-.41c-1.84.41-3.69.82-5.33,1.23Zm17.84,0c-1-1-3.69-.62-5.12-.41a18.21,18.21,0,0,1-2.06-1.85c-.41-3.28-.82-6.56-1-9.84.82-.82,1.84-.62,2.87-.62,1.64,2.26.61,7.59.61,10.26.21,0,.41.2.82.41l1.24-.62V8c1-.41,1.22-.82,2.66-.82a9,9,0,0,0,1,1.85q-.3,4.31-.61,8.61c3.49,0,4.71-6.76,2.05-8V8.4c.61-.2,1.44-.41,2.25-.61.41.82,1,1.64,1.65,2.67,0,4.5-2.06,8.4-6.36,9.43Zm-35.26-.21c-3.49-2.25-3.49-4.92-2.87-9,2.25-2.26,3.89-.62,4.92,1.64.2,2.66,1,6.15-2.05,7.38Zm18.65-1.43C164.6,16.4,165,15,165,10.87c1.23-2.47,2.67-2.47,5.33-2.47,1.44,1.44,1,6.36,1,8.62l-3.08,1.23Z" transform="translate(0 0)"/><path class="cls-1" d="M73.46,159.54a6.79,6.79,0,1,0,6.8-6.72,6.75,6.75,0,0,0-6.8,6.72Zm1.22,0a5.57,5.57,0,1,1,5.58,5.79,5.56,5.56,0,0,1-5.58-5.79Zm2.95,4h1.23v-3.39h1.3l2.14,3.39h1.32L81.36,160a2,2,0,0,0,2.08-2.15c0-1.51-.88-2.25-2.76-2.25H77.63v7.88Zm1.23-6.89h1.62c.83,0,1.73.16,1.73,1.21,0,1.25-1,1.3-2.07,1.3H78.86v-2.51Z" transform="translate(0 0)"/><polygon class="cls-1" points="29.33 86.84 21.59 86.84 21.59 88.92 24.25 88.92 24.25 97.33 26.7 97.33 26.7 88.92 29.33 88.92 29.33 86.84 29.33 86.84"/><path class="cls-1" d="M34.13,93.18h1.79l1.6,4.15h2.72L38.3,92.69A2.83,2.83,0,0,0,40.12,90a3.13,3.13,0,0,0-1.33-2.62,4.8,4.8,0,0,0-2.69-.53H31.68V97.33h2.45V93.18Zm0-4.48h1.28a3.26,3.26,0,0,1,1.58.2A1.32,1.32,0,0,1,37.58,90,1.39,1.39,0,0,1,37,91.16a2.91,2.91,0,0,1-1.5.22H34.13V88.7Z" transform="translate(0 0)"/><path class="cls-1" d="M48.12,86.84H45.27L41.91,97.33h2.15l.66-2.16h3.4l.64,2.16H51.4L48.12,86.84Zm-2.8,6.4,1.11-3.68,1.12,3.68Z" transform="translate(0 0)"/><path class="cls-1" d="M53.56,86.84V97.33H57a4.73,4.73,0,0,0,3.81-1.46,5.68,5.68,0,0,0,1.36-3.82,5.4,5.4,0,0,0-1.62-4c-1.15-1.09-2.44-1.18-4-1.18ZM56,88.76h.84a2.22,2.22,0,0,1,2.06.85A4,4,0,0,1,59.66,92a4.42,4.42,0,0,1-.58,2.27,2.26,2.26,0,0,1-2.25,1.11H56V88.76Z" transform="translate(0 0)"/><polygon class="cls-1" points="72.21 88.87 72.21 86.84 64.72 86.84 64.72 97.33 72.21 97.33 72.21 95.29 67.17 95.29 67.17 92.97 71.14 92.97 71.14 91 67.17 91 67.17 88.87 72.21 88.87 72.21 88.87"/><polygon class="cls-1" points="272.93 88.78 272.99 88.78 272.99 97.33 275.44 97.33 275.44 86.84 271.6 86.84 269.67 93.12 267.84 86.84 264 86.84 264 97.33 266.07 97.33 266.07 88.78 266.1 88.78 268.65 97.33 270.33 97.33 272.93 88.78 272.93 88.78"/><path class="cls-1" d="M283.83,86.84H281l-3.36,10.49h2.15l.66-2.16h3.39l.64,2.16h2.65l-3.29-10.49Zm-2.8,6.4,1.12-3.68,1.12,3.68Z" transform="translate(0 0)"/><path class="cls-1" d="M291.8,93.18h1.78l1.61,4.15h2.72L296,92.69a2.83,2.83,0,0,0,1.82-2.7,3.16,3.16,0,0,0-1.33-2.62,4.8,4.8,0,0,0-2.69-.53h-4.42V97.33h2.45V93.18Zm0-4.48h1.28a3.26,3.26,0,0,1,1.58.2,1.32,1.32,0,0,1,.59,1.07,1.39,1.39,0,0,1-.61,1.19,2.93,2.93,0,0,1-1.5.22H291.8V88.7Z" transform="translate(0 0)"/><polygon class="cls-1" points="302.86 86.84 300.48 86.84 300.48 97.33 302.86 97.33 302.86 94.91 304.35 92.78 306.43 97.33 309.13 97.33 305.98 90.58 308.51 86.84 306.15 86.84 302.86 91.78 302.86 86.84 302.86 86.84"/></svg>