<svg id="Layer_1" data-name="Layer 1" xmlns="http://www.w3.org/2000/svg" viewBox="0 0 168.5 115.2"><defs><style>.cls-1{fill:#ed1c24;fill-rule:evenodd;}</style></defs><title>155461-Mtv</title><path class="cls-1" d="M0,115.2V0H62.9L74.3,11.4,85.25,0H139.8L150,10.22V21.77l4.76-4.18c2.3-1.75,4.32-2.61,6-2.61a6.63,6.63,0,0,1,5.57,2.85c1.42,1.9,2.11,4.59,2.11,8.09a8.16,8.16,0,0,1-1.7,4.15,33.21,33.21,0,0,1-4.08,4A28.48,28.48,0,0,0,159,37.73c-1.23,1.58-2.79,3.48-4.68,5.66s-3.36,3.94-4.42,5.31v57.43l-9.62,9.07h-55v-40L73.85,85.54,63.34,78.05V105.7l-10.06,9.5ZM53.28,71v39.72l6.48-6.34V75.62L53.28,71Zm87-7.23v47.69l6.48-6.5V53.86l-6.48,9.93Zm0-59.18V34.85l6.62-9.51V11.26l-6.62-6.65Zm-31.8,41.33-1.18,2.16a7.74,7.74,0,0,0-1,3.88,11.94,11.94,0,0,0,1.11,4.9,65.65,65.65,0,0,0,3.76,6.91c1.8,2.91,3.15,5.23,4.06,7A19,19,0,0,1,117.07,76q1.77,14,7.49,14a8,8,0,0,0,1.58-.29,2.4,2.4,0,0,0,1.88-.77,5,5,0,0,0,1-2,17.57,17.57,0,0,0,.53-2.76c.1-1,.19-2,.29-3.1A15.69,15.69,0,0,1,131.71,76a16.6,16.6,0,0,0,1.78-4c2.3-4.63,4.1-8,5.37-10.18s3.27-5.3,6-9.4a30.23,30.23,0,0,1,2.16-3.8c.62-.84,1.58-2.08,2.9-3.72s2.47-3.16,3.41-4.58a33.1,33.1,0,0,1,5.21-5.66,35.43,35.43,0,0,0,5.47-6,12,12,0,0,0,1.73-6.77,4.93,4.93,0,0,0-1.35-3.14,4.37,4.37,0,0,0-3.57-1.61c-2.23.46-5,2.5-8.19,6.14a112.56,112.56,0,0,0-8.85,11.52c-2.67,4-5.38,8.26-8.14,12.7a26.76,26.76,0,0,0-2,5.33,40.1,40.1,0,0,1-2,5.47,14.09,14.09,0,0,0-2.09,3.53A16.22,16.22,0,0,1,126.91,66,5.21,5.21,0,0,1,123,67.39a12.16,12.16,0,0,1-2.88-5.54c-.68-2.4-1.44-5.69-2.31-9.89s-1.56-6.31-2-6.43a6.07,6.07,0,0,0-3.86-1.44,4.18,4.18,0,0,0-3.43,1.85Zm-29.55,0a30.38,30.38,0,0,1-3,2.9,36.75,36.75,0,0,1-4.2,2.81c-1.9,1.15-3,1.82-3.36,2.06a6.7,6.7,0,0,0-2,4.9A2.93,2.93,0,0,0,68,61.49a4.1,4.1,0,0,0,1.73.26c1.82,0,3.93-1.17,6.33-3.57,1.8-1.9,3.51-3.68,5.14-5.31a28.94,28.94,0,0,1,5-4.13A15.56,15.56,0,0,1,92,46.51c0,.07.33,1.32,1,3.75A22.84,22.84,0,0,1,94,56c0,3.19.07,6.41.22,9.6s.21,5.16.21,5.93a89.54,89.54,0,0,1-1,10.8,28.85,28.85,0,0,0-.6,4.46,24.09,24.09,0,0,0,1.44,6.91,18.94,18.94,0,0,1,.48,3,10.2,10.2,0,0,0,.65,3,1.6,1.6,0,0,0,1.61,1,3.9,3.9,0,0,0,1.58.45c1.46,0,2.64-1.1,3.48-3.29a22.55,22.55,0,0,0,1.27-8.11,42.09,42.09,0,0,1-1.32-10.22V74.18c.41-6,.6-9.91.6-11.68a19.08,19.08,0,0,0-.14-2.88,47.71,47.71,0,0,0-1.11-5.19,24.09,24.09,0,0,1-.91-5.45,10.22,10.22,0,0,1,1.71-5.49q4.35-8.87,20.9-12.51,3.13-1.57,3.14-3.91c0-1.92-1.84-2.88-5.59-2.88a11.92,11.92,0,0,0-4.87.94,36.74,36.74,0,0,0-5.23,2.9,48.85,48.85,0,0,1-5.26,3,12.54,12.54,0,0,1-4.68,1.22c-1.41.07-2.69.12-3.77.19a7.83,7.83,0,0,0-2.9.67,7.64,7.64,0,0,0-2.59,2.24A23.68,23.68,0,0,0,88.54,40c-.12.53-1.54,1.37-4.18,2.5a16.09,16.09,0,0,0-5.45,3.41Z"/></svg>