<?xml version="1.0" encoding="utf-8"?>
<!-- Generator: Adobe Illustrator 22.1.0, SVG Export Plug-In . SVG Version: 6.00 Build 0)  -->
<svg version="1.1" id="图层_1" xmlns="http://www.w3.org/2000/svg" xmlns:xlink="http://www.w3.org/1999/xlink" x="0px" y="0px"
	 viewBox="0 0 643.5 266.5" style="enable-background:new 0 0 643.5 266.5;" xml:space="preserve">
<style type="text/css">
	.st0{fill-rule:evenodd;clip-rule:evenodd;fill:#6264A4;}
	.st1{fill-rule:evenodd;clip-rule:evenodd;fill:#BD3354;}
	.st2{fill-rule:evenodd;clip-rule:evenodd;fill:#2586C0;}
	.st3{fill-rule:evenodd;clip-rule:evenodd;fill:#EA7038;}
	.st4{fill-rule:evenodd;clip-rule:evenodd;fill:#3BAE57;}
	.st5{fill-rule:evenodd;clip-rule:evenodd;fill:#F2AB3A;}
	.st6{fill:#000100;}
	.st7{fill-rule:evenodd;clip-rule:evenodd;fill:#000100;}
</style>
<g>
	<path class="st0" d="M207.5,116.7c1,2,0.4,4.6-0.6,6.4l-8,18.1l-0.1,0.1l-2.9-18.3c-0.2-1.8,1.7-2.5,2.8-3.4c0-0.3-0.3-0.2-0.5-0.4
		l-2.7,0l-0.1-0.1c0-2.3,1.2-4.4,3.3-5.5c2.2-1.2,5.2-0.9,7.1,0.7C206.5,115,207.1,115.8,207.5,116.7"/>
	<path class="st1" d="M192.7,116.1c0.7,1.2,1,2.6,0.8,4.1l-3.3,21c0,0,0,0.1,0,0.1l-0.8-1.7l-8.2-18.3c-0.8-2.4-0.1-4.8,1.7-6.5
		c1.7-1.8,4.6-2.2,6.8-1.3C190.9,114,192,114.9,192.7,116.1"/>
	<path class="st2" d="M219.4,124.9c1.1,1.9,0.9,4.7-0.4,6.5c-0.8,1.2-2,1.8-3.1,2.6l-17,11.7h0l0.2-0.6l9-20.3
		c1.4-2.4,3.9-3.6,6.6-3.2C216.6,121.9,218.5,123.1,219.4,124.9"/>
	<path class="st3" d="M180.8,124.8l9.4,20.9H190l-18.9-13c-1.9-1.6-2.7-4-2.1-6.5c0.5-1.8,2-3.6,3.8-4.2
		C175.8,120.8,179.2,122,180.8,124.8"/>
	<path class="st4" d="M224.3,139.7c0.9,2,0.6,4.7-0.8,6.4c-1.3,1.6-3.1,2.5-5.2,2.5l-20.2,0l16.9-11.8c1.6-1.1,4.2-1.3,6-0.4
		C222.4,136.9,223.7,138.3,224.3,139.7"/>
	<path class="st5" d="M164.6,139.7c-0.9,2-0.6,4.7,0.8,6.4c1.3,1.6,3.1,2.5,5.2,2.5l20.2,0l-16.9-11.8c-1.6-1.1-4.2-1.3-5.9-0.4
		C166.6,136.9,165.2,138.3,164.6,139.7"/>
	<path class="st6" d="M16.5,118c0-0.6-0.2-1.1-1.9-1.2V116h16v0.8c-1.5,0.1-1.9,0.5-1.9,0.9c0,0.7,11.5,13,16.2,18.1V118
		c0-0.8-0.5-1.1-1.4-1.2V116h12.2v0.8c-1.7,0.1-1.9,0.6-1.9,1.2v31c0,0.6,0.2,1.1,1.9,1.2v0.8H43.1v-0.8c1.2,0,1.5-0.3,1.5-0.7
		c0-0.9-1.7-1.7-19.2-21.4V149c0,0.6,0.2,1.1,1.9,1.2v0.8H14.6v-0.8c1.7-0.1,1.9-0.6,1.9-1.2V118z"/>
	<path class="st6" d="M64.7,118c0-0.6-0.2-1.1-1.9-1.2V116h25.4c7.2,0,12.5,2.7,12.5,9.2c0,4-2.7,6.5-6.4,7.3v0.1
		c4.5,1.2,7.7,3.6,7.7,8.5c0,5.3-4,9.9-13.4,9.9H62.8v-0.8c1.7-0.1,1.9-0.6,1.9-1.2V118z M74.6,129.2h9.1c5.7,0,7.2-0.4,7.2-3.1
		c0-2.7-1.5-3.1-7.2-3.1h-9.1V129.2z M74.6,143.9H86c4.7,0,6.5-1.1,6.5-4s-1.9-4-6.5-4H74.6V143.9z"/>
	<path class="st6" d="M140.3,128.9l-0.7-0.5c0.1-0.3,0.1-0.5,0.1-1c0-1.3-5.1-3.1-10.8-3.1c-5.4,0-12.4,2.3-12.4,9.1
		c0,6.8,7,9.1,12.4,9.1c2.3,0,11.2-1.8,11.2-3.7c0-0.4-0.3-0.7-0.4-1l0.7-0.5l6.9,10.4l-0.8,0.5c-0.2-0.5-0.5-0.5-0.9-0.5
		c-1.3,0-7.5,3.6-17.4,3.6c-10.7,0-22-6-22-17.9c0-11.9,11.3-17.9,22-17.9c5.3,0,9.1,0.7,11.8,1.4c2.6,0.7,3.9,1.3,4.6,1.3
		c0.4,0,0.7-0.2,1-0.5l0.7,0.2L140.3,128.9z"/>
	<path class="st6" d="M262.6,118c0-0.6-0.2-1.1-1.9-1.2V116h13.7v0.8c-1.7,0.1-1.9,0.6-1.9,1.2v17.8c0,11.7-8.2,15.6-18.4,15.6
		c-10.2,0-18.4-3.9-18.4-15.6V118c0-0.6-0.2-1.1-1.9-1.2V116h13.7v0.8c-1.7,0.1-1.9,0.6-1.9,1.2v17.8c0,5.1,3.1,7.2,8.4,7.2
		c5.3,0,8.4-2.1,8.4-7.2V118z"/>
	<path class="st6" d="M287.4,118c0-0.6-0.2-1.1-1.9-1.2V116h16v0.8c-1.5,0.1-1.9,0.5-1.9,0.9c0,0.7,11.5,13,16.2,18.1V118
		c0-0.8-0.5-1.1-1.4-1.2V116h12.2v0.8c-1.7,0.1-1.9,0.6-1.9,1.2v31c0,0.6,0.2,1.1,1.9,1.2v0.8H314v-0.8c1.2,0,1.5-0.3,1.5-0.7
		c0-0.9-1.7-1.7-19.2-21.4V149c0,0.6,0.2,1.1,1.9,1.2v0.8h-12.6v-0.8c1.7-0.1,1.9-0.6,1.9-1.2V118z"/>
	<path class="st6" d="M338.1,151v-0.8c1.7-0.1,1.9-0.6,1.9-1.2v-31c0-0.6-0.2-1.1-1.9-1.2V116h13.7v0.8c-1.7,0.1-1.9,0.6-1.9,1.2v31
		c0,0.6,0.2,1.1,1.9,1.2v0.8H338.1z"/>
	<path class="st6" d="M374.8,151v-0.8c0.8-0.1,1-0.3,1-0.6c0-0.6-11.9-27.5-13.4-31c-0.6-1.5-0.9-1.8-1.5-1.9V116h13.6v0.8
		c-1.1,0.1-1.3,0.3-1.3,0.8c0,0.5,1,2.1,9.3,20.2c7.9-17.6,9-19.5,9-20.3c0-0.5-0.2-0.7-1-0.7V116h11.5v0.8c-0.5,0.1-0.8,0.3-1,0.9
		c-0.7,2.1-13.4,31-13.4,31.9c0,0.3,0.3,0.6,0.9,0.6v0.9H374.8z"/>
	<path class="st6" d="M436,138.2h-0.8c-0.2-0.9-0.7-1.5-2-1.5h-12.4v6.2h21.4c0.7,0,1-0.3,1.2-2h0.8v11.6h-0.8
		c-0.2-1.1-0.5-1.5-1.2-1.5H409v-0.8c1.7-0.1,1.9-0.6,1.9-1.2v-31c0-0.6-0.2-1.1-1.9-1.2V116h33.2c0.7,0,1-0.3,1.2-1.9h0.8v11.6
		h-0.8c-0.2-1.5-0.5-1.9-1.2-1.9h-21.4v5.5h12.4c1.3,0,1.8-0.7,2-1.5h0.8V138.2z"/>
	<path class="st6" d="M466.6,149c0,0.6,0.2,1.1,1.9,1.2v0.8h-13.7v-0.8c1.7-0.1,1.9-0.6,1.9-1.2v-31c0-0.6-0.2-1.1-1.9-1.2V116h24.4
		c9.9,0,14.1,3.5,14.1,11.1c0,6.1-4,9.4-9.5,10.9l7.9,11.1c0.6,0.9,1.2,1.2,1.9,1.2v0.8h-13.9v-0.8c0.9-0.1,1.5-0.4,1.5-1.2
		c0-0.6-7.1-9.8-7.9-11.2h-6.5V149z M466.6,130.8h11.2c3.9,0,5.1-1.7,5.1-3.7c0-1.9-1.2-3.7-5.1-3.7h-11.2V130.8z"/>
	<path class="st6" d="M505,137.2l0.7,0.3c-0.1,0.3-0.1,0.8-0.1,1.4c0,1.8,7.1,4.8,14.1,4.8c6.7,0,9.7-1.6,9.7-4.5
		c0-4.9-27.4,0.5-27.4-12.3c0-6.7,6.4-11.2,16.2-11.2c9.1,0,15.7,2.8,17.5,2.8c0.9,0,1.3-0.5,1.8-1l0.7,0.3l-4.6,9.3l-0.8-0.4v-0.7
		c0-1.7-7.6-3.5-13.8-3.5c-5.8,0-7.8,1.6-7.8,3.1c0,5.9,27.6-1.3,27.6,14c0,5.7-4.3,12.1-18.8,12.1c-11.1,0-16-3.1-17.6-3.1
		c-0.5,0-0.9,0.5-1.3,0.9l-0.8-0.2L505,137.2z"/>
	<path class="st6" d="M554.6,143.4c-1.7,4.9-2.1,5.7-2.1,6.1c0,0.4,0.3,0.7,1.2,0.7v0.8h-11.8v-0.8c0.9-0.2,1.3-0.5,1.7-1.5
		c0.6-1.5,11.9-30.8,11.9-31.2c0-0.5-0.7-0.6-1.3-0.7V116h17.4v0.8c-0.7,0.1-1.2,0.2-1.2,0.9c0,0.5,8.2,20.4,12.3,30.6
		c0.7,1.6,1.1,2,1.9,2v0.8h-13.1v-0.8c0.9-0.1,1.3-0.4,1.3-0.8c0-0.3-2-5.1-2.3-6H554.6z M556.2,138.1h12.4l-6.5-15.8L556.2,138.1z"
		/>
	<path class="st6" d="M604.4,142.9h22.9c0.7,0,1-0.3,1.2-1.9h0.8v11.7h-0.8c-0.2-1.4-0.5-1.7-1.2-1.7h-34.8v-0.8
		c1.7-0.1,1.9-0.6,1.9-1.2v-31c0-0.6-0.2-1.1-1.9-1.2V116h13.7v0.8c-1.7,0.1-1.9,0.6-1.9,1.2V142.9z"/>
	<path class="st7" d="M209.1,99.9c16.1-44.4,59.9-76.2,111.4-76.2c51.5,0,95.2,31.8,111.3,76.1c1,2.6,1.8,3.2,0.9,0
		c-13.3-48.4-58.9-85.8-112.4-85.8c-54.2,0-99.6,36.5-112.3,85.8C207,103.5,207.8,103.6,209.1,99.9"/>
	<path class="st7" d="M209.1,167c16.1,44.4,59.9,76.2,111.4,76.2c51.5,0,95.2-31.8,111.3-76.1c1-2.6,1.8-3.2,0.9,0
		c-13.3,48.4-58.9,85.8-112.4,85.8c-54.2,0-99.6-36.5-112.3-85.8C207,163.4,207.8,163.3,209.1,167"/>
</g>
</svg>
