<svg id="Layer_1" data-name="Layer 1" xmlns="http://www.w3.org/2000/svg" viewBox="0 0 125.45 87.57"><defs><style>.cls-1{fill:#231f20;}.cls-1,.cls-2{fill-rule:evenodd;}.cls-2{fill:#fff;}</style></defs><title>Artboard 1</title><path class="cls-1" d="M120.86,77a4.52,4.52,0,1,1,0,9,4.52,4.52,0,0,1,0-9Zm0,.89a3.63,3.63,0,1,0,3.7,3.7,3.64,3.64,0,0,0-3.7-3.7ZM122,84l-1-2.07h-1V84h-.88V79.07h2.37a2.17,2.17,0,0,1,1.33.3,1.24,1.24,0,0,1,.44,1.19c0,.88-.44,1.33-1.18,1.33h0l1,2.07Zm.3-3.55c0-.6-.74-.6-1.19-.6H120v1.34h1.49c.59,0,.89,0,.89-.74Z"/><polygon class="cls-1" points="29.34 74.97 30.52 73.34 30.67 72.75 31.56 71.71 32.89 70.08 33.93 69.04 34.97 68.01 35.56 67.41 36.15 66.82 36.74 66.23 37.04 66.08 37.34 66.23 37.19 66.67 36.3 67.86 35.41 69.49 34.52 70.53 32.89 72.9 32 73.79 31.11 74.38 30.52 74.97 29.63 76.01 28.15 77.64 27.56 78.38 26.67 79.57 25.63 80.75 29.34 74.97 29.34 74.97 29.34 74.97"/><polygon class="cls-1" points="37.19 82.53 37.48 81.64 37.93 81.05 38.38 80.01 38.82 79.27 39.12 78.53 39.26 77.64 39.26 76.9 39.56 76.16 40.01 75.27 40.45 74.08 40.6 73.34 41.04 72.75 41.34 72.01 41.48 71.56 41.19 71.27 41.04 70.97 41.48 70.08 41.93 69.34 42.52 68.45 42.97 67.56 43.41 67.12 44.15 65.79 44.89 64.45 45.78 63.86 46.52 62.97 47.27 62.23 48.15 61.04 48.3 60.75 49.04 60.01 48.89 60.6 48.75 61.64 48.15 62.82 48.01 63.56 47.86 64.16 47.56 64.9 47.56 65.49 47.41 65.79 47.41 66.08 47.56 66.38 47.56 67.86 47.27 68.75 46.67 69.64 46.08 70.67 45.49 71.56 45.04 72.45 44.45 73.34 43.71 73.94 43.41 74.08 42.82 74.82 42.08 75.86 41.48 76.75 40.89 77.19 40.6 77.79 40.3 78.23 40.15 78.82 39.86 79.57 39.41 80.16 38.82 80.6 38.38 81.19 37.93 81.79 37.78 82.08 37.48 82.53 37.19 82.97 37.19 82.53 37.19 82.53 37.19 82.53"/><polygon class="cls-1" points="64.75 54.82 64.9 55.41 64.9 55.71 65.05 56.3 64.6 57.19 64.3 57.78 64.6 58.97 65.34 61.19 65.78 63.12 66.23 64.9 66.82 66.38 68.01 67.71 68.75 68.3 69.64 68.75 70.08 69.19 70.68 70.23 71.42 71.56 72.01 72.6 72.6 74.08 73.34 75.12 74.08 76.45 74.38 77.64 74.97 78.68 75.42 79.71 76.01 81.05 76.31 81.79 76.75 82.97 77.19 83.86 77.64 84.6 77.79 85.19 78.08 85.64 78.38 86.23 78.68 86.53 78.97 86.97 79.12 86.68 79.27 86.08 79.12 85.64 79.27 85.19 79.12 84.75 78.97 84.45 78.82 84.16 78.68 83.56 78.38 83.12 78.08 82.53 77.94 81.79 77.94 81.34 77.79 81.05 77.79 80.6 77.94 80.16 78.23 80.01 78.23 79.57 78.08 78.97 77.79 78.23 77.49 77.64 76.9 77.05 76.45 76.45 76.01 75.56 75.71 74.67 75.42 73.94 75.12 73.49 74.68 72.3 74.38 71.12 73.94 70.38 73.79 69.93 73.64 69.49 73.94 69.04 74.23 68.75 74.23 68.16 73.94 67.41 73.79 66.82 73.34 66.23 73.05 65.79 72.9 65.19 72.6 64.75 72.16 64.01 71.86 63.41 71.56 62.67 70.97 61.78 70.68 61.04 69.79 60.01 69.19 59.27 69.05 58.97 68.45 58.23 68.01 57.34 67.56 56.75 67.12 55.86 66.82 55.41 66.23 54.38 65.49 53.34 65.05 52.6 64.6 51.86 64.01 51.12 63.27 50.08 64.75 54.82 64.75 54.82 64.75 54.82"/><polygon class="cls-1" points="73.05 57.19 73.64 57.78 74.38 58.67 75.12 59.41 76.01 60.3 76.9 61.19 77.79 62.23 78.38 62.97 79.27 63.86 79.56 64.45 79.86 64.75 80.01 65.19 80.16 66.23 80.31 66.82 80.75 67.27 81.49 68.01 82.53 69.19 83.42 69.93 84.31 70.67 85.94 72.16 86.38 72.75 86.68 73.34 86.97 73.94 87.42 74.53 87.86 75.12 88.45 76.01 88.75 76.75 89.19 77.49 89.79 78.23 90.08 79.12 90.53 79.57 90.83 80.31 91.12 80.75 91.42 81.49 91.86 82.23 92.45 83.12 92.9 84.16 92.01 82.97 91.12 81.79 89.49 79.86 88.31 78.68 87.42 77.79 86.68 76.75 85.79 76.01 85.05 75.12 84.45 74.67 83.71 74.53 83.27 74.38 82.82 73.94 82.53 73.34 82.08 72.9 81.34 72.01 80.6 71.27 80.01 70.67 79.56 70.23 79.12 69.49 78.68 68.6 78.23 67.86 77.79 66.82 77.19 65.79 76.31 64.01 75.71 62.97 75.12 61.64 74.68 60.75 74.08 59.71 73.79 58.97 73.34 58.23 73.05 58.08 73.05 57.78 72.75 57.34 72.45 56.45 73.05 57.19 73.05 57.19 73.05 57.19"/><polygon class="cls-1" points="86.08 65.79 86.68 66.53 87.27 67.41 87.57 67.86 87.71 68.45 87.71 69.34 88.01 69.78 88.45 70.23 88.9 70.97 89.64 71.56 90.23 72.45 90.83 72.9 91.27 73.49 92.6 74.97 93.19 75.71 93.79 76.31 94.23 76.75 94.83 77.34 93.94 75.86 92.9 74.53 92.31 73.49 92.01 73.05 91.71 72.6 91.71 71.56 91.57 71.12 91.27 70.67 90.38 69.64 89.49 68.6 88.6 67.71 87.71 66.97 86.97 66.23 86.38 65.49 85.64 65.05 86.08 65.79 86.08 65.79 86.08 65.79"/><path class="cls-1" d="M10.52,59.56A49.56,49.56,0,0,0,17,84.16h0l4.59-4.89,4.45-5.78,5.18-5.63L41.78,55.71,43,54.23l1.48-.3.89-.59,5.19-4.89,2.07-1.78,6.37-5L60.15,41l1.49.3,1.77,1.78,3.12,3,2.37.59,3.7,3.11,4.74,4.45,3,1.18,4,2.82,3.26,3.85,4.59,6.37,3.55,3.85,2.82,4,2.07,2.07,1.93,2.52L103.86,83h0c4.15-6.81,5.34-15.56,5.34-23.41a49.34,49.34,0,0,0-98.68,0Z"/><polygon class="cls-1" points="27.56 12.74 26.82 15.85 29.63 17.63 26.37 17.93 25.63 21.04 24.3 18.08 21.04 18.22 23.56 16.15 22.23 13.19 25.04 14.82 27.56 12.74 27.56 12.74 27.56 12.74"/><polygon class="cls-1" points="69.49 3.56 66.53 5.18 67.27 8.45 64.9 6.22 62.08 8 62.08 7.85 63.41 4.89 60.9 2.67 64.15 2.96 65.49 0 66.23 3.26 69.49 3.56 69.49 3.56 69.49 3.56"/><polygon class="cls-1" points="47.56 4 45.63 6.67 47.56 9.34 47.56 9.48 44.45 8.3 42.52 10.96 42.52 7.71 39.41 6.52 42.52 5.63 42.52 2.37 42.67 2.37 44.45 5.04 47.56 4 47.56 4 47.56 4"/><polygon class="cls-1" points="58.23 2.67 55.86 4.89 57.19 7.85 57.04 7.85 54.38 6.22 51.86 8.45 52.6 5.18 49.78 3.56 49.78 3.41 53.04 3.11 53.64 0 54.97 2.96 58.23 2.67 58.23 2.67 58.23 2.67"/><polygon class="cls-1" points="37.04 7.56 35.56 10.52 37.93 12.74 34.82 12.3 33.34 15.26 32.74 12 29.48 11.56 32.45 10.07 31.86 6.82 34.08 9.04 37.04 7.56 37.04 7.56 37.04 7.56"/><polygon class="cls-1" points="7.7 37.34 8.59 40.6 11.85 40.6 9.19 42.38 10.22 45.49 7.56 43.56 4.89 45.34 5.93 42.38 3.41 40.45 3.41 40.3 6.52 40.45 7.7 37.34 7.7 37.34 7.7 37.34"/><polygon class="cls-1" points="12.59 27.85 13.04 31.11 16.3 31.71 13.34 33.04 13.78 36.3 11.56 33.93 8.45 35.26 10.07 32.45 7.85 30.08 10.96 30.67 12.59 27.85 12.59 27.85 12.59 27.85"/><polygon class="cls-1" points="19.41 19.41 19.26 22.67 22.23 23.85 22.23 24 19.11 24.74 18.96 27.85 18.96 28 17.19 25.19 13.93 25.93 16 23.41 14.37 20.74 14.37 20.59 17.34 21.93 19.41 19.41 19.41 19.41 19.41 19.41"/><polygon class="cls-1" points="4.3 47.26 4.44 47.26 5.93 50.23 9.19 49.63 6.81 52.01 8.45 54.82 8.3 54.82 5.48 53.34 3.11 55.71 3.56 52.45 0.74 50.97 3.85 50.52 4.3 47.26 4.3 47.26 4.3 47.26"/><polygon class="cls-1" points="6.37 79.86 6.52 79.86 9.33 81.34 11.71 79.12 11.11 82.38 13.93 83.86 10.67 84.31 10.07 87.57 8.59 84.6 5.48 84.9 7.85 82.82 6.37 79.86 6.37 79.86 6.37 79.86"/><polygon class="cls-1" points="3.85 69.19 6.22 71.27 9.19 69.78 7.7 72.75 10.22 74.82 6.96 74.53 5.48 77.49 4.89 74.23 1.63 73.94 4.44 72.3 3.85 69.19 3.85 69.19 3.85 69.19"/><polygon class="cls-1" points="2.96 58.08 5.04 60.6 8.15 59.56 6.22 62.23 8.3 64.9 8.15 64.9 5.04 63.86 3.11 66.53 3.11 63.27 0 62.38 3.11 61.34 2.96 58.08 2.96 58.08 2.96 58.08"/><polygon class="cls-1" points="116.46 41.04 113.94 42.97 114.98 46.08 114.83 46.08 112.31 44.15 109.64 46.08 110.68 42.97 108.01 41.04 111.27 41.04 112.31 37.93 113.2 41.04 116.46 41.04 116.46 41.04 116.46 41.04"/><polygon class="cls-1" points="111.12 35.41 108.16 34.08 105.94 36.45 106.38 33.19 103.42 31.86 106.68 31.26 107.12 28 108.61 30.82 111.86 30.23 109.64 32.6 111.12 35.41 111.12 35.41 111.12 35.41"/><polygon class="cls-1" points="105.94 26.23 105.94 26.37 102.68 25.48 100.9 28.3 100.75 25.04 97.64 24.3 100.6 23.11 100.46 19.71 102.53 22.23 105.49 21.04 105.64 21.04 103.86 23.71 105.94 26.23 105.94 26.23 105.94 26.23"/><polygon class="cls-1" points="98.97 18.52 95.71 18.22 94.38 21.19 93.64 18.08 90.38 17.78 93.19 16.15 92.45 12.89 94.97 14.96 97.79 13.34 96.46 16.3 98.97 18.52 98.97 18.52 98.97 18.52"/><polygon class="cls-1" points="90.38 11.85 87.12 12.15 86.38 15.41 85.05 12.45 81.79 12.74 84.31 10.52 82.97 7.56 85.79 9.19 88.16 6.96 87.57 10.07 90.38 11.85 90.38 11.85 90.38 11.85"/><polygon class="cls-1" points="80.31 6.67 77.34 7.71 77.34 11.11 75.42 8.45 72.31 9.63 72.31 9.48 74.23 6.82 72.31 4.3 72.31 4.15 75.42 5.18 77.19 2.52 77.19 5.63 80.31 6.67 80.31 6.67 80.31 6.67"/><polygon class="cls-1" points="117.79 74.38 114.53 74.67 113.79 77.79 112.61 74.82 109.35 75.12 111.86 72.9 110.68 69.93 113.35 71.56 115.86 69.49 115.12 72.6 117.79 74.38 117.79 74.38 117.79 74.38"/><polygon class="cls-1" points="114.23 85.05 110.98 84.6 109.64 87.57 109.05 84.45 105.79 84.01 108.61 82.38 108.01 79.12 110.38 81.34 113.2 79.86 113.35 79.86 111.86 82.67 114.23 85.05 114.23 85.05 114.23 85.05"/><polygon class="cls-1" points="119.72 63.41 119.57 63.41 116.46 64.3 116.16 67.56 114.53 64.75 111.42 65.49 111.27 65.49 113.49 62.97 111.86 60.16 114.83 61.34 116.9 58.97 116.61 62.23 119.72 63.41 119.72 63.41 119.72 63.41"/><polygon class="cls-1" points="119.13 52.45 116.16 53.78 116.46 57.04 114.38 54.52 111.42 55.86 111.27 55.86 113.05 53.04 110.83 50.52 114.09 51.27 115.72 48.45 116.01 51.71 119.13 52.45 119.13 52.45 119.13 52.45"/><path class="cls-2" d="M23.09,43.08a3.83,3.83,0,0,1-1.33-2.52,2.24,2.24,0,0,1,.44-1.92c.3-.6,1.19-.6,1.63-.45.45.3.74.59.59,1-.14.74-.88,1.18-.88,2.07s1,1.19,1.62,1.34a4.63,4.63,0,0,0,4.15-.6c4.74-4,3.86-11.11,9.64-13.93h0l.74-.14h0c-1.78,1.92-2.08,3.85-2.82,6.07,0,.15.59,0,.89,0a5.07,5.07,0,0,0,3.41-5,3.68,3.68,0,0,0-2.52-3.26,9.55,9.55,0,0,0-10.52,2.37c-1.63,1.93-2.37,3.71-1.78,6.08a2,2,0,0,0,1.48,1.33,2.33,2.33,0,0,0,2.22,0c1.19-.29-1.33-2.66,1.64-2.66.29,0,.59.44.59.89A2.57,2.57,0,0,1,31.39,36a6,6,0,0,1-4.74.89A4.6,4.6,0,0,1,24,34.78a5.55,5.55,0,0,1,.44-5A12.62,12.62,0,0,1,34.94,24c3.26-.15,6.52.74,8.3,3.4a4.93,4.93,0,0,1-.15,4.75,8.77,8.77,0,0,1-6.66,3.25,10.72,10.72,0,0,1-6.82,8c-1.92.59-4.74.89-6.52-.3Z"/><path class="cls-2" d="M88.88,38.49v-.74h0c-1,.74-2.08,1.33-3.26.89-.45-.3-.3-.89-.15-1.34.44-1.33.74-1.93,1.33-3.41-.15-.29-.44,0-.59,0-1.93,1.48-2.08,3-3,4.75H81.32l.59-1h0a3.58,3.58,0,0,1-1.63.89c-.44.15-1,.59-1.63.15-.29-.3-.15-.6-.29-.89-.89.74-1.93,1.48-3.11.89-.6-.3-.3-1-.15-1.49h0l1-2.52h0a12.74,12.74,0,0,1-1.33.45c-.89,1.93-2.37,3.85-4.74,4a2.24,2.24,0,0,1-1.48-1.33c-.15-.15.15-.15,0-.15a3.23,3.23,0,0,1-3.26,1c-.6-.3-.3-1.19-.15-1.78.59-1.34.45-1.19,1.19-2.67.29-1-.89-.59-1-.15C64,35.67,64,36.86,63.1,38.49a8.31,8.31,0,0,1-1.93,0c.74-1.63,1.48-2.82,2.22-4.6,0-.14,0-.44-.15-.44-1,.15-1.33,1-1.92,1.78h0l-1.63,3.41H58.06a2.2,2.2,0,0,1,.29-1,3.24,3.24,0,0,1-2.81,1,1.18,1.18,0,0,1-.3-1.19c-.59.15-1,.74-1.48,1a3.72,3.72,0,0,1-1.78.15c-.89-1-.15-2.38.45-3.27h0l.59-.74h0c-.44-.14-1,.3-1.48-.14h0l-.3-.74h0c-1.48,1.33-1.63,3-2.52,4.74H47.09c0-.6.15-.45.45-1-1,.74-1.93,1.48-3.26.89-.3-.3-.15-.74-.3-1-.89.74-1.92,1.63-3.26,1a1.11,1.11,0,0,1-.29-1.48,7.84,7.84,0,0,1,4.89-5,4,4,0,0,1,2.66.3h0l-2.22,4.44h0c0,.3,0,.59.3.74,2.37-1,2.66-3.41,3.7-5.18h1.63c0,.44-.44.89-.3,1.18.74-.59,1.49-1.63,2.37-1.48.3.74-.88,1.33-.44,2.07,1-.14,1.78-1.18,2.67-1.48a4,4,0,0,1,3.41-.29c-.6,1.63-1.49,3.11-2.23,4.74,0,.29,0,.44.3.44,1-.29,1.18-1.18,1.93-1.78h0L61,32.12H62.5a2,2,0,0,0-.29.89c.89-.6,1.77-1.34,3-.89.3.29.3.59.45.89.88-.75,1.92-1.49,3.11-.75.29.45,0,.75-.15,1a23.2,23.2,0,0,0-1.63,4c.15.3.44.15.59,0,1.93-1.18,1.33-2.81,3-4.29,1.19-.89,2.52-1.64,4-.89.6.44.45,1.18.6,1.77a2.55,2.55,0,0,0,2.37-1.63,3.22,3.22,0,0,1,1.63,0h0L77,37h0a.54.54,0,0,0,.15.44c2.37-1,2.52-3.26,3.56-5.19a7.57,7.57,0,0,1,1.78,0c-.6,1.63-1.49,2.82-2.08,4.45,0,.3-.3.74.15.59,2.07-1.18,2.81-3,3.7-5a6.35,6.35,0,0,1,1.63,0c0,.3-.29.75-.29,1,.89-.74,1.92-1.63,3.11-1.18.59.44.3,1.18.15,1.63h0l-1.63,3.4h0a.31.31,0,0,0,.29.3c2.08-.89,2.37-2.82,3.41-4.59-.44,0-.74-.15-1-.15-.29-1,1-.45,1.34-.59h0l1.33-2.67h1.48l-1,2.67h0c.29.14.74,0,1.18,0,0,.29,0,.74-.3.89h.15a6.74,6.74,0,0,1-1.48-.15h0l-1.93,4.29h0c0,.45-.29,1,.3,1.34,1.19.15,1.78-1,2.37-1.93h1c-1.19,2.08-2.08,3-3.56,3-.59,0-1.77-.44-1.92-1ZM42.65,37.15c1.78-.89,2.37-2.66,3.26-4.14-1.63-.45-3.41,2.07-3.85,3.85a.43.43,0,0,0,.59.29Zm27.85-1c0,.44-.44,1,0,1.48.15.29.45.15.6,0a8.4,8.4,0,0,0,2.07-4.3c0-.29-.3-.44-.44-.29-1.34.74-1.63,1.77-2.23,3.11Zm-16.74,1c1.93-.74,2.37-2.52,3.26-4-1.63-.29-3,1.93-3.56,3.41-.14.3,0,.74.3.59Z"/></svg>