<svg id="Layer_1" data-name="Layer 1" xmlns="http://www.w3.org/2000/svg" viewBox="0 0 19.08 26.85"><defs><style>.cls-1,.cls-2{fill:#231f20;}.cls-2{fill-rule:evenodd;}</style></defs><title>126841-Sony_Pictures_Entertainment</title><path class="cls-1" d="M.5,23.9a3.61,3.61,0,0,0,2.6.18,1,1,0,0,0,.67-.81.83.83,0,0,0-.43-.72A14.66,14.66,0,0,0,1,22.13a.2.2,0,0,1-.14-.19c0-.34.72-.38,1.15-.35s1.05.14,1.23.64h.38v-.91H3.23v.19l-.14-.06a2.85,2.85,0,0,0-2.81.18.61.61,0,0,0-.15.75c.42.76,1.44.61,2.21.74.23,0,.46,0,.61.21a.24.24,0,0,1-.07.31,2.22,2.22,0,0,1-1.68.08c-.29-.09-.66-.32-.7-.64H.12v1.08H.51V23.9Z"/><polygon class="cls-1" points="15.07 23.04 15.07 23.72 14.6 23.72 14.6 24.09 16.48 24.09 16.48 23.72 15.98 23.72 15.98 22.99 17.17 21.7 17.66 21.7 17.66 21.34 16.13 21.34 16.13 21.7 16.43 21.7 15.67 22.52 15.02 21.7 15.32 21.7 15.32 21.34 13.44 21.33 13.44 21.7 13.96 21.7 15.07 23.04 15.07 23.04"/><path class="cls-1" d="M8.83,21.33h1.32L12,22.94V21.7h-.45v-.37h1.54v.37H12.6v2.39h-.54c-.73-.59-1.42-1.24-2.15-1.82v1.45h.47v.37H8.84v-.37h.47v-2H8.84v-.37Z"/><path class="cls-2" d="M6.37,24.24c1.17,0,2.12-.69,2.12-1.55s-1-1.55-2.12-1.55-2.12.7-2.12,1.55,1,1.55,2.12,1.55Zm0-2.63a1.11,1.11,0,1,1,0,2.21,1.11,1.11,0,1,1,0-2.21Z"/><polygon class="cls-2" points="14.82 25.84 14.77 25.82 14.82 25.82 14.82 25.84 14.82 25.84"/><path class="cls-2" d="M.83,25.87v-.55h.28c.33,0,.48.09.48.28s-.13.27-.49.27Zm0,.18h.45a1.24,1.24,0,0,0,.43,0,.43.43,0,0,0,.36-.4.42.42,0,0,0-.18-.34.92.92,0,0,0-.61-.13H.07v.18H.2c.16,0,.18,0,.18.18v1c0,.15,0,.17-.18.17H.07v.18h1v-.18H1c-.16,0-.18,0-.18-.17v-.42Z"/><path class="cls-2" d="M3.39,26.63h-.1c-.16,0-.18,0-.18-.17v-1c0-.15,0-.17.18-.17h.1v-.18h-1v.18h.1c.16,0,.18,0,.18.17v1c0,.16,0,.17-.18.17H2.39v.18h1v-.18Z"/><path class="cls-2" d="M5.56,25.14H5.3l-.08.18-.12-.09a.83.83,0,0,0-.49-.13.9.9,0,0,0-1,.87c0,.53.41.88,1.05.88a2,2,0,0,0,.36,0,.75.75,0,0,0,.34-.18.56.56,0,0,0,.2-.46H5.3a.66.66,0,0,1-.09.25.56.56,0,0,1-.51.22c-.38,0-.58-.21-.58-.64s.19-.68.6-.68a.66.66,0,0,1,.42.14.53.53,0,0,1,.18.33h.24v-.65Z"/><path class="cls-2" d="M5.9,25.14v.69h.23v-.06c0-.3.19-.45.56-.45v1.14c0,.16,0,.17-.19.17H6.42v.18h1v-.18H7.32c-.17,0-.19,0-.19-.17V25.32c.4,0,.56.15.57.51h.24v-.69Z"/><path class="cls-2" d="M8.17,25.32h0c.16,0,.18,0,.18.17v.66a.73.73,0,0,0,.06.38c.09.21.39.32.82.32a1.2,1.2,0,0,0,.61-.13.41.41,0,0,0,.19-.18.38.38,0,0,0,0-.19v-.86c0-.15,0-.17.18-.17h.07v-.18H9.52v.18H9.6c.16,0,.18,0,.18.17v.66c0,.24,0,.28-.08.35a.54.54,0,0,1-.39.13.56.56,0,0,1-.4-.13c-.07-.07-.09-.12-.09-.35v-.66c0-.15,0-.17.18-.17h.14v-.18h-1v.18Z"/><path class="cls-2" d="M11.35,25.85v-.53h.35c.31,0,.45.08.45.27s-.12.26-.44.26Zm0,.18h.3a.41.41,0,0,1,.24.08c.09.06.11.11.11.36s.15.38.46.38.42-.11.42-.4v-.12h-.22v.13c0,.12,0,.16-.1.16s-.1,0-.11-.1v-.17a.34.34,0,0,0-.2-.32A.67.67,0,0,0,12,26a1.42,1.42,0,0,0,.36-.09c.17-.07.26-.17.26-.32a.39.39,0,0,0-.25-.35.81.81,0,0,0-.44-.07H10.6v.18h.13c.15,0,.17,0,.18.17v1c0,.15,0,.17-.18.17H10.6v.18h1v-.18h-.07c-.16,0-.18,0-.19-.17V26Z"/><path class="cls-2" d="M15.15,25.14h-2v.18h.07c.13,0,.16,0,.18.1v1c0,.16,0,.17-.18.17h-.06v.18h2v-.67H14.9v.12a.32.32,0,0,1-.09.23c-.09.11-.19.14-.44.14h-.55V26H14c.24,0,.31.09.31.36h.24v-.86h-.24v0c0,.22-.07.3-.27.3h-.18v-.54h.55c.25,0,.37,0,.45.16a.57.57,0,0,1,.08.34h.25v-.68Z"/><path class="cls-2" d="M17.32,25.14h-.19l-.1.15-.12-.08a1.14,1.14,0,0,0-.52-.11c-.49,0-.79.2-.79.52a.34.34,0,0,0,.08.23c.08.12.21.17.54.22l.65.12c.15,0,.23.11.23.21s-.17.24-.45.24a1,1,0,0,1-.55-.16.5.5,0,0,1-.23-.38h-.23v.71h.23l.08-.18.11.09a1.27,1.27,0,0,0,.6.13c.49,0,.8-.2.8-.52a.46.46,0,0,0-.34-.43,2.6,2.6,0,0,0-.65-.14c-.39-.06-.48-.1-.48-.23s.16-.23.41-.23.64.17.7.48h.22v-.64Z"/><path class="cls-1" d="M3.79,11.72c-.42.84-.29.9,0,1.22a.48.48,0,0,1,0,.28v5.22l-1,.51V6.73l1-.47v5a1.51,1.51,0,0,1,0,.43Z"/><polygon class="cls-1" points="1.44 7.34 2.39 6.91 2.39 19.15 1.43 19.6 1.44 7.34 1.44 7.34"/><polygon class="cls-1" points="0 8.01 0.99 7.57 0.99 19.78 0 20.27 0 8.01 0 8.01"/><path class="cls-1" d="M16.83,5.74c0,1.45.3,6.37.29,6.45l-.61.29s.18-3.21.23-6.4c.05-1.33-.32-5.79-.32-5.79L17,0s-.2,5.18-.2,5.74Z"/><path class="cls-1" d="M15.46,6.38c-.05.75.26,6.48.26,6.48-.2.08-.6.28-.6.28s.18-6.05.18-6.5C15.24,5.2,14.91,1,14.91,1L15.7.63s-.2,5.17-.24,5.75Z"/><path class="cls-1" d="M14,8c0,1.11.34,5.5.34,5.5l-.67.33s.14-4.63.15-6.19c0-1.27-.4-5.92-.4-5.92a6.6,6.6,0,0,1,.81-.38S13.93,6.74,14,8Z"/><path class="cls-1" d="M12.47,8.61c0,.6.38,5.59.38,5.59s-.76.35-.78.38c0-.18.19-5.22.19-6.16s-.39-6-.39-6L12.7,2s-.21,5.3-.23,6.57Z"/><path class="cls-1" d="M10.94,9.38c0,1.09.37,5.56.37,5.56l-.81.38h0s.22-5.42.19-6.26-.44-5.83-.44-5.83l.95-.47c0,.08-.31,4.75-.25,6.62Z"/><path class="cls-1" d="M9.42,9.25c0,2.32.42,6.37.42,6.37l-1.09.51s.46-5.06.4-6.3c0-1.46-.48-5.72-.48-5.86.34-.19.7-.34,1.06-.5,0,0-.32,4.67-.31,5.78Z"/><path class="cls-1" d="M8,7a26.06,26.06,0,0,0,.15,7.64l.18,1.64-1.16.54,0,0V14.76a22.64,22.64,0,0,0,0-7.57V4.65l1.18-.54L8,7Z"/><path class="cls-1" d="M6.81,7.24a17.2,17.2,0,0,0,0,7.5v2.32l-1.13.52V13.74A9.83,9.83,0,0,0,5.74,9V5.33l1.07-.49v2.4Z"/><path class="cls-1" d="M5.29,9.17a8.3,8.3,0,0,0,0,4.58v4.06l-1.08.5V13.12a.73.73,0,0,1,0-.32c.4-.54.45-.81.08-1.25-.06-.08-.12-.1-.11-.2V6.07l1.1-.51h0V9.17Z"/><path class="cls-2" d="M17.69,25.16v.11h.19v.57h.18v-.57h.18v-.11Zm.63,0v.68h.16v-.35s0-.13,0-.2v0h0l0,.1,0,.12.1.34h.14l.1-.35v0a.43.43,0,0,1,0-.1.64.64,0,0,1,0-.09h0v.56h.16v-.68h-.25l-.07.24v0s0,.13,0,.19v.05h0v0a.64.64,0,0,1,0-.09,1.27,1.27,0,0,0,0-.14v0l-.06-.2Z"/></svg>