<svg id="Layer_1" data-name="Layer 1" xmlns="http://www.w3.org/2000/svg" viewBox="0 0 187.09 90.15"><defs><style>.cls-1{fill:#0a0c06;fill-rule:evenodd;}</style></defs><title>Artboard 1</title><path class="cls-1" d="M52.46,31.41C58.23,13.58,71.81,0,94.56,0c21,0,36.67,13.92,42.27,31.75C130.89,15.11,114.25,3.06,94.56,3.06c-19.52,0-36,11.88-42.1,28.35Z"/><path class="cls-1" d="M136.66,58.57c-5.6,17.83-21.73,31.58-42.1,31.58C73,90.15,58.4,76.57,52.63,58.91c6.11,16.47,22.58,28.18,41.93,28.18,19.52,0,36.16-11.88,42.1-28.52Z"/><path class="cls-1" d="M105.94,30.56c-.85.34-1.87,0-2.72.68,0-.17-.17-.51-.51-.34h-.34c.85-.68-.51-1.36.85-1.36a7.51,7.51,0,0,1,2.72,1Z"/><polygon class="cls-1" points="187.09 52.12 187.09 47.71 185.9 48.72 177.92 48.72 177.92 37.01 178.94 35.65 172.15 35.65 173.16 37.01 173.16 50.93 172.15 52.12 187.09 52.12 187.09 52.12"/><path class="cls-1" d="M159.75,46.18h-5.43L157,40.41l2.71,5.77Zm7.81,5.94-8-16.47H154l.68,1.36-7.47,15.11h6.11l-1-1.19.85-1.7h7.81l.85,1.7-1.19,1.19Z"/><path class="cls-1" d="M143.12,47.37c0-2.72-2.21-4.08-5.27-5.1-1.86-.68-4.75-1-4.75-2.37,0-.68.85-1,2.21-1a20.66,20.66,0,0,1,7,1.7V35.14l-1.36,1.19a18.19,18.19,0,0,0-5.43-1c-5.61,0-7.3,2.38-7.3,4.59,0,3.05,1.86,4.41,5.09,5.6,2.38.85,4.58.85,4.58,2.21,0,1.18-1.35,1.35-2,1.35a14.91,14.91,0,0,1-7.64-2.54v6.11l1.35-1.36A19.38,19.38,0,0,0,136,52.63c4.92,0,7.13-2.21,7.13-5.26Z"/><path class="cls-1" d="M116.63,41.08c0,1.19-1.19,2-2.72,2h-3.22V39.05h3.73a2,2,0,0,1,2.21,2Zm5.6,11-4.41-6.45a5.24,5.24,0,0,0,3.73-4.92c0-2.89-1.69-5.1-6.45-5.1H104.92l1,1.36V50.93l-1,1.19h6.79l-1-1.19V46.18h2L116,50.93l-1,1.19Z"/><polygon class="cls-1" points="98.64 52.12 98.64 47.71 97.45 48.72 88.96 48.72 88.96 45.5 94.39 45.5 95.58 46.52 95.58 41.25 94.39 42.27 88.96 42.27 88.96 39.05 97.45 39.05 98.64 40.24 98.64 35.65 83.19 35.65 84.2 37.01 84.2 50.93 83.19 52.12 98.64 52.12 98.64 52.12"/><polygon class="cls-1" points="79.11 35.65 73.17 35.65 74.19 37.01 70.11 46.01 66.04 37.01 67.23 35.65 60.27 35.65 67.91 52.12 71.3 52.12 79.11 35.65 79.11 35.65"/><polygon class="cls-1" points="56.02 52.12 55.01 50.93 55.01 37.01 56.02 35.65 49.06 35.65 50.08 37.01 50.08 50.93 49.06 52.12 56.02 52.12 56.02 52.12"/><polygon class="cls-1" points="42.61 35.65 36.84 35.65 37.86 37.01 37.86 45.16 29.37 35.65 24.28 35.65 25.3 37.01 25.3 50.93 24.28 52.12 30.05 52.12 29.03 50.93 29.03 42.44 37.86 52.12 41.59 52.12 41.59 37.01 42.61 35.65 42.61 35.65"/><path class="cls-1" d="M18.67,35.65h-7l1,1.36v9c0,2-1.36,2.88-3.39,2.88s-3.4-.84-3.4-2.88V37l1-1.36H0L1,37v9.17c0,4.58,2.54,6.28,8.32,6.28,5.6,0,8.15-1.7,8.15-6.28V37l1.18-1.36Z"/><path class="cls-1" d="M108,31.07a.88.88,0,0,1-.68.34v-.68c.17,0,.34.17.68.34Z"/><path class="cls-1" d="M125.29,57.55a1.32,1.32,0,0,1,0-1.19H100.5l2.72,2.38a3.12,3.12,0,0,1,1.7,1.87c.85,2.21-.34.34-.34,3.73,0,3.06-.85,2.55-.85,2.55a11.06,11.06,0,0,1-2,5.77,1.6,1.6,0,0,0-.34,2.21s-.34.34-1,2.88c-.17.85,1,2.21,1.87,1.87.68-.34-1.7-.51,1-1.7,1-.34.17-1.18.17-1.18s1.7-.17,2.55-2.72c1.69.34,1.18-.68,4.58-1.53,1-.17,1.19-.51,1-1.36s1.19.17,4.58-3.39c2.72-2.72,1.7-3.4,3.57-4.41,2-1,2.2.17,2.88-.68,1.53-2,1-1.87,1.7-3.23l.34-.68s1-.85.68-1.19Z"/><path class="cls-1" d="M84,28.86c-1-1.36-.34-3.22.67-5.09a4.07,4.07,0,0,1,4.59-1.19c2-1.53,2.55.17,4.24-.68,2.21-.85,1,2.72,3.23,3.57.85-2.38-2-4.25-.17-5.44,1.36-.85,2.38-1.36,2.89-2.37.84-1.53,1-2.72,1.69-2.89a1.59,1.59,0,0,0,1-1.87,2.79,2.79,0,0,0,2.72-.68c-.85-.51-2.21-.85-1.87-1.86.51-1,3.4,1.18,4.41-.68-1.86-.68-3.73-2.38-4.75-2.89-.85.85-1.19.51-2.21-.17-1.69-1.36-1.69-.17-2.71-1-.85,1.7.34,1.53.68,1.87,1,1.19-1-1-.85,2,0,.68-1,.85-1.87-.85-.51-.85-3.9-.68-4.41-1.53.51-.85,4.58-4.24,10.86-3.4C93,0,80.64,3.9,80.64,5.26c-1.36.85-.85,1.7-1.53,1.87-1,.51-2.2,3.74-2.2,3.74s.67.34-1.36,2.71a10.9,10.9,0,0,0-2.21,4.76,7.53,7.53,0,0,1,.85,4.41c-.17,1.87-.17.51.68,1.7.34.85.85,3.56,1.19,2.54.51-2-1-3.9-.85-5.94.17.34.68-.68.68.17,0,2.55,3,7.13,3,7.13s-1.19,1.19,0,1.19l-.34.68a2.84,2.84,0,0,1,1.53.51c.51.51,1,1,1.53,1h8.83s.68-2.72,1.19-3.06c.51-.51-1,0-1.53-.51s-.68.34-1,.85a2.55,2.55,0,0,1-1.19,1.53,17.68,17.68,0,0,1-2.55.34c-.34,0-1.35-2-1.35-2Z"/><path class="cls-1" d="M95.58,27.33c.17-.51,1-.17,1.7-.17s.51,1.19,1.53,1c1.18-.34,1.18,1,2.71.85,1.53,0-.34.68-.34.68s-1-.51-1.52-.17c-.34.17,0-.17-.51-.51-.85-.85-.68,0-2-1.19-1-.85-2,.17-1.53-.51Z"/></svg>