<svg id="Layer_1" data-name="Layer 1" xmlns="http://www.w3.org/2000/svg" viewBox="0 0 156.11 189.92"><defs><style>.cls-1{fill:#1d1d1b;fill-rule:evenodd;}</style></defs><title>warner-bros-black-vector-logo</title><path class="cls-1" d="M132.49,63.51c1.83-10.24-5-18.28-12.92-24.14-11.1-8.16-23.65-13-36.57-16.82h0V157.62h0c5.73-5,11.45-10.61,16.94-16.34,11.7-12.92,22.55-26.08,27.06-41.93,1.83-7.19.86-15.36-5.24-20.24,5.24-4.14,10-9.26,10.73-15.6ZM110.18,110.2a85.73,85.73,0,0,1-16,20.23h0l-.12-38.64h0c4.39-3.17,8.9-6,14.38-6.46a7,7,0,0,1,5.61,2.44c4.88,7.68-.85,15.72-3.9,22.43Zm11.09-49.74c-1.09,6.1-7.8,9.63-12.55,12.19a128.68,128.68,0,0,1-14.63,6.22h0V39.37h0A74.46,74.46,0,0,1,115.3,50.22c3,2.56,7.19,5.73,6,10.24Z"/><path class="cls-1" d="M73,156.64V22.06L62.15,27.67V99.84h0c-.49,2.07,1,5.24-1.34,6.21a1.14,1.14,0,0,1-1.34-.61C54.84,88,52.89,69.61,52,50.71h0l-.36-16.46L41.31,41.93v4.39h0c.61,17.43,1.83,34.5,5.12,50.83h0l-4.15,4.64h0A41.8,41.8,0,0,1,38.62,95c-5.24-13.9-7.19-29.13-7.92-44.86h0l-9,6.71h0c.85,23.89,5.36,46.44,19.87,64.36,2.8-3.17,5.61-6.46,8.41-9.51a125,125,0,0,0,6,18.77c4,9.39,8.54,18.9,17.07,26.21Z"/><path class="cls-1" d="M156,39.74l-16.22-4-2.92-11-16.58-3.9-3.42-12L77.75,0,39.36,8.9l-3.42,12-16.58,3.9h0c-1.09,3.77-2.07,7.43-3,11.09h0L.1,39.74h0c-1.21,34.5,8.29,64.85,25.48,91.91C38.14,151,57,171.51,77.75,181.63c14-6.7,26.46-17.92,37.67-30.47,27.19-31.45,42.06-68.27,40.6-111.42ZM108.23,144.09c-8.9,10-18.9,19.87-30.11,25.6-10.73-5.37-20.11-14.63-28.65-24-22.18-26-36.93-55-39.37-89a63.23,63.23,0,0,1-.24-8.41h0L23.63,45.1,26.8,33.77l17-4,.12-.36,3-11.7,30.72-7.2,31.7,7.2,3,11.94,17.19,4.15,2.93,11.33,13.9,3.17h0c-.37,37.06-15.12,68.15-38.16,95.82Z"/><path class="cls-1" d="M113.35,180.29a2.92,2.92,0,0,0,3.05-3.17c0-2.31-1.47-3.41-4.27-3.41h-4.39v11.7h2v-5h1.83l3,5h2.07l-3.29-5.12Zm-3.66-1.46v-3.54H112c1.1,0,2.44.25,2.44,1.71s-1.22,1.83-2.68,1.83h-2.08Z"/><path class="cls-1" d="M111.89,169.93a10,10,0,1,0,10,10,10,10,0,0,0-10-10Zm0,19a9,9,0,1,1,9-9,9,9,0,0,1-9,9Z"/></svg>